SplineFontDB: 3.2
FontName: JovusDisplay-Bold
FullName: Jovus Display
FamilyName: Jovus Display
Weight: Bold
Copyright: Copyright (c) 2024 Jovan Lanik\nCopyright (URW)++,Copyright 2014 by (URW)++ Design & Development
Version: 1.00
ItalicAngle: 0
UnderlinePosition: -155
UnderlineWidth: 69
Ascent: 729
Descent: 271
InvalidEm: 0
sfntRevision: 0x00010000
LayerCount: 2
Layer: 0 0 "Back" 1
Layer: 1 0 "Fore" 0
XUID: [1021 818 -1159209567 13591781]
StyleMap: 0x0020
FSType: 4
OS2Version: 3
OS2_WeightWidthSlopeOnly: 0
OS2_UseTypoMetrics: 0
CreationTime: 1495029637
ModificationTime: 1725401331
PfmFamily: 81
TTFWeight: 700
TTFWidth: 5
LineGap: 200
VLineGap: 0
Panose: 0 0 8 0 0 0 0 0 0 0
OS2TypoAscent: 729
OS2TypoAOffset: 0
OS2TypoDescent: -271
OS2TypoDOffset: 0
OS2TypoLinegap: 200
OS2WinAscent: 1070
OS2WinAOffset: 0
OS2WinDescent: 307
OS2WinDOffset: 0
HheadAscent: 729
HheadAOffset: 0
HheadDescent: -271
HheadDOffset: 0
OS2SubXSize: 650
OS2SubYSize: 600
OS2SubXOff: 0
OS2SubYOff: 75
OS2SupXSize: 650
OS2SupYSize: 600
OS2SupXOff: 0
OS2SupYOff: 350
OS2StrikeYSize: 69
OS2StrikeYPos: 315
OS2CapHeight: 718
OS2XHeight: 526
OS2Vendor: 'UKWN'
OS2CodePages: 6000009f.00000000
OS2UnicodeRanges: 00000287.00000800.00000000.00000000
Lookup: 1 0 0 "'aalt' Access All Alternates lookup 0" { "'aalt' Access All Alternates lookup 0 subtable"  } ['aalt' ('DFLT' <'dflt' > 'cyrl' <'dflt' > 'grek' <'dflt' > 'latn' <'AZE ' 'CRT ' 'DEU ' 'MOL ' 'ROM ' 'SRB ' 'TRK ' 'dflt' > ) ]
Lookup: 3 0 0 "'aalt' Access All Alternates lookup 1" { "'aalt' Access All Alternates lookup 1 subtable"  } ['aalt' ('DFLT' <'dflt' > 'cyrl' <'dflt' > 'grek' <'dflt' > 'latn' <'AZE ' 'CRT ' 'DEU ' 'MOL ' 'ROM ' 'SRB ' 'TRK ' 'dflt' > ) ]
Lookup: 1 0 0 "'sups' Superscript lookup 2" { "'sups' Superscript lookup 2 subtable" ("superior") } ['sups' ('DFLT' <'dflt' > 'cyrl' <'dflt' > 'grek' <'dflt' > 'latn' <'AZE ' 'CRT ' 'DEU ' 'MOL ' 'ROM ' 'SRB ' 'TRK ' 'dflt' > ) ]

StartChar: exclam
Encoding: 33 33 2
Width: 351
GlyphClass: 1
Flags: HW
LayerCount: 2
Fore
SplineSet
117.599609375 726 m 1
 282.599609375 726 l 1
 282.599609375 718.5 282.599609375 500.487304688 282.599609375 507.987304688 c 1
 282.599609375 500.487304688 239.650390625 184.5 239.650390625 192 c 1
 159.528320312 192 l 1
 159.528320312 184.5 117.599609375 500.499023438 117.599609375 507.999023438 c 1
 117.599609375 500.499023438 117.599609375 718.5 117.599609375 726 c 1
117.599609375 153.5 m 1
 282.599609375 153.5 l 1
 282.599609375 -7.5 l 1
 117.599609375 -7.5 l 1
 117.599609375 153.5 l 1
EndSplineSet
EndChar

StartChar: quotedbl
Encoding: 34 34 3
Width: 513
GlyphClass: 1
Flags: HW
LayerCount: 2
Fore
SplineSet
52.5 729 m 1
 209.666320114 729 l 1
 209.666320114 721.5 209.666320114 582.78125 209.666320114 590.28125 c 1
 209.666320114 582.78125 161.411132812 447.5 161.411132812 455 c 1
 94.4716796875 455 l 1
 94.4716796875 447.5 52.5 582.859375 52.5 590.359375 c 1
 52.5 582.859375 52.5 721.5 52.5 729 c 1
306.033875198 729 m 1
 463.200195312 729 l 1
 463.200195312 721.5 463.200195312 582.8046875 463.200195312 590.3046875 c 1
 463.200195312 582.8046875 419.147460938 447.5 419.147460938 455 c 1
 352.208984375 455 l 1
 352.208984375 447.5 306.033875198 582.834960938 306.033875198 590.334960938 c 1
 306.033875198 582.834960938 306.033875198 721.5 306.033875198 729 c 1
EndSplineSet
EndChar

StartChar: numbersign
Encoding: 35 35 4
Width: 601
GlyphClass: 1
Flags: HW
LayerCount: 2
Fore
SplineSet
162.57766038 -32 m 1
 38.5361328125 -32 l 1
 38.5361328125 -24.775390625 78.5361328125 164.5 78.5361328125 164.5 c 1
 3.150390625 164.5 l 1
 3.150390625 278.5 l 1
 101.491210938 278.5 l 1
 129.116989606 416.5 l 1
 31.150390625 416.5 l 1
 31.150390625 530.5 l 1
 154.190571655 530.5 l 1
 191.463462796 704.5 l 1
 322.56040921 704.5 l 1
 285.287518069 530.5 l 1
 382.212124862 530.5 l 1
 419.483996421 704.5 l 1
 544.258789062 704.5 l 1
 510.258789062 530.5 l 1
 598.650390625 530.5 l 1
 598.650390625 416.5 l 1
 488.245117188 416.5 l 1
 458.534020512 278.5 l 1
 558.650390625 278.5 l 1
 558.650390625 164.5 l 1
 434.449433852 164.5 l 1
 434.449433852 164.5 390.599213588 -24.775390625 390.599213588 -32 c 1
 259.500228008 -32 l 1
 259.500228008 -24.775390625 303.350448272 164.5 303.350448272 164.5 c 1
 206.427880644 164.5 l 1
 206.427880644 164.5 162.57766038 -24.775390625 162.57766038 -32 c 1
357.067172013 416.5 m 1
 260.144604385 416.5 l 1
 230.481879818 278.5 l 1
 327.404447446 278.5 l 1
 357.067172013 416.5 l 1
EndSplineSet
EndChar

StartChar: dollar
Encoding: 36 36 5
Width: 596
GlyphClass: 1
Flags: HW
LayerCount: 2
Fore
SplineSet
556.920898438 488.26171875 m 1
 411.493497416 488.26171875 l 1
 411.876680976 498.654296875 411.876680976 498.654296875 411.876680976 501.379882812 c 0
 411.876680976 552.077148438 386.102706839 585.837890625 341.393506455 594.825195312 c 1
 341.393506455 590.625976562 341.393506455 411.196289062 341.393506455 411.958984375 c 1
 503.8046875 369.55859375 566.799804688 309.173828125 566.799804688 198.314453125 c 0
 566.799804688 121.708007812 533.803710938 56.3125 477.318359375 20.390625 c 0
 444.251068993 -0.1787109375 399.514131462 -13.888671875 341.393506455 -20.21875 c 1
 341.393506455 -12.71875 341.393506455 -118.5 341.393506455 -126 c 1
 254.081074319 -126 l 1
 254.081074319 -118.5 254.081074319 -12.7822265625 254.081074319 -20.2822265625 c 1
 191.154731627 -14.0283203125 150.278394152 -0.7509765625 112.17578125 25.56640625 c 0
 54.29296875 67.1494140625 23.099609375 127.482421875 23.099609375 201.2578125 c 2
 23.099609375 204.454101562 23.099609375 220.33984375 23.099609375 217.447265625 c 1
 170.103263732 217.447265625 l 1
 171.555868437 187.344726562 174.91000872 117.826171875 254.081074319 100.357421875 c 1
 254.081074319 105.450195312 254.081074319 295.932617188 254.081074319 294.48828125 c 1
 111.034179688 326.033203125 40.099609375 397.911132812 40.099609375 509.357421875 c 0
 40.099609375 621.58984375 116.610351562 695.458984375 254.081074319 709.326171875 c 1
 254.081074319 702.975585938 254.081074319 755.640625 254.081074319 763 c 1
 341.393506455 763 l 1
 341.393506455 755.640625 341.393506455 703.202148438 341.393506455 709.557617188 c 1
 475.984375 700.060546875 554.775390625 619.849609375 556.798828125 495.740234375 c 2
 556.798828125 493.404296875 556.920898438 486.065429688 556.920898438 488.26171875 c 1
254.081074319 437.321289062 m 1
 254.081074319 598.73828125 l 1
 202.520798424 587.158203125 180.391690971 561.625976562 180.391690971 516 c 0
 180.391690971 478.506835938 201.16167818 454.66796875 254.081074319 437.321289062 c 1
341.393506455 95.72265625 m 1
 394.140315897 110.190429688 418.396965318 139.420898438 418.396965318 183 c 0
 418.396965318 224.557617188 394.139288595 254.700195312 341.393506455 271.783203125 c 1
 341.393506455 95.72265625 l 1
EndSplineSet
EndChar

StartChar: percent
Encoding: 37 37 6
Width: 928
GlyphClass: 1
Flags: HW
LayerCount: 2
Fore
SplineSet
23.099609375 519 m 0
 23.099609375 623.2265625 109.518554688 708.5 216.316983274 708.5 c 0
 325.987041195 708.5 412.416663018 624.09765625 412.416663018 517 c 0
 412.416663018 413.702148438 323.84600102 329.5 216.316983274 329.5 c 0
 109.518554688 329.5 23.099609375 414.7734375 23.099609375 519 c 0
295.678472465 518 m 0
 295.678472465 560.860351562 261.342828169 594.5 216.316983274 594.5 c 0
 172.256156488 594.5 137.099609375 560.711914062 137.099609375 519 c 0
 137.099609375 476.21875 172.299157295 442.5 216.316983274 442.5 c 0
 260.377810061 442.5 295.678472465 476.288085938 295.678472465 518 c 0
621.974595301 709 m 1
 721.221457635 709 l 1
 721.221457635 701.651367188 303.8126251 -12.6513671875 303.8126251 -20 c 1
 303.8126251 -12.5 207.490817654 -12.5 207.490817654 -20 c 1
 207.490817654 -12.6513671875 621.974595301 701.651367188 621.974595301 709 c 1
504.578392401 170 m 0
 504.578392401 274.268554688 592.176036141 359.5 705.030153811 359.5 c 0
 818.083984375 359.5 902.599609375 275.14453125 902.599609375 167 c 0
 902.599609375 64.630859375 816.010742188 -20.5 705.030153811 -20.5 c 0
 592.157035785 -20.5 504.578392401 64.763671875 504.578392401 170 c 0
788.599609375 168 m 0
 788.599609375 211.619140625 752.790050009 245.5 705.030153811 245.5 c 0
 658.36527816 245.5 621.316582954 210.484375 621.316582954 169 c 0
 621.316582954 127.515625 658.36527816 92.5 705.030153811 92.5 c 0
 750.682010452 92.5 788.599609375 127.666015625 788.599609375 168 c 0
EndSplineSet
LCarets2: 2 0 0
Ligature2: "'frac' Diagonal Fractions lookup 5 subtable" zerosuperior fraction zerosuperior
Ligature2: "'frac' Diagonal Fractions lookup 5 subtable" zerosuperior slash zerosuperior
Ligature2: "'frac' Diagonal Fractions lookup 5 subtable" zero fraction zero
Ligature2: "'frac' Diagonal Fractions lookup 5 subtable" zero slash zero
EndChar

StartChar: ampersand
Encoding: 38 38 7
Width: 770
GlyphClass: 1
Flags: HW
LayerCount: 2
Fore
SplineSet
558.211351055 362.744140625 m 2
 558.211351055 362.4921875 558.211351055 379.309570312 558.211351055 379.8984375 c 1
 688.650390625 379.8984375 l 1
 688.650390625 379.309570312 688.650390625 356.534179688 688.650390625 356.665039062 c 1
 686.678710938 283.235351562 662.155273438 205.290039062 622.870491557 157.768554688 c 1
 622.870491557 161.557617188 752.087890625 6.4541015625 752.087890625 -0.453125 c 1
 752.087890625 6.59375 570.017135552 6.59375 570.017135552 -0.453125 c 1
 570.017135552 6.4541015625 522.338530598 57.822265625 522.338530598 51.947265625 c 1
 436.470384087 -5.076171875 386.834584064 -23 311.878456501 -23 c 0
 157.072265625 -23 57.75 64.2099609375 57.75 196.094726562 c 0
 57.75 289.1796875 98.857421875 343.678710938 213.05626399 402.3671875 c 1
 212.008992944 403.575195312 200.566774094 415.377929688 176.485351562 443.327148438 c 0
 147.557617188 476.768554688 132.75 513.75390625 132.75 551.939453125 c 0
 132.75 649.970703125 221.847483327 723 341.195986353 723 c 0
 460.180923731 723 542.233650752 659.831054688 542.233650752 564.68359375 c 0
 542.233650752 491.140625 510.658984172 447.495117188 418.997015107 389.594726562 c 1
 418.997015107 388.814453125 531.941713214 264.732421875 531.941713214 263.018554688 c 1
 551.36924755 298.458984375 558.211351055 324.0390625 558.211351055 362.744140625 c 2
249.680453452 291.095703125 m 1
 222.499881683 274.36328125 206.705984014 247.80078125 206.705984014 217.5 c 0
 206.705984014 161.538085938 260.245065225 108 314.04975134 108 c 0
 343.483420218 108 385.415668134 124.42578125 433.048827383 156.889648438 c 1
 433.048827383 164.389648438 294.938317137 324.313476562 294.938317137 316.813476562 c 1
 294.938317137 324.313476562 249.680453452 298.595703125 249.680453452 291.095703125 c 1
396.419588398 548.5 m 0
 396.419588398 581.5859375 377.770690491 599 342.281633773 599 c 0
 306.755210585 599 287.059041632 582.182617188 287.059041632 558.5 c 0
 287.059041632 536.744140625 290.024121468 530.212890625 340.845549465 472.030273438 c 1
 380.088421493 493.573242188 396.419588398 517.336914062 396.419588398 548.5 c 0
EndSplineSet
EndChar

StartChar: quoteright
Encoding: 8217 8217 8
Width: 296
GlyphClass: 1
Flags: HW
LayerCount: 2
Fore
SplineSet
69.2998046875 589 m 1
 69.2998046875 581.5 69.2998046875 721.5 69.2998046875 729 c 1
 219.299804688 729 l 1
 219.299804688 721.909179688 219.299804688 617.927734375 219.299804688 619.01953125 c 2
 219.446289062 615.959960938 219.518554688 612.935546875 219.518554688 609.946289062 c 0
 219.518554688 529.171875 165.5 476.595703125 77.486328125 469.03125 c 2
 77.486328125 476.53125 69.2998046875 475.787109375 69.2998046875 468.287109375 c 1
 69.2998046875 475.787109375 69.2998046875 536.280273438 69.2998046875 528.780273438 c 1
 101.701171875 533.412109375 148.29296875 541.555664062 149.38671875 589 c 1
 69.2998046875 589 l 1
EndSplineSet
EndChar

StartChar: parenleft
Encoding: 40 40 9
Width: 349
GlyphClass: 1
Flags: HW
LayerCount: 2
Fore
SplineSet
42 264.9921875 m 0
 42 433.5 102.08984375 570.604492188 208.467773438 729 c 1
 324.849609375 729 l 1
 223.419921875 536.897460938 180 424.2421875 180 264.9921875 c 0
 180 104.609375 222.403320312 -5.904296875 324.84765625 -200 c 1
 208.467773438 -200 l 1
 102.205078125 -41.7744140625 42 95.3212890625 42 264.9921875 c 0
EndSplineSet
EndChar

StartChar: parenright
Encoding: 41 41 10
Width: 350
GlyphClass: 1
Flags: HW
LayerCount: 2
Fore
SplineSet
139.481445312 -200 m 1
 23.099609375 -200 l 1
 124.529296875 -7.8974609375 167.94921875 104.7578125 167.94921875 264.0078125 c 0
 167.94921875 424.390625 125.545898438 534.904296875 23.1015625 729 c 1
 139.481445312 729 l 1
 245.744140625 570.774414062 305.94921875 433.678710938 305.94921875 264.0078125 c 0
 305.94921875 95.5 245.859375 -41.6044921875 139.481445312 -200 c 1
EndSplineSet
EndChar

StartChar: asterisk
Encoding: 42 42 11
Width: 425
GlyphClass: 1
Flags: HW
LayerCount: 2
Fore
SplineSet
159.328992541 621.750976562 m 1
 159.328992541 620.224609375 159.328992541 721.890625 159.328992541 729 c 1
 261.600734439 729 l 1
 261.600734439 721.890625 261.600734439 620.251953125 261.600734439 621.780273438 c 1
 261.600734439 620.251953125 369.067382812 651.818359375 369.067382812 655.079101562 c 1
 369.067382812 651.818359375 395.581054688 576.008789062 395.581054688 575.107421875 c 1
 395.581054688 576.008789062 290.243164062 545.333007812 290.243164062 542.747070312 c 1
 290.243164062 545.333007812 355.57421875 462.96875 355.57421875 455.859375 c 1
 355.57421875 463.359375 285.622070312 411.498046875 285.622070312 403.998046875 c 1
 285.622070312 411.498046875 210.413051863 503.423828125 210.413051863 495.923828125 c 1
 210.413051863 503.423828125 134.077148438 411.530273438 134.077148438 404.030273438 c 1
 134.077148438 411.530273438 64.16796875 463.359375 64.16796875 455.859375 c 1
 64.16796875 462.96875 129.55078125 545.3984375 129.55078125 542.815429688 c 1
 129.55078125 545.3984375 24.150390625 576.969726562 24.150390625 576.120117188 c 1
 24.150390625 576.969726562 50.6982421875 651.790039062 50.6982421875 655.05078125 c 1
 50.6982421875 651.790039062 159.328992541 620.224609375 159.328992541 621.750976562 c 1
EndSplineSet
EndChar

StartChar: plus
Encoding: 43 43 12
Width: 622
GlyphClass: 1
Flags: HW
LayerCount: 2
Fore
SplineSet
382.903515252 298.5 m 1
 571.700195312 298.5 l 1
 571.700195312 164.5 l 1
 382.903515252 164.5 l 1
 382.903515252 -17.5 l 1
 241.295648053 -17.5 l 1
 241.295648053 164.5 l 1
 52.5 164.5 l 1
 52.5 298.5 l 1
 241.295648053 298.5 l 1
 241.295648053 480.5 l 1
 382.903515252 480.5 l 1
 382.903515252 298.5 l 1
EndSplineSet
EndChar

StartChar: comma
Encoding: 44 44 13
Width: 296
GlyphClass: 1
Flags: HW
LayerCount: 2
Fore
SplineSet
67.2001953125 -15 m 1
 67.2001953125 -22.5 67.2001953125 138.5 67.2001953125 146 c 1
 232.200195312 146 l 1
 232.200195312 138.5 232.200195312 -5.8623046875 232.200195312 1.6376953125 c 2
 232.356445312 -2.701171875 232.434570312 -6.96484375 232.434570312 -11.154296875 c 0
 232.434570312 -145.547851562 132.858398438 -166.209960938 67.2001953125 -175.206054688 c 1
 67.2001953125 -167.706054688 67.2001953125 -96.7490234375 67.2001953125 -104.249023438 c 1
 100.501953125 -99.0224609375 152.983398438 -88.6455078125 153.298828125 -15 c 1
 67.2001953125 -15 l 1
EndSplineSet
EndChar

StartChar: hyphen
Encoding: 45 45 14
Width: 349
GlyphClass: 1
Flags: HW
LayerCount: 2
Fore
SplineSet
27.2998046875 349.5 m 1
 314.299804688 349.5 l 1
 314.299804688 199.5 l 1
 27.2998046875 199.5 l 1
 27.2998046875 349.5 l 1
EndSplineSet
AlternateSubs2: "'aalt' Access All Alternates lookup 1 subtable" endash emdash minus
EndChar

StartChar: period
Encoding: 46 46 15
Width: 296
GlyphClass: 1
Flags: HW
LayerCount: 2
Fore
SplineSet
67.2001953125 146 m 1
 232.200195312 146 l 1
 232.200195312 138.5 232.200195312 -22.5 232.200195312 -15 c 1
 67.2001953125 -15 l 1
 67.2001953125 -22.5 67.2001953125 138.5 67.2001953125 146 c 1
EndSplineSet
Substitution2: "'aalt' Access All Alternates lookup 0 subtable" ellipsis
EndChar

StartChar: slash
Encoding: 47 47 16
Width: 293
GlyphClass: 1
Flags: HW
LayerCount: 2
Fore
SplineSet
2.099609375 -29 m 1
 2.099609375 -36.5 212.34375 706.5 212.34375 714 c 1
 294.936523438 714 l 1
 294.936523438 706.5 84.69140625 -36.5 84.69140625 -29 c 1
 2.099609375 -29 l 1
EndSplineSet
Substitution2: "'dnom' Denominators lookup 4 subtable" fraction
Substitution2: "'numr' Numerators lookup 3 subtable" fraction
Substitution2: "'aalt' Access All Alternates lookup 0 subtable" fraction
EndChar

StartChar: zero
Encoding: 48 48 17
Width: 598
GlyphClass: 1
Flags: HW
LayerCount: 2
Fore
SplineSet
91.8857421875 631.762695312 m 0
 136.392578125 691.62890625 208.294694719 724 294.650417414 724 c 0
 388.914535571 724 464.291015625 686.524414062 507.733398438 617.573242188 c 0
 543.03125 561.598632812 558.849609375 474.029296875 558.849609375 346.088867188 c 0
 558.849609375 215.102539062 538.958007812 124.255859375 497.365234375 68.19140625 c 0
 451.896484375 8.421875 382.061004894 -23 294.650417414 -23 c 0
 200.385269117 -23 125.041992188 14.423828125 81.5986328125 83.3759765625 c 0
 46.2529296875 138.408203125 30.4501953125 225.97265625 30.4501953125 350.009765625 c 0
 30.4501953125 485.802734375 49.2021484375 575.631835938 91.8857421875 631.762695312 c 0
378.364857582 544.793945312 m 0
 360.66084763 578.538085938 331.41513353 596 294.650417414 596 c 0
 232.909923266 596 213.17447449 550.4375 206.748452491 535.6015625 c 0
 195.56008684 509.770507812 187.370462778 432.040039062 187.370462778 351.08984375 c 0
 187.370462778 259.385742188 196.750930288 187.8828125 210.934947105 161.266601562 c 0
 228.604962391 128.498046875 256.593903994 112 294.650417414 112 c 0
 335.616050124 112 365.811554587 131.979492188 382.555472762 170.46875 c 0
 393.7634111 196.344726562 401.929341909 272.094726562 401.929341909 349.150390625 c 0
 401.929341909 443.770507812 392.511789309 518.247070312 378.364857582 544.793945312 c 0
EndSplineSet
Substitution2: "'sups' Superscript lookup 2 subtable" zerosuperior
Substitution2: "'aalt' Access All Alternates lookup 0 subtable" zerosuperior
EndChar

StartChar: one
Encoding: 49 49 18
Width: 594
GlyphClass: 1
Flags: HW
LayerCount: 2
Fore
SplineSet
250.223920037 -7.5 m 1
 250.223920037 481.5 l 1
 71.400390625 481.5 l 1
 71.400390625 589.5 l 1
 78.900390625 589.5 l 2
 264.00379136 589.5 294.922851562 672.399414062 305.110351562 709 c 1
 411.400390625 709 l 1
 411.400390625 701.578125 411.400390625 -7.5 411.400390625 -7.5 c 1
 250.223920037 -7.5 l 1
EndSplineSet
Substitution2: "'sups' Superscript lookup 2 subtable" onesuperior
Substitution2: "'aalt' Access All Alternates lookup 0 subtable" onesuperior
EndChar

StartChar: two
Encoding: 50 50 19
Width: 600
GlyphClass: 1
Flags: HW
LayerCount: 2
Fore
SplineSet
240.889752782 125 m 1
 556.098632812 125 l 1
 556.098632812 117.5 556.098632812 -22.5 556.098632812 -15 c 1
 31.5 -15 l 1
 37.4248046875 115.348632812 64.3203125 183.4296875 202.996393813 274.720703125 c 0
 378.556215678 387.060546875 401.117698446 413.122070312 401.117698446 488.5 c 0
 401.117698446 556.217773438 362.444403297 595 298.25266787 595 c 0
 232.312515407 595 194.280066102 553.78515625 194.280066102 477.5 c 2
 194.280066102 470 194.280066102 439.5 194.280066102 447 c 1
 40.8486328125 447 l 1
 40.8486328125 439.5 40.8486328125 472 40.8486328125 479.5 c 2
 40.8486328125 633.209960938 130.680664062 724 294.928923993 724 c 0
 459.827148438 724 559.098632812 632.890625 559.098632812 491.5 c 0
 559.098632812 391.62109375 520.435546875 335.741210938 392.454946272 245.313476562 c 1
 289.1623417 178.071289062 260.217127668 155.060546875 240.889752782 125 c 1
EndSplineSet
Substitution2: "'sups' Superscript lookup 2 subtable" twosuperior
Substitution2: "'aalt' Access All Alternates lookup 0 subtable" twosuperior
EndChar

StartChar: three
Encoding: 51 51 20
Width: 598
GlyphClass: 1
Flags: HW
LayerCount: 2
Fore
SplineSet
436.256835938 390.713867188 m 2
 516.513671875 345.8984375 556.052734375 296.048828125 556.052734375 211.78515625 c 0
 556.052734375 72.369140625 457.012695312 -23 289.452837801 -23 c 0
 127.4921875 -23 31.53125 69.421875 30.5029296875 215.446289062 c 2
 30.5029296875 222.946289062 30.4501953125 230.5 30.4501953125 223 c 1
 182.782072048 223 l 1
 184.783682065 190.046875 189.879438977 112 292.777860414 112 c 0
 356.426379145 112 401.223483246 151.430664062 401.223483246 208.435546875 c 0
 401.223483246 255.701171875 370.458263166 292.3671875 321.766162024 304.146484375 c 0
 295.616394908 310.549804688 293.391124039 310.686523438 240.328875382 310.686523438 c 0
 237.967552752 310.686523438 235.505221995 310.685546875 232.934668245 310.685546875 c 2
 225.018929352 310.685546875 l 1
 225.018929352 311.834960938 225.018929352 409.604492188 225.018929352 411.5625 c 1
 225.018929352 409.604492188 371.847640253 576.731445312 371.847640253 584 c 1
 64.5029296875 584 l 1
 64.5029296875 576.5 64.5029296875 716.5 64.5029296875 724 c 1
 535.052734375 724 l 1
 535.052734375 716.647460938 535.052734375 586.91015625 535.052734375 591.657226562 c 1
 535.052734375 586.91015625 395.400055545 410.887695312 395.400055545 412.099609375 c 1
 395.400055545 410.887695312 436.256835938 389.922851562 436.256835938 390.713867188 c 2
EndSplineSet
Substitution2: "'sups' Superscript lookup 2 subtable" threesuperior
Substitution2: "'aalt' Access All Alternates lookup 0 subtable" threesuperior
EndChar

StartChar: four
Encoding: 52 52 21
Width: 595
GlyphClass: 1
Flags: HW
LayerCount: 2
Fore
SplineSet
487.400390625 280.5 m 1
 561.400390625 280.5 l 1
 561.400390625 149.5 l 1
 487.400390625 149.5 l 1
 487.400390625 -7.5 l 1
 326.586027665 -7.5 l 1
 326.586027665 149.5 l 1
 25.2001953125 149.5 l 1
 25.2001953125 149.5 25.2001953125 273.760742188 25.2001953125 275.426757812 c 1
 25.2001953125 273.760742188 302.411605145 701.599609375 302.411605145 709 c 1
 487.400390625 709 l 1
 487.400390625 701.62890625 487.400390625 280.5 487.400390625 280.5 c 1
145.386381878 280.5 m 1
 326.586027665 280.5 l 1
 326.586027665 550.288085938 l 1
 145.386381878 280.5 l 1
EndSplineSet
Substitution2: "'sups' Superscript lookup 2 subtable" foursuperior
Substitution2: "'aalt' Access All Alternates lookup 0 subtable" foursuperior
EndChar

StartChar: five
Encoding: 53 53 22
Width: 599
GlyphClass: 1
Flags: HW
LayerCount: 2
Fore
SplineSet
112.572265625 709 m 1
 531.971679688 709 l 1
 531.971679688 701.5 531.971679688 561.5 531.971679688 569 c 1
 217.3468223 569 l 1
 217.3468223 561.952148438 195.933894151 452.017578125 195.933894151 452.017578125 c 1
 236.261112215 476.47265625 273.828194679 486.5 321.31879339 486.5 c 0
 466.907226562 486.5 559.971679688 384.84765625 559.971679688 237.663085938 c 0
 559.971679688 82.9677734375 452.27734375 -23 282.576002289 -23 c 0
 128.856445312 -23 30.5458984375 63.8203125 28.47265625 192.376953125 c 2
 28.47265625 199.876953125 28.349609375 207.5 28.349609375 200 c 1
 183.791768347 200 l 1
 185.346339312 173.32421875 188.919793498 112 284.790493776 112 c 0
 358.671736277 112 403.073783401 157.20703125 403.073783401 234.793945312 c 0
 403.073783401 315.407226562 358.594522487 360.5 284.790493776 360.5 c 0
 239.448497453 360.5 207.511844531 342.82421875 192.380000792 310.928710938 c 2
 190.279785713 306.5 l 1
 47.1796875 306.5 l 1
 47.1796875 306.5 112.572265625 701.63671875 112.572265625 709 c 1
EndSplineSet
Substitution2: "'sups' Superscript lookup 2 subtable" fivesuperior
Substitution2: "'aalt' Access All Alternates lookup 0 subtable" fivesuperior
EndChar

StartChar: six
Encoding: 54 54 23
Width: 598
GlyphClass: 1
Flags: HW
LayerCount: 2
Fore
SplineSet
514.071289062 639.76171875 m 0
 533.922851562 612.219726562 543.907226562 581.729492188 550.62890625 533 c 1
 404.542876166 533 l 1
 387.287068767 571.944335938 370.31870362 596 313.429864111 596 c 0
 262.387744227 596 227.930733155 573.842773438 207.819047906 527.041992188 c 0
 197.365010192 502.329101562 194.074363059 483.62890625 191.860336544 422.45703125 c 1
 236.290254394 459.787109375 279.437499832 474.5 338.908168306 474.5 c 0
 474.415039062 474.5 561.400390625 377.758789062 561.400390625 240.52734375 c 0
 561.400390625 84.46484375 462.252929688 -23 304.568606756 -23 c 0
 209.202685696 -23 128.302734375 16.2216796875 85.75390625 83.3671875 c 0
 48.5791015625 141.067382812 33.599609375 217.170898438 33.599609375 337.265625 c 0
 33.599609375 464.303710938 50.732421875 543.446289062 93.6796875 612.614257812 c 0
 138.145507812 684.588867188 218.077336417 724 317.861007918 724 c 0
 405.051824094 724 475.233398438 693.297851562 514.071289062 639.76171875 c 0
411.860805591 230.734375 m 0
 411.860805591 304.362304688 368.393149615 348.5 300.137462949 348.5 c 0
 234.358518835 348.5 188.414120308 300.504882812 188.414120308 228.795898438 c 0
 188.414120308 158.206054688 234.163799891 112 300.137462949 112 c 0
 363.690017441 112 411.860805591 161.106445312 411.860805591 230.734375 c 0
EndSplineSet
Substitution2: "'sups' Superscript lookup 2 subtable" sixsuperior
Substitution2: "'aalt' Access All Alternates lookup 0 subtable" sixsuperior
EndChar

StartChar: seven
Encoding: 55 55 24
Width: 600
GlyphClass: 1
Flags: HW
LayerCount: 2
Fore
SplineSet
30.4501953125 709 m 1
 572.400390625 709 l 1
 572.400390625 701.5 572.400390625 581.271484375 572.400390625 588.771484375 c 1
 383.333613544 367.62109375 317.12462324 199.21875 297.098535966 -15 c 1
 133.446289062 -15 l 1
 150.603309383 121.29296875 172.723668304 221.76953125 236.317388077 342.776367188 c 0
 265.422420397 401.064453125 346.967480409 514.557617188 397.703728714 569 c 1
 30.4501953125 569 l 1
 30.4501953125 561.5 30.4501953125 701.5 30.4501953125 709 c 1
EndSplineSet
Substitution2: "'sups' Superscript lookup 2 subtable" sevensuperior
Substitution2: "'aalt' Access All Alternates lookup 0 subtable" sevensuperior
EndChar

StartChar: eight
Encoding: 56 56 25
Width: 598
GlyphClass: 1
Flags: HW
LayerCount: 2
Fore
SplineSet
47.099609375 527.447265625 m 0
 47.099609375 642.256835938 148.036442018 724 295.727450539 724 c 0
 442.318303471 724 543.25 642.271484375 543.25 528.426757812 c 0
 543.25 481.58203125 525.631835938 437.416992188 494.791992188 409.26953125 c 0
 485.224609375 400.743164062 475.571289062 394.3046875 459.083984375 385.192382812 c 1
 534.439453125 341.379882812 567.25 287.71875 567.25 206.883789062 c 0
 567.25 70.9765625 459.9375 -23 295.727450539 -23 c 0
 130.434570312 -23 23.099609375 70.962890625 23.099609375 206.883789062 c 0
 23.099609375 287.751953125 55.9375 341.424804688 131.360351562 385.247070312 c 1
 73.673828125 418.720703125 47.099609375 462.4765625 47.099609375 527.447265625 c 0
404.91198622 514.25 m 0
 404.91198622 562.068359375 362.291486178 596 296.831715019 596 c 0
 230.172147662 596 187.647179338 561.98046875 187.647179338 515.206054688 c 0
 187.647179338 466.40234375 230.253298261 432.5 296.831715019 432.5 c 0
 361.134833337 432.5 404.91198622 467.442382812 404.91198622 514.25 c 0
410.434335844 213.870117188 m 0
 410.434335844 281.774414062 366.710598545 322.5 294.623186059 322.5 c 0
 223.630793048 322.5 179.915273531 281.715820312 179.915273531 215.801757812 c 0
 179.915273531 151.96875 223.47568241 112 294.623186059 112 c 0
 365.901147 112 410.434335844 152.15234375 410.434335844 213.870117188 c 0
EndSplineSet
Substitution2: "'sups' Superscript lookup 2 subtable" eightsuperior
Substitution2: "'aalt' Access All Alternates lookup 0 subtable" eightsuperior
EndChar

StartChar: nine
Encoding: 57 57 26
Width: 599
GlyphClass: 1
Flags: HW
LayerCount: 2
Fore
SplineSet
39.19140625 180 m 1
 192.3359375 180 l 1
 192.3359375 187.5 192.883884315 180.567382812 192.883884315 173.067382812 c 2
 195.829613434 135.828125 227.53843045 111 280.235052451 111 c 0
 357.153601619 111 397.671796661 161.362304688 401.445625855 278.58203125 c 1
 386.05573617 262.997070312 377.607879444 255.360351562 365.498460824 247.78125 c 0
 339.355629878 230.641601562 300.37415786 220.5 259.193688753 220.5 c 0
 118.184570312 220.5 29.400390625 323.401367188 29.400390625 470.279296875 c 0
 29.400390625 619.770507812 129.830078125 724 289.093869288 724 c 0
 385.785882663 724 462.259765625 683.404296875 508.5546875 606.75390625 c 0
 542.693359375 551.989257812 558.650390625 472.256835938 558.650390625 369.606445312 c 0
 558.650390625 256.942382812 536.743164062 151.106445312 498.633789062 87.4931640625 c 0
 455.203125 14.50390625 378.807800571 -24 275.805129045 -24 c 0
 138.77734375 -24 42.533203125 58.5751953125 39.4033203125 172.290039062 c 2
 39.4033203125 179.790039062 39.19140625 187.5 39.19140625 180 c 1
398.571995001 470.33984375 m 0
 398.571995001 549.12109375 354.927825177 595 284.664975857 595 c 0
 220.364653067 595 179.616773551 549.486328125 179.616773551 472.280273438 c 0
 179.616773551 395.30859375 221.181423413 351.5 286.879422573 351.5 c 0
 353.877250456 351.5 398.571995001 397.607421875 398.571995001 470.33984375 c 0
EndSplineSet
Substitution2: "'sups' Superscript lookup 2 subtable" ninesuperior
Substitution2: "'aalt' Access All Alternates lookup 0 subtable" ninesuperior
EndChar

StartChar: colon
Encoding: 58 58 27
Width: 351
GlyphClass: 1
Flags: HW
LayerCount: 2
Fore
SplineSet
118.650390625 153.5 m 1
 283.650390625 153.5 l 1
 283.650390625 -7.5 l 1
 118.650390625 -7.5 l 1
 118.650390625 153.5 l 1
118.650390625 527.5 m 1
 283.650390625 527.5 l 1
 283.650390625 366.5 l 1
 118.650390625 366.5 l 1
 118.650390625 527.5 l 1
EndSplineSet
EndChar

StartChar: semicolon
Encoding: 59 59 28
Width: 351
GlyphClass: 1
Flags: HW
LayerCount: 2
Fore
SplineSet
118.650390625 -7.5 m 1
 118.650390625 153.5 l 1
 283.650390625 153.5 l 1
 283.650390625 153.5 283.650390625 15.5068359375 283.650390625 12.3583984375 c 2
 283.806640625 8.1162109375 283.884765625 3.947265625 283.884765625 -0.1484375 c 0
 283.884765625 -143.55859375 184.30859375 -165.606445312 118.650390625 -175.206054688 c 1
 118.650390625 -167.706054688 118.650390625 -96.7490234375 118.650390625 -104.249023438 c 1
 151.952148438 -98.5830078125 204.43359375 -87.3349609375 204.749023438 -7.5 c 1
 118.650390625 -7.5 l 1
118.650390625 527.5 m 1
 283.650390625 527.5 l 1
 283.650390625 366.5 l 1
 118.650390625 366.5 l 1
 118.650390625 527.5 l 1
EndSplineSet
EndChar

StartChar: less
Encoding: 60 60 29
Width: 629
GlyphClass: 1
Flags: HW
LayerCount: 2
Fore
SplineSet
42 298.267578125 m 1
 573.450195312 484.682617188 l 1
 573.450195312 359.612304688 l 1
 181.121834352 232.053710938 l 1
 573.450195312 106.413085938 l 1
 573.450195312 -20.7021484375 l 1
 42 166.7421875 l 1
 42 298.267578125 l 1
EndSplineSet
EndChar

StartChar: equal
Encoding: 61 61 30
Width: 628
GlyphClass: 1
Flags: HW
LayerCount: 2
Fore
SplineSet
52.5 418.5 m 1
 578.700195312 418.5 l 1
 578.700195312 284.5 l 1
 52.5 284.5 l 1
 52.5 418.5 l 1
52.5 178.5 m 1
 578.700195312 178.5 l 1
 578.700195312 44.5 l 1
 52.5 44.5 l 1
 52.5 178.5 l 1
EndSplineSet
EndChar

StartChar: greater
Encoding: 62 62 31
Width: 629
GlyphClass: 1
Flags: HW
LayerCount: 2
Fore
SplineSet
573.450195312 165.732421875 m 1
 42 -20.6826171875 l 1
 42 104.387695312 l 1
 434.32836096 231.946289062 l 1
 42 357.586914062 l 1
 42 484.702148438 l 1
 573.450195312 297.2578125 l 1
 573.450195312 165.732421875 l 1
EndSplineSet
EndChar

StartChar: question
Encoding: 63 63 32
Width: 650
GlyphClass: 1
Flags: HW
LayerCount: 2
Fore
SplineSet
401.483376208 193.5 m 2
 401.483376208 186 401.483376208 178.5 401.483376208 186 c 1
 255.148165406 186 l 1
 254.705212341 197.328125 254.568205928 200.826171875 254.568205928 207.884765625 c 0
 254.568205928 286.330078125 282.336212505 333.657226562 363.219442229 397.283203125 c 0
 425.276136555 446.099609375 436.609554286 461.0078125 436.609554286 503.5 c 0
 436.609554286 565.854492188 389.936722931 611 332.390939008 611 c 0
 264.987904197 611 220.840935437 561.161132812 220.840935437 473.5 c 2
 220.840935437 466 220.840935437 458.5 220.840935437 466 c 1
 67.2001953125 466 l 1
 68.0556640625 536.155273438 73.48828125 595.591796875 115.727539062 651.911132812 c 0
 160.411132812 713.221679688 234.381907631 744 328.17155353 744 c 0
 489.551757812 744 595.69140625 646.974609375 595.69140625 506.5 c 0
 595.69140625 419.865234375 566.919921875 371.762695312 472.256974809 306.31640625 c 0
 408.409926001 264.390625 401.483376208 256.07421875 401.483376208 193.5 c 2
243.783843973 153.5 m 1
 419.20458919 153.5 l 1
 419.20458919 -7.5 l 1
 243.783843973 -7.5 l 1
 243.783843973 153.5 l 1
EndSplineSet
EndChar

StartChar: at
Encoding: 64 64 33
Width: 1035
GlyphClass: 1
Flags: HW
LayerCount: 2
Fore
SplineSet
676.454696584 515.5 m 1
 788.856674014 515.5 l 1
 702.398138344 225.912109375 l 2
 693.695168735 196.477539062 694.596266493 188.2734375 694.124785034 186 c 2
 694.124785034 184.552734375 l 1
 692.735260393 181.147460938 690.404766413 175.44140625 690.404766413 168.823242188 c 0
 690.404766413 154.44140625 702.198780433 144.5 724.235803924 144.5 c 0
 755.963615474 144.5 797.583566572 170.545898438 851.294574977 214.205078125 c 1
 885.296063503 258.749023438 903.549804688 313.932617188 903.549804688 370 c 0
 903.549804688 446.703125 870.986152645 510.6015625 801.574711952 567.778320312 c 0
 727.884053697 625.293945312 645.076758169 653 542.344636216 653 c 0
 419.915952649 653 322.172762421 611.705078125 248.581783122 532.057617188 c 0
 180.208997146 459.999023438 140.349609375 362.764648438 140.349609375 266.811523438 c 0
 140.349609375 171.1328125 181.847719175 92.2119140625 263.648257253 33.7802734375 c 0
 331.452873182 -16.0947265625 417.621343092 -44 508.865465418 -44 c 0
 581.300168832 -44 659.111555109 -29.1083984375 717.128694394 -4.609375 c 2
 717.128694394 2.890625 724.44612652 5.9814453125 724.44612652 -1.5185546875 c 1
 724.44612652 5.9814453125 758.488483418 -80.970703125 758.488483418 -88.470703125 c 1
 706.709253171 -110.936523438 636.945945765 -137 506.824040408 -137 c 0
 375.944574989 -137 274.950854022 -106.504882812 185.757127812 -40.458984375 c 0
 86.5009765625 33.5029296875 28.349609375 146.451171875 28.349609375 261.729492188 c 0
 28.349609375 382.607421875 83.2060546875 509.939453125 176.458078049 601.580078125 c 0
 276.246680444 696.119140625 400.09080518 745 546.631828094 745 c 0
 682.064628202 745 800.560976974 702.793945312 893.141601562 622.109375 c 1
 971.600585938 547.724609375 1007.54980469 462.4609375 1007.54980469 355 c 0
 1007.54980469 270.31640625 979.515625 198.787109375 900.749023438 134.563476562 c 1
 850.942708264 79.578125 787.926669359 48.5 724.235803924 48.5 c 0
 689.151801941 48.5 655.931796427 57.916015625 629.009507324 75.8515625 c 0
 611.438101041 87.90234375 601.567890863 98.4658203125 593.870681916 116.543945312 c 1
 553.337231434 73.8095703125 498.262614917 48.5 443.539865112 48.5 c 0
 346.177448495 48.5 268.487670544 128.143554688 268.487670544 227 c 0
 268.487670544 297.004882812 297.697591677 373.411132812 345.720918879 431.7109375 c 0
 394.292480336 490.547851562 470.306655045 525.5 545.560279322 525.5 c 0
 600.706664687 525.5 637.89787979 506.776367188 663.488458047 466.27734375 c 1
 676.454696584 515.5 l 1
624.716334709 345 m 0
 624.716334709 405.104492188 593.306499028 439.5 542.344636216 439.5 c 0
 463.573341598 439.5 382.807471079 344.044921875 382.807471079 244 c 0
 382.807471079 185.857421875 419.248103646 144.5 465.995540217 144.5 c 0
 492.318758797 144.5 526.680088353 162.064453125 559.506361992 189.389648438 c 1
 597.661472595 230.974609375 624.716334709 296.54296875 624.716334709 345 c 0
EndSplineSet
EndChar

StartChar: A
Encoding: 65 65 34
Width: 771
GlyphClass: 1
Flags: HW
LayerCount: 2
Fore
SplineSet
196.3203125 -0 m 1
 27.2998046875 -0 l 1
 27.2998046875 7.3486328125 301.036734122 721.651367188 301.036734122 729 c 1
 493.247490357 729 l 1
 493.247490357 721.651367188 759.094726562 7.3486328125 759.094726562 0 c 1
 759.094726562 7.5 589.139648438 7.5 589.139648438 0 c 1
 589.139648438 7.1171875 536.739301286 139.5 536.739301286 139.5 c 1
 249.813158509 139.5 l 1
 249.813158509 139.5 196.3203125 7.1171875 196.3203125 -0 c 1
393.840247663 534.29296875 m 1
 301.122022136 279.5 l 1
 486.558473189 279.5 l 1
 393.840247663 534.29296875 l 1
EndSplineSet
EndChar

StartChar: B
Encoding: 66 66 35
Width: 769
GlyphClass: 1
Flags: HW
LayerCount: 2
Fore
SplineSet
439.512063881 0 m 2
 86.099609375 0 l 1
 86.099609375 7.3486328125 86.099609375 721.651367188 86.099609375 729 c 1
 436.235151544 729 l 2
 522.406975558 729 578.71785972 712.899414062 623.995117188 675.243164062 c 0
 666.518554688 638.658203125 692.549804688 585.875 692.549804688 533.522460938 c 0
 692.549804688 472.86328125 664.922851562 430.259765625 599.18359375 386.842773438 c 1
 676.547851562 340.201171875 714.599609375 283.749023438 714.599609375 213.115234375 c 0
 714.599609375 153.077148438 685.772460938 91.4326171875 639.921875 53.6533203125 c 0
 594.070387017 15.890625 532.112771398 0 439.512063881 0 c 2
423.12953376 446.5 m 2
 522.965655591 446.5 531.098005302 492.858398438 531.098005302 518.224609375 c 0
 531.098005302 541.1796875 524.606143323 589 423.12953376 589 c 2
 252.906838291 589 l 1
 252.906838291 581.875 252.906838291 446.5 252.906838291 446.5 c 1
 423.12953376 446.5 l 2
440.604029399 140 m 2
 512.048031972 140 554.033344315 164.703125 554.033344315 222.771484375 c 0
 554.033344315 254.970703125 542.905453847 306.5 440.604029399 306.5 c 2
 252.906838291 306.5 l 1
 252.906838291 306.5 252.906838291 147.176757812 252.906838291 140 c 1
 440.604029399 140 l 2
EndSplineSet
EndChar

StartChar: C
Encoding: 67 67 36
Width: 771
GlyphClass: 1
Flags: HW
LayerCount: 2
Fore
SplineSet
732.069335938 467 m 1
 573.634239518 467 l 1
 558.251801901 530.01171875 529.040830711 598 410.311650148 598 c 0
 287.596675404 598 212.756696158 510.049804688 212.756696158 356.060546875 c 0
 212.756696158 203.9140625 284.39490563 118 404.880058382 118 c 0
 502.531510633 118 561.624319259 167.9453125 572.067201046 257.349609375 c 2
 572.067201046 264.849609375 572.844153067 271.5 572.844153067 264 c 1
 734.865234375 264 l 1
 734.865234375 271.5 734.439453125 263.590820312 734.439453125 256.090820312 c 2
 725.209960938 84.841796875 600.546685547 -23 400.534582902 -23 c 0
 176.530929278 -23 46.2001953125 124.576171875 46.2001953125 358.01953125 c 0
 46.2001953125 592.47265625 177.602900793 741 404.880058382 741 c 0
 525.114646634 741 623.232421875 699.268554688 680.936523438 623.017578125 c 0
 721.338867188 569.581054688 727.838867188 520.306640625 732.069335938 467 c 1
EndSplineSet
EndChar

StartChar: D
Encoding: 68 68 37
Width: 769
GlyphClass: 1
Flags: HW
LayerCount: 2
Fore
SplineSet
386.920382251 0 m 2
 80.849609375 0 l 1
 80.849609375 7.3486328125 80.849609375 721.651367188 80.849609375 729 c 1
 386.920382251 729 l 2
 509.976143667 729 587.592812492 704.049804688 640.333984375 644.020507812 c 0
 698.724609375 574.762695312 730.049804688 477.030273438 730.049804688 364.990234375 c 0
 730.049804688 251.98828125 698.712890625 154.200195312 640.2734375 85.8876953125 c 0
 587.545167539 25.876953125 508.955325217 0 386.920382251 0 c 2
386.920382251 140 m 2
 473.537892213 140 563.337476769 177.44140625 563.337476769 364.016601562 c 0
 563.337476769 550.538085938 474.681371073 589 386.920382251 589 c 2
 247.561937294 589 l 1
 247.561937294 581.7421875 247.561937294 147.2578125 247.561937294 140 c 1
 386.920382251 140 l 2
EndSplineSet
EndChar

StartChar: E
Encoding: 69 69 38
Width: 712
GlyphClass: 1
Flags: HW
LayerCount: 2
Fore
SplineSet
249.972667223 589 m 1
 249.972667223 581.875 249.972667223 446.5 249.972667223 446.5 c 1
 625.700195312 446.5 l 1
 625.700195312 306.5 l 1
 249.972667223 306.5 l 1
 249.972667223 306.5 249.972667223 147.176757812 249.972667223 140 c 1
 671.700195312 140 l 1
 671.700195312 147.5 671.700195312 7.5 671.700195312 0 c 1
 82.9501953125 0 l 1
 82.9501953125 7.3486328125 82.9501953125 721.651367188 82.9501953125 729 c 1
 653.700195312 729 l 1
 653.700195312 721.5 653.700195312 581.5 653.700195312 589 c 1
 249.972667223 589 l 1
EndSplineSet
EndChar

StartChar: F
Encoding: 70 70 39
Width: 654
GlyphClass: 1
Flags: HW
LayerCount: 2
Fore
SplineSet
244.956968571 589 m 1
 244.956968571 581.875 244.956968571 446.5 244.956968571 446.5 c 1
 588.799804688 446.5 l 1
 588.799804688 306.5 l 1
 244.956968571 306.5 l 1
 244.956968571 306.5 244.956968571 7.3212890625 244.956968571 0 c 1
 77.7001953125 0 l 1
 77.7001953125 7.3486328125 77.7001953125 721.651367188 77.7001953125 729 c 1
 631.799804688 729 l 1
 631.799804688 721.5 631.799804688 581.5 631.799804688 589 c 1
 244.956968571 589 l 1
EndSplineSet
EndChar

StartChar: G
Encoding: 71 71 40
Width: 831
GlyphClass: 1
Flags: HW
LayerCount: 2
Fore
SplineSet
441.108556934 399.5 m 1
 763.049804688 399.5 l 1
 763.049804688 399.5 763.049804688 5.3623046875 763.049804688 -2 c 1
 763.049804688 5.5 659.32421875 5.5 659.32421875 -2 c 1
 659.32421875 5.5 643.317598681 90.7548828125 643.317598681 83.2548828125 c 1
 583.97646776 9.3564453125 511.91045158 -23 409.831125665 -23 c 0
 191.919355749 -23 44.099609375 138.93359375 44.099609375 359 c 0
 44.099609375 585.081054688 191.202616985 741 422.837262843 741 c 0
 616.272051141 741 744.467773438 644.830078125 762.997070312 489.395507812 c 2
 762.997070312 481.895507812 763.998046875 473.5 763.998046875 481 c 1
 607.069367348 481 l 1
 593.547097614 517.465820312 585.031918514 534.983398438 558.777707021 555.74609375 c 0
 524.658522481 583.409179688 478.866879222 598 423.920939596 598 c 0
 290.084340426 598 210.5515394 510.498046875 210.5515394 360.939453125 c 0
 210.5515394 218.374023438 301.129778735 120 428.256654679 120 c 0
 487.841738879 120 546.548792891 143.994140625 583.965378975 184.03515625 c 0
 605.184273833 205.991210938 615.351681955 226.291015625 620.080544883 259.5 c 1
 441.108556934 259.5 l 1
 441.108556934 399.5 l 1
EndSplineSet
EndChar

StartChar: H
Encoding: 72 72 41
Width: 769
GlyphClass: 1
Flags: HW
LayerCount: 2
Fore
SplineSet
236.400390625 463.5 m 1
 538.799804688 463.5 l 1
 538.799804688 463.5 538.799804688 721.706054688 538.799804688 729 c 1
 704.849609375 729 l 1
 704.849609375 721.651367188 704.849609375 7.3486328125 704.849609375 0 c 1
 539.849609375 0 l 1
 539.849609375 7.330078125 539.849609375 323.5 539.849609375 323.5 c 1
 236.400390625 323.5 l 1
 236.400390625 323.5 236.400390625 7.330078125 236.400390625 0 c 1
 71.400390625 0 l 1
 71.400390625 7.3486328125 71.400390625 721.651367188 71.400390625 729 c 1
 236.400390625 729 l 1
 236.400390625 721.706054688 236.400390625 463.5 236.400390625 463.5 c 1
EndSplineSet
EndChar

StartChar: I
Encoding: 73 73 42
Width: 296
GlyphClass: 1
Flags: HW
LayerCount: 2
Fore
SplineSet
66.150390625 729 m 1
 231.150390625 729 l 1
 231.150390625 721.651367188 231.150390625 7.3486328125 231.150390625 0 c 1
 66.150390625 0 l 1
 66.150390625 7.3486328125 66.150390625 721.651367188 66.150390625 729 c 1
EndSplineSet
EndChar

StartChar: J
Encoding: 74 74 43
Width: 597
GlyphClass: 1
Flags: HW
LayerCount: 2
Fore
SplineSet
192.95417767 285 m 1
 192.95417767 292.5 192.95417767 215 192.95417767 207.5 c 2
 192.95417767 140.819335938 220.053111799 120 275.25 120 c 0
 328.38666865 120 357.54582233 156.672851562 357.54582233 195.63671875 c 2
 357.54582233 201.138671875 357.54582233 587.40234375 357.54582233 591.4140625 c 1
 357.54582233 587.40234375 51.2001953125 588.354492188 51.2001953125 592.390625 c 1
 51.2001953125 588.354492188 51.2001953125 721.680664062 51.2001953125 729 c 1
 525.299804688 729 l 1
 525.299804688 721.646484375 525.299804688 196.313476562 525.299804688 193.1875 c 2
 525.299804688 55.6201171875 435.819335938 -23 271.906806704 -23 c 0
 193.546957138 -23 132.200195312 -2.4443359375 88.5947265625 37.0078125 c 0
 43.921875 78.5634765625 25.2001953125 128.260742188 25.2001953125 205.5 c 2
 25.2001953125 213 25.2001953125 292.5 25.2001953125 285 c 1
 192.95417767 285 l 1
EndSplineSet
EndChar

StartChar: K
Encoding: 75 75 44
Width: 767
GlyphClass: 1
Flags: HW
LayerCount: 2
Fore
SplineSet
242.700195312 248.374023438 m 1
 242.700195312 255.874023438 242.700195312 7.5 242.700195312 0 c 1
 77.7001953125 0 l 1
 77.7001953125 7.3486328125 77.7001953125 721.651367188 77.7001953125 729 c 1
 242.700195312 729 l 1
 242.700195312 721.5 242.700195312 412.998046875 242.700195312 420.498046875 c 1
 242.700195312 412.998046875 546.197265625 721.5 546.197265625 729 c 1
 546.197265625 721.5 745.362304688 721.5 745.362304688 729 c 1
 745.362304688 721.651367188 434.132209583 412.560546875 434.132209583 413.549804688 c 1
 434.132209583 412.560546875 774.419921875 7.3486328125 774.419921875 0 c 1
 774.419921875 7.5 576.23828125 7.5 576.23828125 -0 c 1
 576.23828125 7.5 316.547658327 325.729492188 316.547658327 318.229492188 c 1
 316.547658327 325.729492188 242.700195312 255.874023438 242.700195312 248.374023438 c 1
EndSplineSet
EndChar

StartChar: L
Encoding: 76 76 45
Width: 654
GlyphClass: 1
Flags: HW
LayerCount: 2
Fore
SplineSet
249 729 m 1
 249 721.686523438 249 147.313476562 249 140 c 1
 624.450195312 140 l 1
 624.450195312 147.5 624.450195312 7.5 624.450195312 0 c 1
 84 0 l 1
 84 7.3486328125 84 721.651367188 84 729 c 1
 249 729 l 1
EndSplineSet
EndChar

StartChar: M
Encoding: 77 77 46
Width: 901
GlyphClass: 1
Flags: HW
LayerCount: 2
Fore
SplineSet
535.197265625 0 m 1
 373.447265625 0 l 1
 373.447265625 7.5 234.299804688 520.158203125 234.299804688 512.658203125 c 1
 234.299804688 520.158203125 234.299804688 7.5 234.299804688 0 c 1
 69.2998046875 0 l 1
 69.2998046875 7.3486328125 69.2998046875 721.651367188 69.2998046875 729 c 1
 310.458007812 729 l 1
 310.458007812 721.5 454.4375 166.745117188 454.4375 174.245117188 c 1
 454.4375 166.745117188 586.575195312 721.5 586.575195312 729 c 1
 829.799804688 729 l 1
 829.799804688 721.651367188 844.799804688 7.3486328125 844.799804688 0 c 1
 679.799804688 0 l 1
 679.799804688 7.5 664.799804688 522.463867188 664.799804688 514.963867188 c 1
 664.799804688 522.463867188 535.197265625 7.5 535.197265625 0 c 1
EndSplineSet
EndChar

StartChar: N
Encoding: 78 78 47
Width: 769
GlyphClass: 1
Flags: HW
LayerCount: 2
Fore
SplineSet
544.049804688 252.129882812 m 1
 544.049804688 244.629882812 544.049804688 721.5 544.049804688 729 c 1
 709.049804688 729 l 1
 709.049804688 721.651367188 709.049804688 7.3486328125 709.049804688 0 c 1
 709.049804688 7.5 547.340820312 7.5 547.340820312 0 c 1
 547.340820312 7.5 236.400390625 492.318359375 236.400390625 484.818359375 c 1
 236.400390625 492.318359375 236.400390625 7.5 236.400390625 0 c 1
 71.400390625 0 l 1
 71.400390625 7.3486328125 71.400390625 721.651367188 71.400390625 729 c 1
 237.303710938 729 l 1
 237.303710938 721.5 544.049804688 244.629882812 544.049804688 252.129882812 c 1
EndSplineSet
EndChar

StartChar: O
Encoding: 79 79 48
Width: 829
GlyphClass: 1
Flags: HW
LayerCount: 2
Fore
SplineSet
146.0234375 639.61328125 m 0
 211.822645138 707.041015625 304.99010624 741 416.968322103 741 c 0
 533.155768788 741 622.150216159 708.958984375 690.05859375 639.630859375 c 0
 756.65234375 570.299804688 794.099609375 467.45703125 794.099609375 354.096679688 c 0
 794.099609375 251.311523438 754.658203125 145.747070312 690.071289062 78.3818359375 c 0
 623.217614319 10.00390625 532.133641992 -23 418.049804688 -23 c 0
 303.965967383 -23 212.89406742 9.9912109375 146.041015625 78.369140625 c 0
 79.4609375 147.685546875 42 250.478515625 42 359 c 0
 42 467.536132812 79.5107421875 569.36328125 146.0234375 639.61328125 c 0
627.741732629 355.122070312 m 0
 627.741732629 505.799804688 545.908209015 598 418.049804688 598 c 0
 291.217551278 598 208.357876746 505.689453125 208.357876746 359 c 0
 208.357876746 212.310546875 291.217551278 120 418.049804688 120 c 0
 542.782472837 120 627.741732629 212.455078125 627.741732629 355.122070312 c 0
EndSplineSet
EndChar

StartChar: P
Encoding: 80 80 49
Width: 711
GlyphClass: 1
Flags: HW
LayerCount: 2
Fore
SplineSet
443.822212661 252.5 m 2
 246.757174132 252.5 l 1
 246.757174132 252.5 246.757174132 7.283203125 246.757174132 0 c 1
 79.7998046875 0 l 1
 79.7998046875 7.3486328125 79.7998046875 721.651367188 79.7998046875 729 c 1
 427.387133355 729 l 2
 501.006668906 729 560.165039062 713.212890625 601.525390625 682.018554688 c 0
 653.377929688 642.91015625 679.650390625 580.497070312 679.650390625 499.118164062 c 0
 679.650390625 350.181640625 590.505859375 252.5 443.822212661 252.5 c 2
392.325019412 392.5 m 2
 482.910554179 392.5 512.69302118 429.329101562 512.69302118 491.231445312 c 0
 512.69302118 551.568359375 483.633053635 589 392.325019412 589 c 2
 246.757174132 589 l 1
 246.757174132 581.775390625 246.757174132 392.5 246.757174132 392.5 c 1
 392.325019412 392.5 l 2
EndSplineSet
EndChar

StartChar: Q
Encoding: 81 81 50
Width: 829
GlyphClass: 1
Flags: HW
LayerCount: 2
Fore
SplineSet
149.151367188 78.4111328125 m 0
 83.63671875 147.68359375 45.150390625 250.426757812 45.150390625 359 c 0
 45.150390625 467.521484375 82.5986328125 570.301757812 149.178710938 639.618164062 c 0
 216.023245519 707.99609375 307.090856021 741 421.154199932 741 c 0
 535.217543843 741 626.313318134 707.939453125 693.249023438 639.504882812 c 0
 758.7578125 570.181640625 797.25 467.375 797.25 360.6484375 c 0
 797.25 265.817382812 767.836914062 169.19921875 719.885742188 108.108398438 c 1
 719.885742188 112.422851562 800.317382812 38.8056640625 800.317382812 33.1083984375 c 1
 800.317382812 38.8056640625 714.095703125 -49.7294921875 714.095703125 -57.0908203125 c 1
 714.095703125 -49.5908203125 624.427350146 32.7578125 624.427350146 25.2578125 c 1
 562.393588162 -8.3994140625 502.199525084 -23 421.154199932 -23 c 0
 307.090856021 -23 215.99508173 10.033203125 149.151367188 78.4111328125 c 0
630.808459967 358.030273438 m 0
 630.808459967 505.708984375 547.951599697 598 421.154199932 598 c 0
 294.343724122 598 211.499939897 505.689453125 211.499939897 359 c 0
 211.499939897 213.286132812 295.478322464 120 420.072911619 120 c 0
 448.934759857 120 477.893169656 124.939453125 501.118236771 133.359375 c 1
 501.118236771 140.225585938 420.805170123 206.41015625 420.805170123 201.622070312 c 1
 420.805170123 206.41015625 513.858327723 292.6171875 513.858327723 290.534179688 c 1
 513.858327723 292.6171875 600.48511227 220.990234375 600.48511227 216.659179688 c 1
 620.596069044 256.4765625 630.808459967 304.625976562 630.808459967 358.030273438 c 0
EndSplineSet
EndChar

StartChar: R
Encoding: 82 82 51
Width: 767
GlyphClass: 1
Flags: HW
LayerCount: 2
Fore
SplineSet
715.349609375 528.623046875 m 0
 715.349609375 444.640625 677.619140625 385.890625 603.744140625 352.166015625 c 1
 687.170898438 315.377929688 689.55078125 288.73046875 692.25 92.5947265625 c 0
 692.25 57.513671875 703.151367188 49.77734375 724.25 38.0927734375 c 1
 724.25 44.6728515625 724.25 7.3486328125 724.25 0 c 1
 551.172851562 0 l 1
 530.951269443 36.3974609375 524.895789824 54.5859375 524.895789824 129.061523438 c 0
 524.895789824 139.750976562 526.000429327 157.384765625 526.000429327 176.01953125 c 2
 526.000429327 178.756835938 526.000429327 207.021484375 526.000429327 205.037109375 c 2
 526.000429327 255.012695312 503.674380508 281.5 431.141181816 281.5 c 2
 249 281.5 l 1
 249 281.5 249 7.3056640625 249 0 c 1
 84 0 l 1
 84 7.3486328125 84 721.651367188 84 729 c 1
 507.375693522 729 l 2
 575.05859375 729 623.442382812 712.895507812 658.2265625 677.780273438 c 0
 694.814453125 640.90625 715.349609375 587.119140625 715.349609375 528.623046875 c 0
441.084992486 589 m 2
 249 589 l 1
 249 581.821289062 249 421.5 249 421.5 c 1
 441.084992486 421.5 l 2
 488.238199473 421.5 506.66872424 426.147460938 523.503430264 438.158203125 c 0
 540.541595472 450.458007812 550.306608678 474.740234375 550.306608678 507.1640625 c 0
 550.306608678 538.438476562 540.822122527 559.793945312 523.547615845 572.309570312 c 0
 504.336136638 585.427734375 488.300881342 589 441.084992486 589 c 2
EndSplineSet
EndChar

StartChar: S
Encoding: 83 83 52
Width: 715
GlyphClass: 1
Flags: HW
LayerCount: 2
Fore
SplineSet
351.062002826 439.838867188 m 0
 351.085320406 439.834960938 475.354843399 418.346679688 475.354843399 418.346679688 c 2
 614.134765625 393.510742188 681.247070312 336.067382812 681.895507812 214.828125 c 0
 681.895507812 64.1923828125 565.555664062 -23 360.236963733 -23 c 0
 155.222715719 -23 43.322265625 64.482421875 34.0576171875 225.0625 c 2
 34.0576171875 232.5625 33.599609375 240.5 33.599609375 233 c 1
 197.47011582 233 l 1
 199.640678395 201.931640625 205.924259356 112 368.956724922 112 c 0
 467.076088619 112 521.408078113 147.133789062 521.408078113 200.391601562 c 0
 521.408078113 252.60546875 487.2721545 278.190429688 376.553187029 296.72265625 c 2
 376.553187029 299.745117188 265.379019841 318.822265625 265.379019841 316.254882812 c 2
 113.32421875 343.032226562 47.044921875 395.920898438 47.044921875 514.891601562 c 0
 47.044921875 658.491210938 153.215820312 741 344.197509975 741 c 0
 400.184033856 741 653.700195312 740.341796875 655.294921875 499.55078125 c 2
 655.294921875 492.05078125 655.344726562 484.5 655.344726562 492 c 1
 496.090255049 492 l 1
 493.827435961 522.720703125 487.693898559 606 336.567592208 606 c 0
 253.10586219 606 207.007006124 573.20703125 207.007006124 525.421875 c 0
 207.007006124 479.359375 233.863789482 460.44921875 351.062002826 439.838867188 c 0
EndSplineSet
EndChar

StartChar: T
Encoding: 84 84 53
Width: 651
GlyphClass: 1
Flags: HW
LayerCount: 2
Fore
SplineSet
255.75 0 m 1
 255.75 7.3134765625 245.064473088 581.686523438 245.064473088 589 c 1
 14.7001953125 589 l 1
 14.7001953125 581.5 14.7001953125 721.5 14.7001953125 729 c 1
 638.400390625 729 l 1
 638.400390625 721.5 638.400390625 581.5 638.400390625 589 c 1
 416.777244146 589 l 1
 416.777244146 581.686523438 420.75 7.3134765625 420.75 0 c 1
 255.75 0 l 1
EndSplineSet
EndChar

StartChar: U
Encoding: 85 85 54
Width: 769
GlyphClass: 1
Flags: HW
LayerCount: 2
Fore
SplineSet
244.799804688 239.555664062 m 2
 244.799804688 167.025390625 280.425434807 120 390.75 120 c 0
 501.125008927 120 536.700195312 167.072265625 536.700195312 239.555664062 c 2
 536.700195312 244.000976562 536.700195312 721.680664062 536.700195312 729 c 1
 701.700195312 729 l 1
 701.700195312 721.646484375 701.700195312 239.5703125 701.700195312 237.307617188 c 2
 701.700195312 155.5703125 679.072265625 96.21484375 628.231445312 51.455078125 c 0
 573.435546875 2.798828125 489.584717832 -23 390.75 -23 c 0
 291.915282168 -23 208.088867188 2.77734375 153.291992188 51.43359375 c 0
 102.452148438 96.193359375 79.7998046875 155.5703125 79.7998046875 237.307617188 c 2
 79.7998046875 239.5703125 79.7998046875 721.646484375 79.7998046875 729 c 1
 244.799804688 729 l 1
 244.799804688 721.680664062 244.799804688 244.000976562 244.799804688 239.555664062 c 2
EndSplineSet
EndChar

StartChar: V
Encoding: 86 86 55
Width: 717
GlyphClass: 1
Flags: HW
LayerCount: 2
Fore
SplineSet
430.724837837 -0 m 1
 286.779900871 -0 l 1
 286.779900871 7.3486328125 25.2001953125 721.651367188 25.2001953125 729 c 1
 193.845703125 729 l 1
 193.845703125 721.5 362.530394045 190.5625 362.530394045 198.0625 c 1
 362.530394045 190.5625 534.805664062 721.5 534.805664062 729 c 1
 534.805664062 721.5 703.561523438 721.5 703.561523438 729 c 1
 703.561523438 721.651367188 430.724837837 7.3486328125 430.724837837 -0 c 1
EndSplineSet
EndChar

StartChar: W
Encoding: 87 87 56
Width: 1001
GlyphClass: 1
Flags: HW
LayerCount: 2
Fore
SplineSet
773.3203125 0 m 1
 626.614257812 0 l 1
 626.614257812 7.5 504.60546875 549.44140625 504.60546875 541.94140625 c 1
 504.60546875 549.44140625 370.59765625 7.5 370.59765625 -0 c 1
 370.59765625 7.5 223.888671875 7.5 223.888671875 -0 c 1
 223.888671875 7.3486328125 13.650390625 721.651367188 13.650390625 729 c 1
 188.672851562 729 l 1
 188.672851562 721.5 295.635742188 204.670898438 295.635742188 212.170898438 c 1
 295.635742188 204.670898438 419.680664062 721.5 419.680664062 729 c 1
 419.680664062 721.5 587.194335938 721.5 587.194335938 729 c 1
 587.194335938 721.5 701.248046875 203.544921875 701.248046875 211.044921875 c 1
 701.248046875 203.544921875 819.4609375 721.5 819.4609375 729 c 1
 819.4609375 721.5 994.4765625 721.5 994.4765625 729 c 1
 994.4765625 721.651367188 773.3203125 7.3486328125 773.3203125 0 c 1
EndSplineSet
EndChar

StartChar: X
Encoding: 88 88 57
Width: 711
GlyphClass: 1
Flags: HW
LayerCount: 2
Fore
SplineSet
365.215921119 496.583984375 m 1
 365.215921119 489.083984375 509.141601562 721.5 509.141601562 729 c 1
 509.141601562 721.5 701.37109375 721.5 701.37109375 729 c 1
 701.37109375 721.651367188 466.509792545 371.696289062 466.509792545 371.84375 c 1
 466.509792545 371.696289062 710.353515625 7.3486328125 710.353515625 0 c 1
 710.353515625 7.5 514.372070312 7.5 514.372070312 0 c 1
 514.372070312 7.5 364.185044161 253.03125 364.185044161 245.53125 c 1
 364.185044161 253.03125 215.0703125 7.5 215.0703125 0 c 1
 215.0703125 7.5 23.099609375 7.5 23.099609375 0 c 1
 23.099609375 7.3486328125 262.539775591 366.940429688 262.539775591 366.991210938 c 1
 262.539775591 366.940429688 31.2529296875 721.651367188 31.2529296875 729 c 1
 227.735351562 729 l 1
 227.735351562 721.5 365.215921119 489.083984375 365.215921119 496.583984375 c 1
EndSplineSet
EndChar

StartChar: Y
Encoding: 89 89 58
Width: 717
GlyphClass: 1
Flags: HW
LayerCount: 2
Fore
SplineSet
522.84375 729 m 1
 710.5625 729 l 1
 710.5625 721.651367188 458.389945258 271.975585938 458.389945258 270.072265625 c 1
 458.389945258 271.975585938 458.389945258 7.3486328125 458.389945258 0 c 1
 284.939043782 0 l 1
 284.939043782 7.3486328125 284.939043782 271.950195312 284.939043782 270.045898438 c 1
 284.939043782 271.950195312 28.349609375 721.651367188 28.349609375 729 c 1
 214.975585938 729 l 1
 214.975585938 721.5 374.254555034 409.649414062 374.254555034 417.149414062 c 1
 374.254555034 409.649414062 522.84375 721.5 522.84375 729 c 1
EndSplineSet
EndChar

StartChar: Z
Encoding: 90 90 59
Width: 658
GlyphClass: 1
Flags: HW
LayerCount: 2
Fore
SplineSet
31.5 729 m 1
 624.900390625 729 l 1
 624.900390625 721.686523438 624.900390625 593.178710938 624.900390625 597.219726562 c 1
 624.900390625 593.178710938 237.07049704 147.313476562 237.07049704 140 c 1
 624.900390625 140 l 1
 624.900390625 147.5 624.900390625 7.5 624.900390625 0 c 1
 31.5 0 l 1
 31.5 7.3134765625 31.5 135.827148438 31.5 131.786132812 c 1
 31.5 135.827148438 420.39767632 581.686523438 420.39767632 589 c 1
 31.5 589 l 1
 31.5 581.5 31.5 721.5 31.5 729 c 1
EndSplineSet
EndChar

StartChar: bracketleft
Encoding: 91 91 60
Width: 349
GlyphClass: 1
Flags: HW
LayerCount: 2
Fore
SplineSet
69.2998046875 729 m 1
 326.299804688 729 l 1
 326.299804688 721.5 326.299804688 604.5 326.299804688 612 c 1
 214.299804688 612 l 1
 214.299804688 604.658203125 214.299804688 -75.658203125 214.299804688 -83 c 1
 326.299804688 -83 l 1
 326.299804688 -75.5 326.299804688 -192.5 326.299804688 -200 c 1
 69.2998046875 -200 l 1
 69.2998046875 -192.619140625 69.2998046875 721.619140625 69.2998046875 729 c 1
EndSplineSet
EndChar

StartChar: backslash
Encoding: 92 92 61
Width: 307
GlyphClass: 1
Flags: HW
LayerCount: 2
Fore
SplineSet
323.98046875 -29 m 1
 241.221679688 -29 l 1
 241.221679688 -36.5 -12.599609375 706.5 -12.599609375 714 c 1
 70.1591796875 714 l 1
 70.1591796875 706.5 323.98046875 -36.5 323.98046875 -29 c 1
EndSplineSet
EndChar

StartChar: bracketright
Encoding: 93 93 62
Width: 351
GlyphClass: 1
Flags: HW
LayerCount: 2
Fore
SplineSet
275.900390625 -200 m 1
 18.900390625 -200 l 1
 18.900390625 -192.5 18.900390625 -75.5 18.900390625 -83 c 1
 130.900390625 -83 l 1
 130.900390625 -75.658203125 130.900390625 604.658203125 130.900390625 612 c 1
 18.900390625 612 l 1
 18.900390625 604.5 18.900390625 721.5 18.900390625 729 c 1
 275.900390625 729 l 1
 275.900390625 721.619140625 275.900390625 -192.619140625 275.900390625 -200 c 1
EndSplineSet
EndChar

StartChar: asciicircum
Encoding: 94 94 63
Width: 628
GlyphClass: 1
Flags: HW
LayerCount: 2
Fore
SplineSet
443.597401194 270 m 1
 443.597401194 277.380859375 314.88105393 556.086914062 314.88105393 553.215820312 c 1
 314.88105393 556.086914062 192.612830795 277.380859375 192.612830795 270 c 1
 64.0498046875 270 l 1
 64.0498046875 277.244140625 240.339291159 687.755859375 240.339291159 695 c 1
 390.08159057 695 l 1
 390.08159057 687.755859375 573.27734375 277.244140625 573.27734375 270 c 1
 443.597401194 270 l 1
EndSplineSet
EndChar

StartChar: underscore
Encoding: 95 95 64
Width: 602
GlyphClass: 1
Flags: HW
LayerCount: 2
Fore
SplineSet
-23.099609375 -105 m 1
 624.900390625 -105 l 1
 624.900390625 -97.5 624.900390625 -181.5 624.900390625 -189 c 1
 -23.099609375 -189 l 1
 -23.099609375 -181.5 -23.099609375 -97.5 -23.099609375 -105 c 1
EndSplineSet
EndChar

StartChar: quoteleft
Encoding: 8216 8216 65
Width: 296
GlyphClass: 1
Flags: HW
LayerCount: 2
Fore
SplineSet
224.5390625 609 m 1
 224.5390625 616.5 224.5390625 476.5 224.5390625 469 c 1
 74.5390625 469 l 1
 74.5390625 476.090820312 74.5390625 580.072265625 74.5390625 578.98046875 c 2
 74.392578125 582.040039062 74.3203125 585.06640625 74.3203125 588.057617188 c 0
 74.3203125 668.846679688 128.286132812 722.346679688 216.4375 728.9765625 c 2
 216.4375 721.4765625 224.5390625 722.12109375 224.5390625 729.62109375 c 1
 224.5390625 722.950195312 224.5390625 675.170898438 224.5390625 675.900390625 c 1
 192.137695312 670.75390625 145.545898438 661.70703125 144.452148438 609 c 1
 224.5390625 609 l 1
EndSplineSet
EndChar

StartChar: a
Encoding: 97 97 66
Width: 596
GlyphClass: 1
Flags: HW
LayerCount: 2
Fore
SplineSet
40.8408203125 347 m 1
 46.1591796875 420.872070312 68.0908203125 549 292.307675371 549 c 0
 374.09008694 549 532.75 536.208984375 532.75 380.114257812 c 2
 532.75 377.305664062 532.75 93.05078125 532.75 88.0927734375 c 2
 532.75 60.2705078125 541.841796875 48.33203125 564.75 26.9619140625 c 1
 564.75 33.544921875 564.75 7.30078125 564.75 0 c 1
 399.377284318 0 l 1
 389.020222761 12.1005859375 381.119966906 21.931640625 379.03250511 44.6640625 c 1
 332.082618933 4.4453125 213.994421601 -24.451171875 203.361638132 -24.451171875 c 0
 202.855462083 -24.451171875 202.592085927 -24.3857421875 202.592085927 -24.2529296875 c 0
 202.592085927 -24.029296875 203.336946617 -23.6142578125 204.919261177 -23 c 1
 98.119140625 -23 29.400390625 43.3017578125 29.400390625 140.9609375 c 0
 29.400390625 238.407226562 85.1376953125 294.7421875 198.056048934 312.557617188 c 0
 198.081769262 312.561523438 260.002943784 322.23046875 260.141833554 322.250976562 c 0
 336.861455819 332.946289062 334.787368594 332.508789062 354.946961442 341.791015625 c 0
 369.244377202 349.357421875 377.325704164 361.385742188 377.325704164 376.01953125 c 0
 377.325704164 404.920898438 354.391402364 421 295.626626457 421 c 0
 209.513940517 421 199.87190407 396.35546875 193.047786725 347 c 1
 40.8408203125 347 l 1
208.187800421 208.452148438 m 0
 192.759719055 197.844726562 186.27305241 184.204101562 186.27305241 162.5 c 0
 186.27305241 127.521484375 213.145650787 105 262.44123085 105 c 0
 336.556927139 105 377.325704164 146.65625 377.325704164 224.5 c 2
 377.325704164 232 377.325704164 258.428710938 377.325704164 250.928710938 c 1
 333.963289294 234.211914062 245.804294083 234.313476562 208.187800421 208.452148438 c 0
EndSplineSet
Substitution2: "Single Substitution lookup 20 subtable" ordfeminine
Substitution2: "'aalt' Access All Alternates lookup 0 subtable" ordfeminine
EndChar

StartChar: b
Encoding: 98 98 67
Width: 654
GlyphClass: 1
Flags: HW
LayerCount: 2
Fore
SplineSet
61.9501953125 0 m 1
 61.9501953125 7.3486328125 61.9501953125 721.651367188 61.9501953125 729 c 1
 218.684014132 729 l 1
 218.684014132 721.5 218.684014132 477.732421875 218.684014132 485.232421875 c 1
 256.407924162 528.552734375 307.106538781 549 375.01285664 549 c 0
 450.231090333 549 521.868164062 514.880859375 560.420898438 461.067382812 c 0
 597.463867188 408.928710938 619.75 335.569335938 619.75 263 c 0
 619.75 101.573242188 519.626953125 -23 375.01285664 -23 c 0
 307.091164694 -23 256.41099898 -2.5595703125 218.684014132 40.0810546875 c 1
 218.684014132 47.5810546875 218.684014132 7.5 218.684014132 0 c 1
 61.9501953125 0 l 1
463.01618118 262.046875 m 0
 463.01618118 355.495117188 410.713536806 417 340.849585187 417 c 0
 269.742382389 417 218.684014132 357.3359375 218.684014132 264.907226562 c 0
 218.684014132 167.55859375 268.675420743 109 340.849585187 109 c 0
 411.892216818 109 463.01618118 169.575195312 463.01618118 262.046875 c 0
EndSplineSet
EndChar

StartChar: c
Encoding: 99 99 68
Width: 598
GlyphClass: 1
Flags: HW
LayerCount: 2
Fore
SplineSet
564.990234375 323 m 1
 415.424275476 323 l 1
 399.458336113 386.973632812 379.512756078 421 310.944288847 421 c 0
 268.606020538 421 237.515592752 406.629882812 221.514635847 380.764648438 c 0
 203.610372533 351.708984375 192.612804444 307.875 192.612804444 259.181640625 c 0
 192.612804444 159.5234375 237.371402872 105 309.836086631 105 c 0
 378.288172031 105 398.949551824 140.333007812 415.534477741 202 c 1
 565.194335938 202 l 1
 565.194335938 209.5 564.362304688 201.240234375 564.362304688 193.740234375 c 2
 550.987304688 61.0224609375 456.3125 -23 309.836086631 -23 c 0
 131.951171875 -23 35.7001953125 82.595703125 35.7001953125 259.102539062 c 0
 35.7001953125 441.326171875 131.8515625 549 312.051461135 549 c 0
 463.241210938 549 554.092773438 466.84375 564.37890625 331.073242188 c 2
 564.37890625 323.573242188 564.990234375 315.5 564.990234375 323 c 1
EndSplineSet
EndChar

StartChar: d
Encoding: 100 100 69
Width: 656
GlyphClass: 1
Flags: HW
LayerCount: 2
Fore
SplineSet
431.51618118 484.885742188 m 1
 431.51618118 477.385742188 431.51618118 721.5 431.51618118 729 c 1
 588.25 729 l 1
 588.25 721.651367188 588.25 7.3486328125 588.25 0 c 1
 431.51618118 0 l 1
 431.51618118 7.5 431.51618118 47.6513671875 431.51618118 40.1513671875 c 1
 393.200881266 -3.2080078125 343.255596916 -23 275.187338672 -23 c 0
 200.05212505 -23 128.369140625 10.0927734375 89.779296875 63.9580078125 c 0
 52.736328125 116.096679688 30.4501953125 189.456054688 30.4501953125 262.025390625 c 0
 30.4501953125 423.427734375 130.538085938 549 275.187338672 549 c 0
 343.331442412 549 393.240853892 528.383789062 431.51618118 484.885742188 c 1
431.51618118 260.139648438 m 0
 431.51618118 357.529296875 381.461228343 417 309.349585187 417 c 0
 238.343851364 417 187.184014132 356.483398438 187.184014132 262.046875 c 0
 187.184014132 169.575195312 238.306953555 109 309.349585187 109 c 0
 380.475236889 109 431.51618118 168.693359375 431.51618118 260.139648438 c 0
EndSplineSet
EndChar

StartChar: e
Encoding: 101 101 70
Width: 599
GlyphClass: 1
Flags: HW
LayerCount: 2
Fore
SplineSet
200.573225089 140.208007812 m 0
 221.081322991 113.995117188 253.729130288 99 295.70150794 99 c 0
 349.505480535 99 389.162891607 122.495117188 406.570331077 162.370117188 c 2
 406.570331077 169.870117188 408.59156188 174.5 408.59156188 167 c 1
 564.732421875 167 l 1
 564.732421875 174.5 561.955078125 164.912109375 561.955078125 157.412109375 c 2
 529.913085938 46.814453125 426.635771217 -23 290.180096966 -23 c 0
 120.205078125 -23 23.099609375 84.5615234375 23.099609375 256.178710938 c 0
 23.099609375 435.3671875 120.967773438 549 293.492327322 549 c 0
 416.706269488 549 509.65625 489.52734375 546.848632812 390.522460938 c 0
 560.18359375 352.40625 568.25 302.838867188 568.25 249.30078125 c 0
 568.25 238.209960938 568.11328125 235.659179688 566.651367188 218.5 c 1
 180.278753207 218.5 l 1
 182.697451653 175.875976562 188.227079012 156.393554688 200.573225089 140.208007812 c 0
402.868849465 326.5 m 1
 393.473412786 393.581054688 354.976566148 427 291.284173751 427 c 0
 229.758852998 427 194.306177143 396.330078125 183.184272486 326.5 c 1
 402.868849465 326.5 l 1
EndSplineSet
EndChar

StartChar: f
Encoding: 102 102 71
Width: 349
GlyphClass: 1
Flags: HW
LayerCount: 2
Fore
SplineSet
323.700195312 604.8515625 m 1
 307.208984375 607.20703125 294.661132812 609 276.200195312 609 c 0
 259.009765625 609 245.700195312 603.05078125 245.700195312 574.5 c 2
 245.700195312 567.190429688 245.700195312 523.9765625 245.700195312 530.158203125 c 1
 328.700195312 530.158203125 l 1
 328.700195312 523.9765625 328.700195312 421.403320312 328.700195312 424.90625 c 1
 245.700195312 424.90625 l 1
 245.700195312 421.403320312 245.700195312 7.3095703125 245.700195312 0 c 1
 90.7001953125 0 l 1
 90.7001953125 7.3125 90.7001953125 421.838867188 90.7001953125 425.126953125 c 1
 14.7001953125 425.126953125 l 1
 14.7001953125 421.838867188 14.7001953125 524.51953125 14.7001953125 530.43359375 c 1
 90.7001953125 530.43359375 l 1
 90.7001953125 524.51953125 90.7001953125 579.1875 90.7001953125 586.5 c 2
 90.7001953125 699.448242188 159.046875 729 236.200195312 729 c 0
 259.330078125 729 285.436523438 728.067382812 323.700195312 725.516601562 c 1
 323.700195312 718.016601562 323.700195312 597.3515625 323.700195312 604.8515625 c 1
EndSplineSet
EndChar

StartChar: g
Encoding: 103 103 72
Width: 655
GlyphClass: 1
Flags: HW
LayerCount: 2
Fore
SplineSet
428 473.298828125 m 1
 428 465.798828125 428 532.5 428 540 c 1
 576 540 l 1
 576 532.69921875 576 -3.19921875 576 -10.5 c 2
 576 -140.670898438 476.78125 -218 305.728034999 -218 c 0
 220.069959517 -218 154.655273438 -200.8125 109.831054688 -164.328125 c 0
 56.716796875 -121.262695312 54.6455078125 -82.6044921875 53.869140625 -50 c 1
 214.916893585 -50 l 1
 220.986083131 -70.3232421875 233.729000291 -113 311.293097766 -113 c 0
 381.027185054 -113 428 -71.1416015625 428 -10.5 c 2
 428 -3 428 50.546875 428 43.046875 c 1
 379.2829271 -5.64453125 338.991085943 -23 277.902721167 -23 c 0
 133.162109375 -23 43.0498046875 93.0615234375 43.0498046875 257.153320312 c 0
 43.0498046875 351.159179688 71.5087890625 429.143554688 127.108398438 485.329101562 c 0
 165.687412561 524.80078125 225.382441309 549 281.241137727 549 c 0
 340.581103876 549 387.195750721 524.241210938 428 473.298828125 c 1
430 259.185546875 m 0
 430 352.857421875 377.051105053 417 310.179257078 417 c 0
 247.064033505 417 200.15022313 355.311523438 200.15022313 259.185546875 c 0
 200.15022313 167.087890625 246.855964752 109 307.953646039 109 c 0
 379.792229719 109 430 167.697265625 430 259.185546875 c 0
EndSplineSet
EndChar

StartChar: h
Encoding: 104 104 73
Width: 654
GlyphClass: 1
Flags: HW
LayerCount: 2
Fore
SplineSet
70.349609375 0 m 1
 70.349609375 7.3486328125 70.349609375 721.651367188 70.349609375 729 c 1
 225.349609375 729 l 1
 225.349609375 721.5 225.349609375 469.557617188 225.349609375 477.057617188 c 1
 268.867651505 526.220703125 324.264313307 549 396.341432963 549 c 0
 447.11328125 549 493.731445312 534.02734375 526.362304688 507.387695312 c 0
 565.588867188 475.396484375 584.049804688 426.126953125 584.049804688 359.672851562 c 2
 584.049804688 357.407226562 584.049804688 7.30078125 584.049804688 0 c 1
 429.049804688 0 l 1
 429.049804688 7.23828125 429.049804688 321.602539062 429.049804688 325.7265625 c 2
 429.049804688 358.25 426.044307289 370.120117188 412.57280562 386.001953125 c 0
 396.10740265 405.279296875 372.895179844 415 339.668146344 415 c 0
 272.079770261 415 225.349609375 375.530273438 225.349609375 319.936523438 c 2
 225.349609375 316.013671875 225.349609375 7.23828125 225.349609375 0 c 1
 70.349609375 0 l 1
EndSplineSet
EndChar

StartChar: i
Encoding: 105 105 74
Width: 296
GlyphClass: 1
Flags: HW
LayerCount: 2
Fore
SplineSet
70.349609375 540 m 1
 225.349609375 540 l 1
 225.349609375 532.703125 225.349609375 7.296875 225.349609375 0 c 1
 70.349609375 0 l 1
 70.349609375 7.296875 70.349609375 532.703125 70.349609375 540 c 1
70.349609375 729 m 1
 225.349609375 729 l 1
 225.349609375 721.5 225.349609375 581.5 225.349609375 589 c 1
 70.349609375 589 l 1
 70.349609375 581.5 70.349609375 721.5 70.349609375 729 c 1
EndSplineSet
EndChar

StartChar: j
Encoding: 106 106 75
Width: 296
GlyphClass: 1
Flags: HW
LayerCount: 2
Fore
SplineSet
4.2001953125 -83.0927734375 m 1
 21.9267578125 -89.001953125 24.921875 -90 36.7001953125 -90 c 0
 61.634765625 -90 70.2001953125 -82.9111328125 70.2001953125 -55.5 c 2
 70.2001953125 -48.1845703125 70.2001953125 532.684570312 70.2001953125 540 c 1
 225.200195312 540 l 1
 225.200195312 532.67578125 225.200195312 -79.17578125 225.200195312 -86.5 c 2
 225.200195312 -177.163085938 187.479492188 -218 94.7001953125 -218 c 0
 87.486328125 -218 56.279296875 -218 4.2001953125 -212.213867188 c 1
 4.2001953125 -204.713867188 4.2001953125 -75.5927734375 4.2001953125 -83.0927734375 c 1
70.2001953125 729 m 1
 225.200195312 729 l 1
 225.200195312 721.5 225.200195312 581.5 225.200195312 589 c 1
 70.2001953125 589 l 1
 70.2001953125 581.5 70.2001953125 721.5 70.2001953125 729 c 1
EndSplineSet
EndChar

StartChar: k
Encoding: 107 107 76
Width: 595
GlyphClass: 1
Flags: HW
LayerCount: 2
Fore
SplineSet
216.950195312 181.475585938 m 1
 216.950195312 188.975585938 216.950195312 7.5 216.950195312 0 c 1
 61.9501953125 0 l 1
 61.9501953125 7.3486328125 61.9501953125 721.651367188 61.9501953125 729 c 1
 216.950195312 729 l 1
 216.950195312 721.5 216.950195312 334.7890625 216.950195312 342.2890625 c 1
 216.950195312 334.7890625 406.314000855 532.5 406.314000855 540 c 1
 406.314000855 532.5 586.6640625 532.5 586.6640625 540 c 1
 586.6640625 532.703125 391.595933088 331.581054688 391.595933088 333.291992188 c 1
 391.595933088 331.581054688 595.846679688 7.296875 595.846679688 0 c 1
 595.846679688 7.5 414.338867188 7.5 414.338867188 0 c 1
 414.338867188 7.5 270.781163547 240.577148438 270.781163547 233.077148438 c 1
 270.781163547 240.577148438 216.950195312 188.975585938 216.950195312 181.475585938 c 1
EndSplineSet
EndChar

StartChar: l
Encoding: 108 108 77
Width: 296
GlyphClass: 1
Flags: HW
LayerCount: 2
Fore
SplineSet
70.349609375 729 m 1
 225.349609375 729 l 1
 225.349609375 721.651367188 225.349609375 7.3486328125 225.349609375 0 c 1
 70.349609375 0 l 1
 70.349609375 7.3486328125 70.349609375 721.651367188 70.349609375 729 c 1
EndSplineSet
EndChar

StartChar: m
Encoding: 109 109 78
Width: 954
GlyphClass: 1
Flags: HW
LayerCount: 2
Fore
SplineSet
63 0 m 1
 63 7.296875 63 532.703125 63 540 c 1
 217 540 l 1
 217 532.5 217 477.442382812 217 484.942382812 c 1
 265.189947113 531.212890625 311.609885159 549 378.151235804 549 c 0
 445.740234375 549 499.985351562 522.57421875 529.20703125 474.864257812 c 1
 573.807278652 526.27734375 628.875147715 549 705.735434231 549 c 0
 821.201171875 549 889.200195312 485.189453125 889.200195312 379.140625 c 2
 889.200195312 376.358398438 889.200195312 7.30078125 889.200195312 0 c 1
 734.200195312 0 l 1
 734.200195312 7.23828125 734.200195312 349.545898438 734.200195312 354.680664062 c 2
 734.200195312 391.764648438 705.882406844 415 655.351518445 415 c 0
 591.085080837 415 553.599609375 380.311523438 553.599609375 319.936523438 c 2
 553.599609375 316.013671875 553.599609375 7.23828125 553.599609375 0 c 1
 398.599609375 0 l 1
 398.599609375 7.23828125 398.599609375 349.545898438 398.599609375 354.680664062 c 2
 398.599609375 391.764648438 370.282872056 415 319.750893887 415 c 0
 255.41200348 415 218 381.260742188 218 319.936523438 c 2
 218 316.013671875 218 7.23828125 218 0 c 1
 63 0 l 1
EndSplineSet
EndChar

StartChar: n
Encoding: 110 110 79
Width: 654
GlyphClass: 1
Flags: HW
LayerCount: 2
Fore
SplineSet
434.299804688 0 m 1
 434.299804688 7.23828125 434.299804688 324.396484375 434.299804688 328.622070312 c 2
 434.299804688 395.7109375 393.043961123 415 340.713865455 415 c 0
 266.201649941 415 221.150390625 377.353515625 221.150390625 319.936523438 c 2
 221.150390625 316.013671875 221.150390625 7.23828125 221.150390625 0 c 1
 66.150390625 0 l 1
 66.150390625 7.296875 66.150390625 532.703125 66.150390625 540 c 1
 221.150390625 540 l 1
 221.150390625 532.5 221.150390625 469.4765625 221.150390625 476.9765625 c 1
 265.260412046 526.93359375 320.156851661 549 396.058863754 549 c 0
 465.877929688 549 517.669921875 528.260742188 550.217773438 488.169921875 c 0
 576.178710938 456.193359375 589.299804688 412.736328125 589.299804688 359.672851562 c 2
 589.299804688 357.407226562 589.299804688 7.30078125 589.299804688 0 c 1
 434.299804688 0 l 1
EndSplineSet
Substitution2: "'sups' Superscript lookup 2 subtable" nsuperior
Substitution2: "'aalt' Access All Alternates lookup 0 subtable" nsuperior
EndChar

StartChar: o
Encoding: 111 111 80
Width: 655
GlyphClass: 1
Flags: HW
LayerCount: 2
Fore
SplineSet
36.75 263 m 0
 36.75 438.8046875 141.154296875 549 324.0008324 549 c 0
 511.012695312 549 613.450195312 440.670898438 613.450195312 259.102539062 c 0
 613.450195312 86.1025390625 507.947265625 -23 325.099586608 -23 c 0
 141.19921875 -23 36.75 86.201171875 36.75 263 c 0
456.818241066 261.090820312 m 0
 456.818241066 360.203125 403.958453739 421 325.099586608 421 c 0
 247.29756771 421 193.381954247 360.100585938 193.381954247 263 c 0
 193.381954247 165.899414062 247.29756771 105 325.099586608 105 c 0
 401.802851297 105 456.818241066 166.947265625 456.818241066 261.090820312 c 0
EndSplineSet
Substitution2: "Single Substitution lookup 20 subtable" ordmasculine
Substitution2: "'aalt' Access All Alternates lookup 0 subtable" ordmasculine
EndChar

StartChar: p
Encoding: 112 112 81
Width: 654
GlyphClass: 1
Flags: HW
LayerCount: 2
Fore
SplineSet
215.900390625 46.8056640625 m 1
 215.900390625 54.3056640625 215.900390625 -210.5 215.900390625 -218 c 1
 60.900390625 -218 l 1
 60.900390625 -210.645507812 60.900390625 532.645507812 60.900390625 540 c 1
 215.900390625 540 l 1
 215.900390625 532.5 215.900390625 469.734375 215.900390625 477.234375 c 1
 253.917853529 525.254882812 305.745973241 549 374.302189135 549 c 0
 448.862410699 549 521.681640625 515.04296875 559.291015625 463.123046875 c 0
 596.4921875 412.7734375 618.700195312 337.43359375 618.700195312 262.012695312 c 0
 618.700195312 99.666015625 520.5859375 -24 374.302189135 -24 c 0
 305.819192822 -24 253.953947689 -1.0703125 215.900390625 46.8056640625 c 1
461.73977566 260.116210938 m 0
 461.73977566 357.520507812 411.375016314 417 338.819567512 417 c 0
 266.226993288 417 215.900390625 357.462890625 215.900390625 262.0234375 c 0
 215.900390625 167.565429688 266.208430578 108 338.819567512 108 c 0
 410.3654111 108 461.73977566 167.672851562 461.73977566 260.116210938 c 0
EndSplineSet
EndChar

StartChar: q
Encoding: 113 113 82
Width: 656
GlyphClass: 1
Flags: HW
LayerCount: 2
Fore
SplineSet
432.200195312 477.298828125 m 1
 432.200195312 469.798828125 432.200195312 532.5 432.200195312 540 c 1
 587.200195312 540 l 1
 587.200195312 532.645507812 587.200195312 -210.645507812 587.200195312 -218 c 1
 432.200195312 -218 l 1
 432.200195312 -210.5 432.200195312 54.24609375 432.200195312 46.74609375 c 1
 394.476641995 -0.4716796875 341.01706626 -24 272.689790465 -24 c 0
 199.235081453 -24 126.422851562 9.99609375 88.810546875 61.875 c 0
 51.57421875 111.299804688 29.400390625 186.627929688 29.400390625 262.012695312 c 0
 29.400390625 425.31640625 127.50390625 549 273.798396803 549 c 0
 341.249100145 549 394.535423913 524.653320312 432.200195312 477.298828125 c 1
432.200195312 259.162109375 m 0
 432.200195312 357.595703125 382.922385807 417 309.279987164 417 c 0
 237.836238485 417 186.360810277 356.474609375 186.360810277 262.0234375 c 0
 186.360810277 167.614257812 237.772300259 108 309.279987164 108 c 0
 380.844393464 108 432.200195312 167.703125 432.200195312 259.162109375 c 0
EndSplineSet
EndChar

StartChar: r
Encoding: 114 114 83
Width: 419
GlyphClass: 1
Flags: HW
LayerCount: 2
Fore
SplineSet
403.150390625 389.721679688 m 1
 378.493164062 393.615234375 369.72265625 395 351.650390625 395 c 0
 277.734665891 395 221.150390625 363.56640625 221.150390625 283.725585938 c 2
 221.150390625 280.571289062 221.150390625 7.2255859375 221.150390625 0 c 1
 66.150390625 0 l 1
 66.150390625 7.296875 66.150390625 532.703125 66.150390625 540 c 1
 221.150390625 540 l 1
 221.150390625 532.5 221.150390625 450.853515625 221.150390625 458.353515625 c 1
 265.03785738 515.706054688 320.228515625 549 378.650390625 549 c 0
 387.278320312 549 388.123046875 549 403.150390625 547.12109375 c 1
 403.150390625 539.62109375 403.150390625 382.221679688 403.150390625 389.721679688 c 1
EndSplineSet
EndChar

StartChar: s
Encoding: 115 115 84
Width: 600
GlyphClass: 1
Flags: HW
LayerCount: 2
Fore
SplineSet
291.403246285 424 m 0
 237.893015416 424 209.681205715 405.12890625 209.681205715 382.879882812 c 0
 209.681205715 368.344726562 212.492713123 361.516601562 258.157068266 349.224609375 c 2
 258.157068266 349.224609375 452.75 299.896484375 452.884765625 299.859375 c 0
 526.466796875 278.801757812 564.256835938 232.083984375 564.256835938 161.314453125 c 0
 564.256835938 107.8515625 539.284179688 57.4208984375 497.436523438 25.029296875 c 0
 455.521484375 -7.4140625 391.97432408 -23 308.000607737 -23 c 0
 37.44921875 -23 32.099609375 122.923828125 30.4501953125 172 c 1
 183.806487275 172 l 1
 190.779684274 141.5390625 193.873165705 131.551757812 211.781603453 119.68359375 c 0
 229.51303561 108.109375 258.912429334 102 299.148269988 102 c 0
 371.54252756 102 406.32000976 121.709960938 406.32000976 146.022460938 c 0
 406.32000976 162.731445312 398.315652284 171.09765625 359.970272504 181.635742188 c 0
 359.951748663 181.640625 175.185697537 231.947265625 175.013837457 231.99609375 c 0
 144.067382812 241.241210938 103.94140625 253.735351562 81.64453125 277.579101562 c 0
 61.125 299.521484375 49.70703125 331.301757812 49.70703125 367.587890625 c 0
 49.70703125 479.961914062 139.827148438 549 292.509531228 549 c 0
 453.94921875 549 547.1640625 477.8125 549.254882812 358.633789062 c 2
 549.254882812 351.133789062 549.389648438 343.5 549.389648438 351 c 1
 395.421816693 351 l 1
 394.815675455 377.84375 393.774223955 424 291.403246285 424 c 0
EndSplineSet
Substitution2: "'hist' Historical Forms lookup 17 subtable" longs
Substitution2: "'aalt' Access All Alternates lookup 0 subtable" longs
EndChar

StartChar: t
Encoding: 116 116 85
Width: 349
GlyphClass: 1
Flags: HW
LayerCount: 2
Fore
SplineSet
316.700195312 -10.041015625 m 1
 295.5 -16.564453125 273.462890625 -23 228.200195312 -23 c 0
 167.08203125 -23 83.7001953125 -5.7021484375 83.7001953125 108.666015625 c 2
 83.7001953125 113.234375 83.7001953125 424.206054688 83.7001953125 426.330078125 c 1
 14.7001953125 426.330078125 l 1
 14.7001953125 424.206054688 14.7001953125 527.703125 14.7001953125 532.0546875 c 1
 83.7001953125 532.0546875 l 1
 83.7001953125 527.703125 83.7001953125 666.658203125 83.7001953125 674 c 1
 238.700195312 674 l 1
 238.700195312 666.690429688 238.700195312 528.95703125 238.700195312 532.680664062 c 1
 316.700195312 532.680664062 l 1
 316.700195312 528.95703125 316.700195312 426.370117188 316.700195312 427.420898438 c 1
 238.700195312 427.420898438 l 1
 238.700195312 426.370117188 238.700195312 154.228515625 238.700195312 148.193359375 c 2
 238.700195312 102.779296875 247.314453125 98 277.200195312 98 c 0
 287.661132812 98 291.155273438 98.4990234375 316.700195312 102.1484375 c 1
 316.700195312 109.6484375 316.700195312 -2.541015625 316.700195312 -10.041015625 c 1
EndSplineSet
EndChar

StartChar: u
Encoding: 117 117 86
Width: 654
GlyphClass: 1
Flags: HW
LayerCount: 2
Fore
SplineSet
215.900390625 540 m 1
 215.900390625 532.752929688 215.900390625 201.801757812 215.900390625 197.4765625 c 2
 215.900390625 133.448242188 252.189523514 111 309.486329858 111 c 0
 383.997494883 111 429.049804688 148.689453125 429.049804688 206.171875 c 2
 429.049804688 210.204101562 429.049804688 532.752929688 429.049804688 540 c 1
 584.049804688 540 l 1
 584.049804688 532.703125 584.049804688 7.296875 584.049804688 0 c 1
 429.049804688 0 l 1
 429.049804688 7.5 429.049804688 56.5234375 429.049804688 49.0234375 c 1
 384.938732778 -0.93359375 330.042293163 -23 254.141331559 -23 c 0
 184.322265625 -23 132.530273438 -2.2470703125 99.982421875 37.8701171875 c 0
 74.021484375 69.8681640625 60.900390625 113.353515625 60.900390625 166.452148438 c 2
 60.900390625 168.840820312 60.900390625 532.694335938 60.900390625 540 c 1
 215.900390625 540 l 1
EndSplineSet
EndChar

StartChar: v
Encoding: 118 118 87
Width: 601
GlyphClass: 1
Flags: HW
LayerCount: 2
Fore
SplineSet
382.623778071 -0 m 1
 214.630964998 -0 l 1
 214.630964998 7.296875 14.7001953125 532.703125 14.7001953125 540 c 1
 180.310546875 540 l 1
 180.310546875 532.5 301.287990149 156.075195312 301.287990149 163.575195312 c 1
 301.287990149 156.075195312 421.452148438 532.5 421.452148438 540 c 1
 587.150390625 540 l 1
 587.150390625 532.703125 382.623778071 7.296875 382.623778071 -0 c 1
EndSplineSet
EndChar

StartChar: w
Encoding: 119 119 88
Width: 831
GlyphClass: 1
Flags: HW
LayerCount: 2
Fore
SplineSet
652.17578125 0 m 1
 495.4921875 0 l 1
 495.4921875 7.5 416.235351562 362.549804688 416.235351562 355.049804688 c 1
 416.235351562 362.549804688 317.0859375 7.5 317.0859375 -0 c 1
 317.0859375 7.5 161.47265625 7.5 161.47265625 -0 c 1
 161.47265625 7.296875 5.25 532.703125 5.25 540 c 1
 166.140625 540 l 1
 166.140625 532.5 246.017578125 181.4140625 246.017578125 188.9140625 c 1
 246.017578125 181.4140625 337.967773438 532.5 337.967773438 540 c 1
 497.060546875 540 l 1
 497.060546875 532.5 572.526367188 182.486328125 572.526367188 189.986328125 c 1
 572.526367188 182.486328125 663.455078125 532.5 663.455078125 540 c 1
 663.455078125 532.5 824.42578125 532.5 824.42578125 540 c 1
 824.42578125 532.703125 652.17578125 7.296875 652.17578125 0 c 1
EndSplineSet
EndChar

StartChar: x
Encoding: 120 120 89
Width: 596
GlyphClass: 1
Flags: HW
LayerCount: 2
Fore
SplineSet
302.887629149 384.774414062 m 1
 302.887629149 377.274414062 397.336914062 532.5 397.336914062 540 c 1
 397.336914062 532.5 583.85546875 532.5 583.85546875 540 c 1
 583.85546875 532.703125 402.323242188 271.908203125 402.323242188 271.9609375 c 1
 402.323242188 271.908203125 587.9140625 7.296875 587.9140625 -0 c 1
 587.9140625 7.5 401.569335938 7.5 401.569335938 -0 c 1
 401.569335938 7.5 302.887682929 167.891601562 302.887682929 160.391601562 c 1
 302.887682929 167.891601562 203.12109375 7.5 203.12109375 0 c 1
 203.12109375 7.5 16.7998046875 7.5 16.7998046875 0 c 1
 16.7998046875 7.296875 202.390625 271.908203125 202.390625 271.9609375 c 1
 202.390625 271.908203125 20.8583984375 532.703125 20.8583984375 540 c 1
 20.8583984375 532.5 207.3515625 532.5 207.3515625 540 c 1
 207.3515625 532.5 302.887629149 377.274414062 302.887629149 384.774414062 c 1
EndSplineSet
EndChar

StartChar: y
Encoding: 121 121 90
Width: 601
GlyphClass: 1
Flags: HW
LayerCount: 2
Fore
SplineSet
427.8359375 540 m 1
 589.248046875 540 l 1
 589.248046875 532.672851562 354.065186038 -86.7822265625 354.065186038 -94.109375 c 2
 328.165770913 -159.575195312 307.077717805 -184.63671875 261.089540452 -201.51171875 c 0
 231.793992119 -211.9921875 186.563861645 -219 147.521484375 -219 c 0
 133.452148438 -219 124.6328125 -219 89.671875 -214.005859375 c 1
 89.671875 -206.505859375 89.671875 -85.529296875 89.671875 -93.029296875 c 1
 117.015625 -99.462890625 123.547851562 -101 134.171875 -101 c 0
 184.113987231 -101 219.481189513 -67.3662109375 220.070781531 -15.810546875 c 1
 220.070781531 -8.5078125 9.4501953125 532.697265625 9.4501953125 540 c 1
 181.358398438 540 l 1
 181.358398438 532.5 308.330730823 157.44140625 308.330730823 164.94140625 c 1
 308.330730823 157.44140625 427.8359375 532.5 427.8359375 540 c 1
EndSplineSet
EndChar

StartChar: z
Encoding: 122 122 91
Width: 541
GlyphClass: 1
Flags: HW
LayerCount: 2
Fore
SplineSet
40.0498046875 540 m 1
 500.400390625 540 l 1
 500.400390625 532.763671875 500.400390625 417.973632812 500.400390625 421.03125 c 1
 500.400390625 417.973632812 226.784016683 135.236328125 226.784016683 128 c 1
 509.400390625 128 l 1
 509.400390625 135.5 509.400390625 7.5 509.400390625 0 c 1
 22.0498046875 0 l 1
 22.0498046875 7.236328125 22.0498046875 122.038085938 22.0498046875 118.981445312 c 1
 22.0498046875 122.038085938 296.77244232 404.763671875 296.77244232 412 c 1
 40.0498046875 412 l 1
 40.0498046875 404.5 40.0498046875 532.5 40.0498046875 540 c 1
EndSplineSet
EndChar

StartChar: braceleft
Encoding: 123 123 92
Width: 407
GlyphClass: 1
Flags: HW
LayerCount: 2
Fore
SplineSet
38.849609375 322.5 m 1
 62.349609375 322.5 l 2
 107.67578125 322.5 119.883789062 344.34375 119.883789062 374.217773438 c 0
 119.883789062 375.071289062 119.849609375 375.9375 119.849609375 376.994140625 c 0
 119.849609375 584.078125 119.849609375 584.078125 119.849609375 584.078125 c 2
 119.83984375 584.838867188 119.8359375 585.598632812 119.8359375 586.356445312 c 0
 119.8359375 666.353515625 174.2890625 729.01171875 248.630859375 729.01171875 c 0
 249.220703125 729.01171875 249.810546875 729.0078125 250.40234375 729 c 2
 333.849609375 729 l 1
 333.849609375 721.5 333.849609375 607.5 333.849609375 615 c 1
 289.349609375 615 l 2
 270.140625 615 251.802734375 608.578125 251.802734375 570.1328125 c 0
 251.802734375 569.046875 251.849609375 567.940429688 251.849609375 566.619140625 c 0
 251.849609375 376.026367188 251.849609375 376.026367188 251.849609375 376.026367188 c 2
 251.849609375 319.462890625 235.56640625 284.361328125 185.098632812 269.262695312 c 1
 235.401367188 253.654296875 251.849609375 218.795898438 251.849609375 161.9765625 c 2
 251.849609375 161.9765625 251.791992188 -31.6669921875 251.791992188 -33.6220703125 c 0
 251.791992188 -78.470703125 266.388671875 -86 289.349609375 -86 c 0
 333.849609375 -93.5 333.849609375 -93.5 333.849609375 -86 c 1
 333.849609375 -78.5 333.849609375 -192.5 333.849609375 -200 c 1
 250.40234375 -200 l 2
 249.810546875 -200.0078125 249.219726562 -200.01171875 248.630859375 -200.01171875 c 0
 174.998046875 -200.01171875 119.795898438 -137.377929688 119.795898438 -56.7939453125 c 0
 119.795898438 -55.3369140625 119.813476562 -53.8740234375 119.849609375 -52.4052734375 c 2
 119.849609375 -52.4052734375 119.88671875 153.729492188 119.88671875 155.8125 c 0
 119.88671875 200.565429688 106.481445312 215.541015625 51.4150390625 215.541015625 c 0
 49.005859375 215.541015625 49.005859375 215.541015625 38.849609375 215.379882812 c 1
 38.849609375 322.5 l 1
EndSplineSet
EndChar

StartChar: bar
Encoding: 124 124 93
Width: 300
GlyphClass: 1
Flags: HW
LayerCount: 2
Fore
SplineSet
105 729 m 1
 200 729 l 1
 200 721.619140625 200 -192.619140625 200 -200 c 1
 105 -200 l 1
 105 -192.619140625 105 721.619140625 105 729 c 1
EndSplineSet
EndChar

StartChar: braceright
Encoding: 125 125 94
Width: 405
GlyphClass: 1
Flags: HW
LayerCount: 2
Fore
SplineSet
370.599609375 206.5 m 1
 347.099609375 206.5 l 2
 301.7734375 206.5 289.565429688 184.879882812 289.565429688 155.311523438 c 0
 289.565429688 154.465820312 289.599609375 153.608398438 289.599609375 152.5625 c 0
 289.599609375 -52.404296875 289.599609375 -52.404296875 289.599609375 -52.404296875 c 2
 289.609375 -53.1796875 289.61328125 -53.9521484375 289.61328125 -54.724609375 c 0
 289.61328125 -136.197265625 235.16015625 -200.01171875 160.818359375 -200.01171875 c 0
 160.228515625 -200.01171875 159.638671875 -200.0078125 159.046875 -200 c 2
 75.599609375 -200 l 1
 75.599609375 -192.5 75.599609375 -78.5 75.599609375 -86 c 1
 120.099609375 -86 l 2
 139.30859375 -86 157.646484375 -79.4296875 157.646484375 -40.0947265625 c 0
 157.646484375 -38.984375 157.599609375 -37.8515625 157.599609375 -36.5 c 0
 157.599609375 154.111328125 157.599609375 154.111328125 157.599609375 154.111328125 c 2
 157.599609375 210.680664062 173.8828125 245.786132812 224.350585938 260.885742188 c 1
 174.047851562 276.495117188 157.599609375 311.357421875 157.599609375 368.182617188 c 2
 157.599609375 368.182617188 157.657226562 561.844726562 157.657226562 563.801757812 c 0
 157.657226562 607.639648438 143.060546875 615 120.099609375 615 c 0
 75.599609375 622.5 75.599609375 622.5 75.599609375 615 c 1
 75.599609375 607.5 75.599609375 721.5 75.599609375 729 c 1
 159.046875 729 l 2
 159.638671875 729.0078125 160.229492188 729.01171875 160.818359375 729.01171875 c 0
 234.451171875 729.01171875 289.653320312 667.48828125 289.653320312 588.333007812 c 0
 289.653320312 586.901367188 289.635742188 585.46484375 289.599609375 584.022460938 c 2
 289.599609375 584.022460938 289.5625 375.874023438 289.5625 373.771484375 c 0
 289.5625 328.580078125 302.967773438 313.458984375 358.034179688 313.458984375 c 0
 360.443359375 313.458984375 360.443359375 313.458984375 370.599609375 313.620117188 c 1
 370.599609375 206.5 l 1
EndSplineSet
EndChar

StartChar: asciitilde
Encoding: 126 126 95
Width: 630
GlyphClass: 1
Flags: HW
LayerCount: 2
Fore
SplineSet
472.71875 426 m 1
 565.919921875 426 l 1
 563.012695312 378.51953125 555.279296875 265 429.669571325 265 c 0
 391.592942154 265 362.293428585 272.764648438 332.874815512 292.231445312 c 0
 269.205256458 334.36328125 269.205256458 334.36328125 269.205256458 334.36328125 c 2
 244.225430108 350.943359375 227.290516323 357 205.850534353 357 c 0
 181.260742188 357 167.997070312 349.255859375 161.040039062 334.533203125 c 0
 157.551757812 325.697265625 157.377929688 324.578125 156.111328125 292 c 1
 63 292 l 1
 65.2099609375 334.868164062 71.2470703125 452 201.396212913 452 c 0
 239.4169171 452 270.206727937 443.56640625 298.380492284 425.643554688 c 2
 298.380492284 425.643554688 361.852242597 383.643554688 361.983769875 383.553710938 c 0
 390.396768877 363.92578125 403.456288375 360 425.215249885 360 c 0
 448.930664062 360 461.365234375 367.58984375 468.001953125 382.344726562 c 0
 471.315429688 391.185546875 471.544921875 394.29296875 472.71875 426 c 1
EndSplineSet
EndChar

StartChar: exclamdown
Encoding: 161 161 96
Width: 353
GlyphClass: 1
Flags: HW
LayerCount: 2
Fore
SplineSet
234.299804688 -186 m 1
 69.2998046875 -186 l 1
 69.2998046875 -178.5 69.2998046875 39.5126953125 69.2998046875 32.0126953125 c 1
 69.2998046875 39.5126953125 112.249023438 355.5 112.249023438 348 c 1
 192.37109375 348 l 1
 192.37109375 355.5 234.299804688 39.5009765625 234.299804688 32.0009765625 c 1
 234.299804688 39.5009765625 234.299804688 -178.5 234.299804688 -186 c 1
234.299804688 379 m 1
 69.2998046875 379 l 1
 69.2998046875 371.5 69.2998046875 532.5 69.2998046875 540 c 1
 234.299804688 540 l 1
 234.299804688 532.5 234.299804688 371.5 234.299804688 379 c 1
EndSplineSet
EndChar

StartChar: cent
Encoding: 162 162 97
Width: 596
GlyphClass: 1
Flags: HW
LayerCount: 2
Fore
SplineSet
562.700195312 338 m 1
 413.096085714 338 l 1
 402.47778141 383.680664062 388.342724412 422.848632812 333.154141917 433.59765625 c 1
 333.154141917 441.09765625 333.154141917 114.944335938 333.154141917 107.444335938 c 1
 385.393023605 117.958007812 400.652905342 155.5078125 413.327030482 202 c 1
 562.919921875 202 l 1
 562.919921875 209.5 562.168945312 201.307617188 562.168945312 193.807617188 c 2
 551.053710938 72.556640625 462.073242188 -14.4912109375 333.154141917 -21.6669921875 c 1
 333.154141917 -14.1669921875 333.154141917 -116.672851562 333.154141917 -124.172851562 c 1
 333.154141917 -116.672851562 270.865038813 -115.331054688 270.865038813 -122.831054688 c 1
 270.865038813 -115.331054688 270.865038813 -12.9638671875 270.865038813 -20.4638671875 c 1
 121.65625 -8.1884765625 38.849609375 100.517578125 38.849609375 266.5 c 0
 38.849609375 439.446289062 117.00390625 544.387695312 270.865038813 562.21484375 c 1
 270.865038813 569.71484375 270.865038813 656.5 270.865038813 649 c 1
 333.154141917 649 l 1
 333.154141917 656.5 333.154141917 571.290039062 333.154141917 563.790039062 c 1
 465.939453125 558.591796875 554.1015625 471.27734375 562.184570312 345.989257812 c 2
 562.184570312 353.489257812 562.700195312 345.5 562.700195312 338 c 1
270.865038813 422.96875 m 1
 223.735810114 406.80859375 195.800772233 352.069335938 195.800772233 260 c 0
 195.800772233 173.971679688 223.404858014 121.861328125 270.865038813 104.342773438 c 1
 270.865038813 422.96875 l 1
EndSplineSet
EndChar

StartChar: sterling
Encoding: 163 163 98
Width: 600
GlyphClass: 1
Flags: HW
LayerCount: 2
Fore
SplineSet
585.938476562 26.240234375 m 1
 538.075195312 -1.96484375 495.091796875 -23 428.664147931 -23 c 0
 352.339057418 -23 284.01919873 9 211.416207677 9 c 0
 161.271968869 9 136.059570312 -1.75390625 94.337890625 -23.5634765625 c 1
 94.337890625 -16.228515625 32.5498046875 92.279296875 32.5498046875 87.3955078125 c 1
 111.415039062 139.431640625 144.8984375 171.943359375 144.8984375 232.711914062 c 0
 144.8984375 255.038085938 140.719726562 272.6953125 126.3046875 308.5 c 1
 34.8984375 308.5 l 1
 34.8984375 378.5 l 1
 89.52734375 378.5 l 1
 50.103515625 446.951171875 41.8984375 469.752929688 41.8984375 513.001953125 c 0
 41.8984375 571.157226562 70.99609375 627.915039062 118.859375 665.571289062 c 1
 162.901733554 698.026367188 222.488145864 715 294.927032228 715 c 0
 415.499874969 715 502.614257812 675.389648438 540.364257812 600.938476562 c 0
 560.8359375 561.359375 565.706054688 518.032226562 569.861328125 469 c 1
 418.20862798 469 l 1
 418.20862798 461.5 416.37988636 479.094726562 416.37988636 486.594726562 c 1
 409.596208809 531.962890625 401.50174506 546.96484375 379.14863521 563.715820312 c 0
 357.929899017 580.408203125 330.131590478 589 296.071662429 589 c 0
 238.960153949 589 200.178113494 555.168945312 200.178113494 509.337890625 c 0
 200.178113494 490.481445312 202.302243553 484.942382812 227.707700605 437.25390625 c 0
 239.951961659 414.739257812 246.846409874 401.390625 257.377828244 378.5 c 1
 416.061933527 378.5 l 1
 416.061933527 308.5 l 1
 282.10943042 308.5 l 1
 290.931083069 289.178710938 293.652143931 276.206054688 293.652143931 258.94140625 c 0
 293.652143931 210.919921875 273.262136414 171.022460938 214.402913004 122.663085938 c 1
 243.114053871 133.090820312 283.74022076 137.342773438 287.558731725 137.342773438 c 1
 287.542321256 137.33984375 287.525910787 137.211914062 287.508474664 137.208984375 c 1
 338.928627424 137.208984375 375.310636813 117 427.561569557 117 c 0
 475.458984375 117 511.012695312 134.54296875 539.7890625 148.931640625 c 1
 539.7890625 156.431640625 585.938476562 33.740234375 585.938476562 26.240234375 c 1
EndSplineSet
EndChar

StartChar: fraction
Encoding: 8260 8260 99
Width: 315
GlyphClass: 1
Flags: HW
LayerCount: 2
Fore
SplineSet
-123.900390625 -20 m 1
 -123.900390625 -12.650390625 336.5078125 707.650390625 336.5078125 715 c 1
 336.5078125 707.5 440.953125 707.5 440.953125 715 c 1
 440.953125 707.650390625 -19.455078125 -12.650390625 -19.455078125 -20 c 1
 -19.455078125 -12.5 -123.900390625 -12.5 -123.900390625 -20 c 1
EndSplineSet
EndChar

StartChar: yen
Encoding: 165 165 100
Width: 594
GlyphClass: 1
Flags: HW
LayerCount: 2
Fore
SplineSet
402.504361382 358.5 m 1
 541.197265625 358.5 l 1
 541.197265625 284.5 l 1
 391.56311511 284.5 l 1
 391.56311511 246.5 l 1
 541.197265625 246.5 l 1
 541.197265625 172.5 l 1
 391.56311511 172.5 l 1
 391.56311511 -7.5 l 1
 229.74848518 -7.5 l 1
 229.74848518 172.5 l 1
 75.84765625 172.5 l 1
 75.84765625 246.5 l 1
 229.74848518 246.5 l 1
 229.74848518 284.5 l 1
 75.84765625 284.5 l 1
 75.84765625 358.5 l 1
 216.231988434 358.5 l 1
 216.231988434 358.5 5.25 696.659179688 5.25 704 c 1
 164.33549195 704 l 1
 164.33549195 696.5 308.433295777 450.553710938 308.433295777 458.053710938 c 1
 308.433295777 450.553710938 447.022755064 696.5 447.022755064 704 c 1
 447.022755064 696.5 601.427734375 696.5 601.427734375 704 c 1
 601.427734375 696.659179688 402.504361382 358.5 402.504361382 358.5 c 1
EndSplineSet
EndChar

StartChar: florin
Encoding: 402 402 101
Width: 600
GlyphClass: 1
Flags: HW
LayerCount: 2
Fore
SplineSet
420.41123141 483.213867188 m 1
 545.788085938 483.213867188 l 1
 545.788085938 479.032226562 545.788085938 372.379882812 545.788085938 373.920898438 c 1
 402.278408368 373.920898438 l 1
 402.278408368 372.379882812 338.351933282 14.6220703125 338.351933282 7.3037109375 c 2
 323.928259779 -78.30078125 300.5995535 -134.069335938 261.189327322 -169.841796875 c 0
 227.421721729 -201.549804688 174.822497517 -220 120.587890625 -220 c 0
 76.28515625 -220 48.8955078125 -207.711914062 22.0498046875 -194.696289062 c 1
 22.0498046875 -187.196289062 49.4423828125 -55.939453125 49.4423828125 -63.439453125 c 1
 71.3466796875 -77.1298828125 90.3388671875 -89 111.587890625 -89 c 0
 141.177734375 -89 158.554495514 -68.4267578125 172.99046454 13.259765625 c 2
 172.99046454 13.259765625 226.72702466 316.794921875 236.480448548 371.881835938 c 1
 106.087890625 371.881835938 l 1
 106.087890625 368.349609375 106.087890625 475.135742188 106.087890625 481.244140625 c 1
 256.78650534 481.244140625 l 1
 256.78650534 475.135742188 266.649564311 525.494140625 266.649564311 532.817382812 c 2
 293.408721601 676.537109375 359.09857966 744 477.288085938 744 c 0
 515.149414062 744 538.25390625 737.928710938 581.81640625 724.758789062 c 1
 581.81640625 717.258789062 559.002929688 586.077148438 559.002929688 593.577148438 c 1
 525.44921875 609.155273438 517.168945312 613 498.288085938 613 c 0
 465.290039062 613 439.615814237 584.51171875 426.462678146 514.606445312 c 2
 426.462678146 514.606445312 422.678730839 494.98046875 420.41123141 483.213867188 c 1
EndSplineSet
EndChar

StartChar: section
Encoding: 167 167 102
Width: 600
GlyphClass: 1
Flags: HW
LayerCount: 2
Fore
SplineSet
517.3125 529 m 1
 369.588178692 529 l 1
 364.001632282 567.176757812 353.952649041 606 290.069017448 606 c 0
 249.062200672 606 227.080758195 588.21484375 227.080758195 564.275390625 c 0
 227.080758195 540.888671875 243.155216059 525.013671875 322.56722112 486.356445312 c 2
 322.56722112 486.356445312 461.001953125 417.633789062 461.118164062 417.572265625 c 0
 529.92578125 380.267578125 562 330.315429688 562 260.9140625 c 0
 562 196.319335938 535.76171875 154.879882812 474.837890625 124.106445312 c 1
 516.959960938 91.24609375 538 47.9052734375 538 -6.1220703125 c 0
 538 -122.764648438 445.4296875 -201 298.932070236 -201 c 0
 75.2001953125 -201 67.091796875 -51.1748046875 66.59375 15 c 1
 218.218735755 15 l 1
 218.218735755 22.5 218.218735755 5.25 218.218735755 -2.25 c 1
 220.827576683 -39.6435546875 226.408971353 -45.681640625 236.808272886 -55.0693359375 c 0
 250.38928879 -67.328125 272.717958514 -75 300.039694248 -75 c 0
 347.497519337 -75 376.321502334 -51.9267578125 376.321502334 -21.5 c 0
 376.321502334 -5.9521484375 369.508841902 7.7822265625 358.969413052 17.1708984375 c 0
 347.298662189 26.5615234375 348.629871698 25.8037109375 302.812360494 48.548828125 c 1
 302.812360494 48.548828125 117.478515625 146.573242188 117.35546875 146.642578125 c 0
 64.3359375 177.21484375 34.650390625 225.77734375 34.650390625 282.377929688 c 0
 34.650390625 341.783203125 55.6689453125 375.80078125 122.833007812 427.196289062 c 1
 103.274414062 446.530273438 99.8056640625 450.943359375 94.212890625 458.25390625 c 0
 75.921875 481.45703125 65.650390625 515.150390625 65.650390625 547.044921875 c 0
 65.650390625 650.26953125 158.8191783 723 295.608167854 723 c 0
 383.551453673 723 456.838867188 694.604492188 489.8515625 643.48828125 c 0
 512.916015625 606.856445312 515.575195312 571.553710938 517.3125 529 c 1
382.574683847 175.719726562 m 1
 416.563800956 198.000976562 426.173855984 213.263671875 426.173855984 232 c 0
 426.173855984 260.266601562 414.579350866 274.51171875 362.941404275 299.3046875 c 2
 208.356245487 373.46484375 l 1
 179.053150708 356.91015625 168.366382105 341.848632812 168.366382105 317 c 0
 168.366382105 289.362304688 178.059895315 276.327148438 223.926863219 253.654296875 c 2
 382.574683847 175.719726562 l 1
EndSplineSet
EndChar

StartChar: currency
Encoding: 164 164 103
Width: 598
GlyphClass: 1
Flags: HW
LayerCount: 2
Fore
SplineSet
187.138120281 528.831054688 m 1
 221.876983727 546.884765625 265.727141955 558 306.049751595 558 c 0
 347.096750212 558 389.941382664 547.938476562 422.767695044 529.943359375 c 1
 422.767695044 522.443359375 498.643554688 596.604492188 498.643554688 604.104492188 c 1
 498.643554688 596.723632812 578.248046875 519.627929688 578.248046875 525.764648438 c 1
 578.248046875 519.627929688 501.787109375 445.577148438 501.787109375 450.518554688 c 1
 521.099609375 412.404296875 527.143554688 387.383789062 527.143554688 350.592773438 c 0
 527.143554688 312.865234375 518.592773438 279.360351562 499.970703125 245.6171875 c 1
 499.970703125 243.931640625 578.322265625 169.03515625 578.322265625 169.51171875 c 1
 578.322265625 169.030273438 498.604492188 91.43359375 498.604492188 91.43359375 c 1
 498.604492188 91.43359375 420.345198763 166.963867188 420.345198763 167.412109375 c 1
 372.142550393 144.803710938 351.944820915 139.5 311.565778706 139.5 c 0
 268.555952733 139.5 221.878009774 150.109375 190.176244588 168.014648438 c 1
 190.176244588 167.560546875 107.865234375 89.3955078125 107.865234375 89.3955078125 c 1
 107.865234375 89.3955078125 29.34375 168.141601562 29.34375 168.606445312 c 1
 29.34375 168.146484375 108.6640625 243.997070312 108.6640625 245.673828125 c 1
 88.357421875 283.06640625 80.443359375 310.734375 80.443359375 348.645507812 c 0
 80.443359375 385.252929688 89.6669921875 421 107.470703125 450.873046875 c 1
 107.470703125 445.958007812 27.2998046875 523.6171875 27.2998046875 529.778320312 c 1
 27.2998046875 523.6171875 106.981445312 599.684570312 106.981445312 607.06640625 c 1
 106.981445312 599.56640625 187.138120281 521.331054688 187.138120281 528.831054688 c 1
414.006282191 349.231445312 m 0
 414.006282191 400.809570312 364.787847579 445 304.946751382 445 c 0
 242.690341231 445 193.680194101 402.705078125 193.680194101 348.268554688 c 0
 193.680194101 295.768554688 242.776529155 252.5 303.843751169 252.5 c 0
 364.875061549 252.5 414.006282191 295.716796875 414.006282191 349.231445312 c 0
EndSplineSet
EndChar

StartChar: quotesingle
Encoding: 39 39 104
Width: 255
GlyphClass: 1
Flags: HW
LayerCount: 2
Fore
SplineSet
52.5 729 m 1
 205.5 729 l 1
 205.5 721.5 205.5 582.8046875 205.5 590.3046875 c 1
 205.5 582.8046875 161.447265625 447.5 161.447265625 455 c 1
 94.4716796875 455 l 1
 94.4716796875 447.5 52.5 582.859375 52.5 590.359375 c 1
 52.5 582.859375 52.5 721.5 52.5 729 c 1
EndSplineSet
EndChar

StartChar: quotedblleft
Encoding: 8220 8220 105
Width: 539
GlyphClass: 1
Flags: HW
LayerCount: 2
Fore
SplineSet
232.742135601 609 m 1
 232.742135601 616.5 232.742135601 476.5 232.742135601 469 c 1
 78.7392578125 469 l 1
 78.7392578125 476.090820312 78.7392578125 580.072265625 78.7392578125 578.98046875 c 2
 78.5927734375 582.040039062 78.5205078125 585.064453125 78.5205078125 588.0546875 c 0
 78.5205078125 668.86328125 132.541992188 722.350585938 223.798103952 728.9765625 c 2
 223.798103952 721.4765625 232.742135601 722.115234375 232.742135601 729.615234375 c 1
 232.742135601 722.944335938 232.742135601 675.159179688 232.742135601 675.88671875 c 1
 196.194335938 670.66796875 149.745117188 661.553710938 148.65234375 609 c 1
 232.742135601 609 l 1
476.849609375 609 m 1
 476.849609375 616.5 476.849609375 476.5 476.849609375 469 c 1
 322.881491108 469 l 1
 322.881491108 476.090820312 322.881491108 580.064453125 322.881491108 578.97265625 c 2
 322.706731353 582.122070312 322.620430239 585.236328125 322.620430239 588.313476562 c 0
 322.620430239 669.02734375 380.743164062 722.357421875 468.748046875 728.9765625 c 2
 468.748046875 721.4765625 476.849609375 722.12109375 476.849609375 729.62109375 c 1
 476.849609375 722.950195312 476.849609375 675.170898438 476.849609375 675.900390625 c 1
 444.448242188 670.75390625 397.856445312 661.70703125 396.762695312 609 c 1
 476.849609375 609 l 1
EndSplineSet
EndChar

StartChar: guillemotleft
Encoding: 171 171 106
Width: 597
GlyphClass: 1
Flags: HW
LayerCount: 2
Fore
SplineSet
92.400390625 214.565429688 m 1
 92.400390625 335.388671875 l 1
 92.400390625 335.388671875 282.708297164 486.520507812 282.708297164 491.956054688 c 1
 282.708297164 486.556640625 282.708297164 360.5625 282.708297164 360.5625 c 1
 177.391601562 275 l 1
 282.708297164 189.4375 l 1
 282.708297164 189.4375 282.708297164 66.7529296875 282.708297164 61.3134765625 c 1
 282.708297164 66.791015625 92.400390625 214.565429688 92.400390625 214.565429688 c 1
319.091417101 214.565429688 m 1
 319.091417101 335.388671875 l 1
 319.091417101 335.388671875 509.400390625 486.520507812 509.400390625 491.956054688 c 1
 509.400390625 486.556640625 509.400390625 360.614257812 509.400390625 360.614257812 c 1
 412.2421875 275 l 1
 509.400390625 189.385742188 l 1
 509.400390625 189.385742188 509.400390625 66.7529296875 509.400390625 61.3134765625 c 1
 509.400390625 66.791015625 319.091417101 214.565429688 319.091417101 214.565429688 c 1
EndSplineSet
EndChar

StartChar: guilsinglleft
Encoding: 8249 8249 107
Width: 352
GlyphClass: 1
Flags: HW
LayerCount: 2
Fore
SplineSet
87.150390625 214.596679688 m 1
 87.150390625 335.357421875 l 1
 87.150390625 335.357421875 269.150390625 486.741210938 269.150390625 492.14453125 c 1
 269.150390625 486.776367188 269.150390625 360.614257812 269.150390625 360.614257812 c 1
 171.9921875 275 l 1
 269.150390625 189.385742188 l 1
 269.150390625 189.385742188 269.150390625 66.537109375 269.150390625 61.12890625 c 1
 269.150390625 66.5751953125 87.150390625 214.596679688 87.150390625 214.596679688 c 1
EndSplineSet
EndChar

StartChar: guilsinglright
Encoding: 8250 8250 108
Width: 352
GlyphClass: 1
Flags: HW
LayerCount: 2
Fore
SplineSet
266 338.403320312 m 1
 266 216.626953125 l 1
 266 216.626953125 84 66.3642578125 84 60.9462890625 c 1
 84 66.330078125 84 192.385742188 84 192.385742188 c 1
 181.158203125 278 l 1
 84 363.614257812 l 1
 84 363.614257812 84 486.462890625 84 491.87109375 c 1
 84 486.424804688 266 338.403320312 266 338.403320312 c 1
EndSplineSet
EndChar

StartChar: fi
Encoding: 64257 64257 109
Width: 653
GlyphClass: 1
Flags: HW
LayerCount: 2
Fore
SplineSet
335.113317087 604.909179688 m 1
 316.89591994 607.1796875 302.292789564 609 281.072032683 609 c 0
 259.413085938 609 245.700195312 601.590820312 245.700195312 574.5 c 2
 245.700195312 567.190429688 245.700195312 523.9765625 245.700195312 530.158203125 c 1
 340.844968463 530.158203125 l 1
 340.844968463 523.9765625 340.844968463 421.403320312 340.844968463 424.90625 c 1
 245.700195312 424.90625 l 1
 245.700195312 421.403320312 245.700195312 7.3095703125 245.700195312 0 c 1
 90.7001953125 0 l 1
 90.7001953125 7.3125 90.7001953125 421.838867188 90.7001953125 425.126953125 c 1
 14.7001953125 425.126953125 l 1
 14.7001953125 421.838867188 14.7001953125 524.51953125 14.7001953125 530.43359375 c 1
 90.7001953125 530.43359375 l 1
 90.7001953125 524.51953125 90.7001953125 579.1875 90.7001953125 586.5 c 2
 90.7001953125 699.448242188 159.046875 729 236.200195312 729 c 0
 261.89402953 729 292.063028598 728.04296875 335.113317087 725.5390625 c 1
 335.113317087 718.0390625 335.113317087 597.409179688 335.113317087 604.909179688 c 1
424.200195312 540 m 1
 579.200195312 540 l 1
 579.200195312 532.703125 579.200195312 7.296875 579.200195312 0 c 1
 424.200195312 0 l 1
 424.200195312 7.296875 424.200195312 532.703125 424.200195312 540 c 1
424.200195312 729 m 1
 579.200195312 729 l 1
 579.200195312 721.5 579.200195312 581.5 579.200195312 589 c 1
 424.200195312 589 l 1
 424.200195312 581.5 424.200195312 721.5 424.200195312 729 c 1
EndSplineSet
Ligature2: "'liga' Standard Ligatures in Latin lookup 14 subtable" f i
EndChar

StartChar: fl
Encoding: 64258 64258 110
Width: 653
GlyphClass: 1
Flags: HW
LayerCount: 2
Fore
SplineSet
335.113317087 604.909179688 m 1
 316.89591994 607.1796875 302.292789564 609 281.072032683 609 c 0
 259.413085938 609 245.700195312 601.590820312 245.700195312 574.5 c 2
 245.700195312 567.190429688 245.700195312 523.9765625 245.700195312 530.158203125 c 1
 340.844968463 530.158203125 l 1
 340.844968463 523.9765625 340.844968463 421.403320312 340.844968463 424.90625 c 1
 245.700195312 424.90625 l 1
 245.700195312 421.403320312 245.700195312 7.3095703125 245.700195312 0 c 1
 90.7001953125 0 l 1
 90.7001953125 7.3125 90.7001953125 421.838867188 90.7001953125 425.126953125 c 1
 14.7001953125 425.126953125 l 1
 14.7001953125 421.838867188 14.7001953125 524.51953125 14.7001953125 530.43359375 c 1
 90.7001953125 530.43359375 l 1
 90.7001953125 524.51953125 90.7001953125 579.1875 90.7001953125 586.5 c 2
 90.7001953125 699.448242188 159.046875 729 236.200195312 729 c 0
 261.89402953 729 292.063028598 728.04296875 335.113317087 725.5390625 c 1
 335.113317087 718.0390625 335.113317087 597.409179688 335.113317087 604.909179688 c 1
424.200195312 729 m 1
 579.200195312 729 l 1
 579.200195312 721.651367188 579.200195312 7.3486328125 579.200195312 0 c 1
 424.200195312 0 l 1
 424.200195312 7.3486328125 424.200195312 721.651367188 424.200195312 729 c 1
EndSplineSet
Ligature2: "'liga' Standard Ligatures in Latin lookup 15 subtable" f l
EndChar

StartChar: endash
Encoding: 8211 8211 111
Width: 602
GlyphClass: 1
Flags: HW
LayerCount: 2
Fore
SplineSet
-9.4501953125 318.5 m 1
 602.849609375 318.5 l 1
 602.849609375 199.5 l 1
 -9.4501953125 199.5 l 1
 -9.4501953125 318.5 l 1
EndSplineSet
EndChar

StartChar: dagger
Encoding: 8224 8224 112
Width: 593
GlyphClass: 1
Flags: HW
LayerCount: 2
Fore
SplineSet
375.094900698 492.5 m 1
 560.450195312 492.5 l 1
 560.450195312 361.5 l 1
 375.094900698 361.5 l 1
 375.094900698 361.5 375.094900698 -186.599609375 375.094900698 -194 c 1
 217.905099302 -194 l 1
 217.905099302 -186.599609375 217.905099302 361.5 217.905099302 361.5 c 1
 32.5498046875 361.5 l 1
 32.5498046875 492.5 l 1
 217.905099302 492.5 l 1
 217.905099302 492.5 217.905099302 701.750976562 217.905099302 709 c 1
 375.094900698 709 l 1
 375.094900698 701.750976562 375.094900698 492.5 375.094900698 492.5 c 1
EndSplineSet
EndChar

StartChar: daggerdbl
Encoding: 8225 8225 113
Width: 593
GlyphClass: 1
Flags: HW
LayerCount: 2
Fore
SplineSet
371.944497888 492.5 m 1
 557.299804688 492.5 l 1
 557.299804688 361.5 l 1
 371.944497888 361.5 l 1
 371.944497888 361.5 371.944497888 159.004882812 371.944497888 156.270507812 c 1
 557.299804688 156.270507812 l 1
 557.299804688 159.004882812 557.299804688 31.4716796875 557.299804688 27.015625 c 1
 371.944497888 27.015625 l 1
 371.944497888 31.4716796875 371.944497888 -186.599609375 371.944497888 -194 c 1
 214.754667185 -194 l 1
 214.754667185 -186.599609375 214.754667185 31.4716796875 214.754667185 27.015625 c 1
 29.400390625 27.015625 l 1
 29.400390625 31.4716796875 29.400390625 159.004882812 29.400390625 156.270507812 c 1
 214.754667185 156.270507812 l 1
 214.754667185 159.004882812 214.754667185 361.5 214.754667185 361.5 c 1
 29.400390625 361.5 l 1
 29.400390625 492.5 l 1
 214.754667185 492.5 l 1
 214.754667185 492.5 214.754667185 701.750976562 214.754667185 709 c 1
 371.944497888 709 l 1
 371.944497888 701.750976562 371.944497888 492.5 371.944497888 492.5 c 1
EndSplineSet
EndChar

StartChar: periodcentered
Encoding: 183 183 114
Width: 297
GlyphClass: 1
Flags: HW
LayerCount: 2
Fore
SplineSet
67.2001953125 208.5 m 1
 67.2001953125 346.5 l 1
 206.200195312 346.5 l 1
 206.200195312 208.5 l 1
 67.2001953125 208.5 l 1
EndSplineSet
EndChar

StartChar: paragraph
Encoding: 182 182 115
Width: 590
GlyphClass: 1
Flags: HW
LayerCount: 2
Fore
SplineSet
239.384200216 729 m 0
 563.150390625 736.5 563.150390625 736.5 563.150390625 729 c 1
 563.150390625 721.5 563.150390625 634.5 563.150390625 642 c 1
 520.150390625 642 l 1
 520.150390625 634.6328125 520.150390625 -183.6328125 520.150390625 -191 c 1
 405.269842948 -191 l 1
 405.269842948 -183.6328125 405.269842948 634.6328125 405.269842948 642 c 1
 351.447487094 642 l 1
 351.447487094 634.6328125 351.447487094 -183.6328125 351.447487094 -191 c 1
 232.544656886 -191 l 1
 232.544656886 -183.620117188 232.544656886 260.24609375 232.544656886 260.103515625 c 1
 105.724609375 269.3828125 21 363.421875 21 491.374023438 c 0
 21 547.065429688 39.4375 603.594726562 73.4482421875 648.245117188 c 0
 112.786132812 702.193359375 168.729128121 729 239.384200216 729 c 0
EndSplineSet
EndChar

StartChar: bullet
Encoding: 8226 8226 116
Width: 367
GlyphClass: 1
Flags: HW
LayerCount: 2
Fore
SplineSet
52.5 300 m 0
 52.5 374.204101562 112.005859375 432.5 187 432.5 c 0
 258.233398438 432.5 317.5 373.083007812 317.5 300 c 0
 317.5 226.861328125 258.138671875 167.5 185 167.5 c 0
 111.861328125 167.5 52.5 226.861328125 52.5 300 c 0
EndSplineSet
EndChar

StartChar: quotesinglbase
Encoding: 8218 8218 117
Width: 296
GlyphClass: 1
Flags: HW
LayerCount: 2
Fore
SplineSet
69.2998046875 -15 m 1
 69.2998046875 -22.5 69.2998046875 117.5 69.2998046875 125 c 1
 219.299804688 125 l 1
 219.299804688 117.5 219.299804688 1.173828125 219.299804688 8.673828125 c 2
 219.446289062 5.4375 219.518554688 2.23828125 219.518554688 -0.9228515625 c 0
 219.518554688 -77.759765625 165.5 -127.772460938 77.486328125 -134.96875 c 2
 77.486328125 -127.46875 69.2998046875 -128.212890625 69.2998046875 -135.712890625 c 1
 69.2998046875 -128.212890625 69.2998046875 -67.7197265625 69.2998046875 -75.2197265625 c 1
 101.701171875 -70.587890625 148.29296875 -62.4443359375 149.38671875 -15 c 1
 69.2998046875 -15 l 1
EndSplineSet
EndChar

StartChar: quotedblbase
Encoding: 8222 8222 118
Width: 537
GlyphClass: 1
Flags: HW
LayerCount: 2
Fore
SplineSet
75.599609375 -15 m 1
 75.599609375 -22.5 75.599609375 117.5 75.599609375 125 c 1
 228.820365358 125 l 1
 228.820365358 117.5 228.820365358 1.1826171875 228.820365358 8.6826171875 c 2
 228.997715748 5.3076171875 229.086390943 1.97265625 229.086390943 -1.3212890625 c 0
 229.086390943 -77.9521484375 171.641601562 -127.788085938 83.7861328125 -134.96875 c 2
 83.7861328125 -127.46875 75.599609375 -128.212890625 75.599609375 -135.712890625 c 1
 75.599609375 -128.212890625 75.599609375 -67.7197265625 75.599609375 -75.2197265625 c 1
 108.000976562 -70.587890625 154.592773438 -62.4443359375 155.686523438 -15 c 1
 75.599609375 -15 l 1
316.855368713 -15 m 1
 316.855368713 -22.5 316.855368713 117.5 316.855368713 125 c 1
 470.099609375 125 l 1
 470.099609375 117.5 470.099609375 1.173828125 470.099609375 8.673828125 c 2
 470.24609375 5.4375 470.318359375 2.23828125 470.318359375 -0.9228515625 c 0
 470.318359375 -77.759765625 416.299804688 -127.772460938 325.920785295 -134.96875 c 2
 325.920785295 -127.46875 316.855368713 -128.212890625 316.855368713 -135.712890625 c 1
 316.855368713 -128.212890625 316.855368713 -67.7197265625 316.855368713 -75.2197265625 c 1
 352.500976562 -70.587890625 399.092773438 -62.4443359375 400.186523438 -15 c 1
 316.855368713 -15 l 1
EndSplineSet
EndChar

StartChar: quotedblright
Encoding: 8221 8221 119
Width: 539
GlyphClass: 1
Flags: HW
LayerCount: 2
Fore
SplineSet
76.650390625 589 m 1
 76.650390625 581.5 76.650390625 721.5 76.650390625 729 c 1
 230.504797605 729 l 1
 230.504797605 721.909179688 230.504797605 617.935546875 230.504797605 619.02734375 c 2
 230.678972336 615.877929688 230.764984549 612.765625 230.764984549 609.690429688 c 0
 230.764984549 528.994140625 172.704101562 476.583007812 84.8369140625 469.03125 c 2
 84.8369140625 476.53125 76.650390625 475.787109375 76.650390625 468.287109375 c 1
 76.650390625 475.787109375 76.650390625 536.280273438 76.650390625 528.780273438 c 1
 109.051757812 533.412109375 155.643554688 541.555664062 156.737304688 589 c 1
 76.650390625 589 l 1
326.122424332 589 m 1
 326.122424332 581.5 326.122424332 721.5 326.122424332 729 c 1
 480.010742188 729 l 1
 480.010742188 721.909179688 480.010742188 617.927734375 480.010742188 619.01953125 c 2
 480.157226562 615.9609375 480.229492188 612.936523438 480.229492188 609.94921875 c 0
 480.229492188 529.15625 426.155273438 476.590820312 335.128978171 469.030273438 c 2
 335.128978171 476.530273438 326.122424332 475.79296875 326.122424332 468.29296875 c 1
 326.122424332 475.79296875 326.122424332 536.294921875 326.122424332 528.794921875 c 1
 362.555664062 533.4921875 409.004882812 541.696289062 410.09765625 589 c 1
 326.122424332 589 l 1
EndSplineSet
EndChar

StartChar: guillemotright
Encoding: 187 187 120
Width: 597
GlyphClass: 1
Flags: HW
LayerCount: 2
Fore
SplineSet
282.949415439 338.434570312 m 1
 282.949415439 216.595703125 l 1
 282.949415439 216.595703125 92.400390625 66.5830078125 92.400390625 61.1337890625 c 1
 92.400390625 66.548828125 92.400390625 192.385742188 92.400390625 192.385742188 c 1
 189.55859375 278 l 1
 92.400390625 363.614257812 l 1
 92.400390625 363.614257812 92.400390625 486.247070312 92.400390625 491.686523438 c 1
 92.400390625 486.208984375 282.949415439 338.434570312 282.949415439 338.434570312 c 1
503.099609375 338.434570312 m 1
 503.099609375 216.595703125 l 1
 503.099609375 216.595703125 312.550584561 66.5830078125 312.550584561 61.1337890625 c 1
 312.550584561 66.548828125 312.550584561 192.4375 312.550584561 192.4375 c 1
 418.108398438 278 l 1
 312.550584561 363.5625 l 1
 312.550584561 363.5625 312.550584561 486.247070312 312.550584561 491.686523438 c 1
 312.550584561 486.208984375 503.099609375 338.434570312 503.099609375 338.434570312 c 1
EndSplineSet
EndChar

StartChar: ellipsis
Encoding: 8230 8230 121
Width: 1052
GlyphClass: 1
Flags: HW
LayerCount: 2
Fore
SplineSet
96.599609375 146 m 1
 262.70743661 146 l 1
 262.70743661 138.5 262.70743661 -22.5 262.70743661 -15 c 1
 96.599609375 -15 l 1
 96.599609375 -22.5 96.599609375 138.5 96.599609375 146 c 1
444.218983402 146 m 1
 613.281016598 146 l 1
 613.281016598 138.5 613.281016598 -22.5 613.281016598 -15 c 1
 444.218983402 -15 l 1
 444.218983402 -22.5 444.218983402 138.5 444.218983402 146 c 1
794.79256339 146 m 1
 960.900390625 146 l 1
 960.900390625 138.5 960.900390625 -22.5 960.900390625 -15 c 1
 794.79256339 -15 l 1
 794.79256339 -22.5 794.79256339 138.5 794.79256339 146 c 1
EndSplineSet
EndChar

StartChar: perthousand
Encoding: 8240 8240 122
Width: 1048
GlyphClass: 1
Flags: HW
LayerCount: 2
Fore
SplineSet
11.5498046875 587.25 m 0
 11.5498046875 671.3671875 81.9697265625 739 168.75936869 739 c 0
 258.568657491 739 329.32118596 671.270507812 329.32118596 585.297851562 c 0
 329.32118596 503.01171875 256.455111248 435.5 169.7788088 435.5 c 0
 82.0087890625 435.5 11.5498046875 503.110351562 11.5498046875 587.25 c 0
233.493815653 585.280273438 m 0
 233.493815653 618.012695312 205.429346228 644 168.75936869 644 c 0
 133.142679859 644 105.549804688 617.979492188 105.549804688 586.219726562 c 0
 105.549804688 553.530273438 134.192981925 527.5 168.75936869 527.5 c 0
 204.480589954 527.5 233.493815653 553.655273438 233.493815653 585.280273438 c 0
71.2578125 -21 m 1
 71.2578125 -13.6455078125 511.650637994 730.645507812 511.650637994 738 c 1
 511.650637994 730.5 599.871033812 730.5 599.871033812 738 c 1
 599.871033812 730.645507812 154.875470478 -13.6455078125 154.875470478 -21 c 1
 154.875470478 -13.5 71.2578125 -13.5 71.2578125 -21 c 1
326.262865631 129.75 m 0
 326.262865631 212.9609375 398.143348832 281.5 489.373283176 281.5 c 0
 582.663999773 281.5 653.553913727 213.848632812 653.553913727 127.797851562 c 0
 653.553913727 45.4345703125 580.55045353 -22 490.443496182 -22 c 0
 398.228965872 -22 326.262865631 45.5322265625 326.262865631 129.75 c 0
557.726543419 127.780273438 m 0
 557.726543419 160.220703125 528.399720421 186.5 489.373283176 186.5 c 0
 452.49822296 186.5 422.090235939 160.096679688 422.090235939 128.719726562 c 0
 422.090235939 96.369140625 452.466365456 70 490.443496182 70 c 0
 527.319551945 70 557.726543419 96.4033203125 557.726543419 127.780273438 c 0
713.191160141 129.75 m 0
 713.191160141 213.944335938 785.117438503 281.5 876.301577686 281.5 c 0
 968.612304688 281.5 1038.15039062 213.848632812 1038.15039062 127.797851562 c 0
 1038.15039062 45.4345703125 966.5390625 -22 877.372786239 -22 c 0
 785.157260382 -22 713.191160141 45.5322265625 713.191160141 129.75 c 0
944.150390625 127.780273438 m 0
 944.150390625 160.220703125 915.328014931 186.5 876.301577686 186.5 c 0
 838.378206498 186.5 809.018530449 160.186523438 809.018530449 128.719726562 c 0
 809.018530449 96.369140625 839.394659966 70 877.372786239 70 c 0
 914.247846455 70 944.150390625 96.4033203125 944.150390625 127.780273438 c 0
EndSplineSet
Ligature2: "'frac' Diagonal Fractions lookup 6 subtable" percent zerosuperior
Ligature2: "'frac' Diagonal Fractions lookup 6 subtable" percent zero
EndChar

StartChar: questiondown
Encoding: 191 191 123
Width: 670
GlyphClass: 1
Flags: HW
LayerCount: 2
Fore
SplineSet
258.900390625 346.5 m 2
 258.900390625 354 258.900390625 361.5 258.900390625 354 c 1
 403.827148438 354 l 1
 404.244140625 342.733398438 404.366210938 339.4453125 404.366210938 332.624023438 c 0
 412.581295763 253.98828125 382.173992877 206.693359375 292.765944246 142.568359375 c 0
 224.676429385 93.7333984375 213.422276981 77.2734375 213.422276981 36.5 c 0
 213.422276981 -25.7275390625 262.194236635 -71 327.22495832 -71 c 0
 401.830092025 -71 448.005105987 -21.056640625 448.005105987 66.5 c 2
 448.005105987 74 448.005105987 81.5 448.005105987 74 c 1
 602.44140625 74 l 1
 601.5859375 3.8447265625 596.153320312 -55.591796875 553.9140625 -111.911132812 c 0
 509.235351562 -173.21484375 433.733261588 -204 331.876963076 -204 c 0
 159.756835938 -204 53.5498046875 -107.014648438 53.5498046875 33.5 c 0
 53.5498046875 119.975585938 82.515625 167.690429688 178.313215277 233.713867188 c 0
 252.58984375 275.084960938 258.900390625 284.848632812 258.900390625 346.5 c 2
414.599609375 379 m 1
 242.099609375 379 l 1
 242.099609375 371.5 242.099609375 532.5 242.099609375 540 c 1
 414.599609375 540 l 1
 414.599609375 532.5 414.599609375 371.5 414.599609375 379 c 1
EndSplineSet
EndChar

StartChar: grave
Encoding: 96 96 124
Width: 354
GlyphClass: 1
Flags: HW
LayerCount: 2
Fore
SplineSet
156.44921875 592 m 1
 156.44921875 584.5 17.849609375 749.5 17.849609375 757 c 1
 17.849609375 749.5 164.720703125 749.5 164.720703125 757 c 1
 164.720703125 749.5 241.720703125 584.5 241.720703125 592 c 1
 156.44921875 592 l 1
EndSplineSet
EndChar

StartChar: acute
Encoding: 180 180 125
Width: 348
GlyphClass: 1
Flags: HW
LayerCount: 2
Fore
SplineSet
350.920898438 757 m 1
 350.920898438 749.5 212.3203125 584.5 212.3203125 592 c 1
 127.049804688 592 l 1
 127.049804688 584.5 204.049804688 749.5 204.049804688 757 c 1
 204.049804688 749.5 350.920898438 749.5 350.920898438 757 c 1
EndSplineSet
EndChar

StartChar: circumflex
Encoding: 710 710 126
Width: 363
GlyphClass: 1
Flags: HW
LayerCount: 2
Fore
SplineSet
8.400390625 592 m 1
 8.400390625 584.5 127.200195312 749.5 127.200195312 757 c 1
 256.98828125 757 l 1
 256.98828125 749.5 370.288085938 584.5 370.288085938 592 c 1
 370.288085938 584.5 274.493164062 584.5 274.493164062 592 c 1
 274.493164062 584.5 188.42829601 680.173828125 188.42829601 687.673828125 c 1
 188.42829601 680.173828125 102.588867188 584.5 102.588867188 592 c 1
 102.588867188 584.5 8.400390625 584.5 8.400390625 592 c 1
EndSplineSet
EndChar

StartChar: tilde
Encoding: 732 732 127
Width: 368
GlyphClass: 1
Flags: HW
LayerCount: 2
Fore
SplineSet
303.314453125 749 m 1
 381.005859375 749 l 1
 379.272460938 714.107421875 374.323242188 614.5 278.14453125 614.5 c 0
 261.83203125 614.5 239.667559882 617.9921875 214.544727706 624.799804688 c 0
 214.448189039 624.825195312 131.756854982 646.36328125 131.756854982 646.36328125 c 2
 119.520307779 649.528320312 109.311523438 651 101.444335938 651 c 0
 76.908203125 651 72.447265625 637.943359375 67.8642578125 613.5 c 1
 -9.4501953125 613.5 l 1
 -9.4501953125 613.5 -9.0458984375 620.561523438 -9.0458984375 620.963867188 c 2
 -4.9609375 696.32421875 31.869140625 745 92.4443359375 745 c 0
 111.849280226 745 115.831229059 744.447265625 156.954531742 731.61328125 c 0
 157.033715143 731.594726562 239.759759732 712.737304688 239.759759732 712.737304688 c 2
 240.105780347 712.663085938 262.014648438 708.5 274.14453125 708.5 c 0
 298.814453125 708.5 301.375 731.54296875 303.314453125 749 c 1
EndSplineSet
EndChar

StartChar: macron
Encoding: 175 175 128
Width: 348
GlyphClass: 1
Flags: HW
LayerCount: 2
Fore
SplineSet
16.7998046875 734 m 1
 330.799804688 734 l 1
 330.799804688 741.5 330.799804688 647.5 330.799804688 640 c 1
 16.7998046875 640 l 1
 16.7998046875 647.5 16.7998046875 741.5 16.7998046875 734 c 1
EndSplineSet
EndChar

StartChar: breve
Encoding: 728 728 129
Width: 349
GlyphClass: 1
Flags: HW
LayerCount: 2
Fore
SplineSet
246.07421875 748 m 1
 315.75 748 l 1
 315.75 740.5 315.75 722 315.75 729.5 c 2
 315.75 654.697265625 255.302734375 597.5 176.25 597.5 c 0
 96.16015625 597.5 36.75 654.809570312 36.75 730.5 c 2
 36.75 723 36.75 740.5 36.75 748 c 1
 106.817382812 748 l 1
 110.359375 724.451171875 116.260742188 689.5 177.25 689.5 c 0
 229.475585938 689.5 239.150390625 716.6328125 246.07421875 748 c 1
EndSplineSet
EndChar

StartChar: dotaccent
Encoding: 729 729 130
Width: 353
GlyphClass: 1
Flags: HW
LayerCount: 2
Fore
SplineSet
117.599609375 743 m 1
 242.599609375 743 l 1
 242.599609375 735.5 242.599609375 598.5 242.599609375 606 c 1
 117.599609375 606 l 1
 117.599609375 598.5 117.599609375 735.5 117.599609375 743 c 1
EndSplineSet
EndChar

StartChar: dieresis
Encoding: 168 168 131
Width: 348
GlyphClass: 1
Flags: HW
LayerCount: 2
Fore
SplineSet
18.900390625 743 m 1
 143.900390625 743 l 1
 143.900390625 735.5 143.900390625 598.5 143.900390625 606 c 1
 18.900390625 606 l 1
 18.900390625 598.5 18.900390625 735.5 18.900390625 743 c 1
204.900390625 743 m 1
 329.900390625 743 l 1
 329.900390625 735.5 329.900390625 598.5 329.900390625 606 c 1
 204.900390625 606 l 1
 204.900390625 598.5 204.900390625 735.5 204.900390625 743 c 1
EndSplineSet
EndChar

StartChar: ring
Encoding: 730 730 132
Width: 351
GlyphClass: 1
Flags: HW
LayerCount: 2
Fore
SplineSet
80.849609375 676.25 m 0
 80.849609375 729.30078125 124.3671875 770 179.349609375 770 c 0
 233.512695312 770 275.849609375 729.095703125 275.849609375 675.288085938 c 0
 275.849609375 624.078125 231.416015625 582.5 178.349609375 582.5 c 0
 124.229492188 582.5 80.849609375 624.211914062 80.849609375 676.25 c 0
212.849609375 676.25 m 0
 212.849609375 694.118164062 198.17578125 707 179.349609375 707 c 0
 159.216796875 707 143.849609375 693.83203125 143.849609375 676.25 c 0
 143.849609375 659.532226562 159.375 645.5 179.349609375 645.5 c 0
 197.045898438 645.5 212.849609375 659.385742188 212.849609375 676.25 c 0
EndSplineSet
EndChar

StartChar: cedilla
Encoding: 184 184 133
Width: 349
GlyphClass: 1
Flags: HW
LayerCount: 2
Fore
SplineSet
173.032226562 0 m 1
 216.032226562 0 l 1
 216.032226562 -7.5 227.7421875 -7.5 227.7421875 0 c 1
 227.7421875 -5.5908203125 200.612304688 -38.345703125 200.612304688 -43.9365234375 c 1
 209.909179688 -41.908203125 218.934570312 -41 229.032226562 -41 c 0
 279.395507812 -41 312.532226562 -71.298828125 312.532226562 -119.5 c 0
 312.532226562 -184.993164062 261.795898438 -220 177.032226562 -220 c 0
 124.54296875 -220 92.6181640625 -210.89453125 28.349609375 -189.142578125 c 1
 28.349609375 -181.642578125 52.7421875 -114.884765625 52.7421875 -122.384765625 c 1
 106.415039062 -146.239257812 129.354492188 -155 161.032226562 -155 c 0
 191.034179688 -155 210.532226562 -138.356445312 210.532226562 -121.5 c 0
 210.532226562 -106.543945312 196.338867188 -94 168.032226562 -94 c 0
 144.8046875 -94 144.604492188 -94.099609375 102.004882812 -115.399414062 c 1
 102.004882812 -108.76171875 168.435546875 -6.6376953125 168.435546875 0 c 1
 168.435546875 -7.5 173.032226562 -7.5 173.032226562 0 c 1
EndSplineSet
EndChar

StartChar: hungarumlaut
Encoding: 733 733 134
Width: 369
GlyphClass: 1
Flags: HW
LayerCount: 2
Fore
SplineSet
191.159604726 757 m 1
 191.159604726 749.5 39.060546875 587.5 39.060546875 595 c 1
 39.060546875 587.5 -46.2001953125 587.5 -46.2001953125 595 c 1
 -46.2001953125 587.5 30.9423828125 749.5 30.9423828125 757 c 1
 30.9423828125 749.5 191.159604726 749.5 191.159604726 757 c 1
388.208984375 757 m 1
 388.208984375 749.5 247.417260441 587.5 247.417260441 595 c 1
 150.891512765 595 l 1
 150.891512765 587.5 238.663741489 749.5 238.663741489 757 c 1
 238.663741489 749.5 388.208984375 749.5 388.208984375 757 c 1
EndSplineSet
EndChar

StartChar: ogonek
Encoding: 731 731 135
Width: 351
GlyphClass: 1
Flags: HW
LayerCount: 2
Fore
SplineSet
257.65625 -13.90234375 m 2
 172.841796875 -59.640625 152.25 -83.791015625 152.25 -125.5 c 0
 152.25 -145.166015625 158.743164062 -168 220.75 -168 c 0
 249.413085938 -168 266.34765625 -164.349609375 285.25 -160.149414062 c 1
 285.25 -152.649414062 285.25 -214.8046875 285.25 -222.3046875 c 1
 266.184570312 -227.248046875 240.140625 -234 198.75 -234 c 0
 108.42578125 -234 47.25 -195.7578125 47.25 -131.5 c 0
 47.25 -80.9169921875 88.0517578125 -29.171875 177.424804688 0 c 1
 280.380859375 0 l 1
 280.380859375 -7.5 257.65625 -21.40234375 257.65625 -13.90234375 c 2
EndSplineSet
EndChar

StartChar: caron
Encoding: 711 711 136
Width: 363
GlyphClass: 1
Flags: HW
LayerCount: 2
Fore
SplineSet
371.337890625 757 m 1
 371.337890625 749.5 252.538085938 584.5 252.538085938 592 c 1
 252.538085938 584.5 122.75 584.5 122.75 592 c 1
 122.75 584.5 9.4501953125 749.5 9.4501953125 757 c 1
 9.4501953125 749.5 105.176757812 749.5 105.176757812 757 c 1
 105.176757812 749.5 191.30998524 656.615234375 191.30998524 664.115234375 c 1
 191.30998524 656.615234375 277.21875 749.5 277.21875 757 c 1
 277.21875 749.5 371.337890625 749.5 371.337890625 757 c 1
EndSplineSet
EndChar

StartChar: emdash
Encoding: 8212 8212 137
Width: 1068
GlyphClass: 1
Flags: HW
LayerCount: 2
Fore
SplineSet
-7.349609375 318.5 m 1
 1071.15039062 318.5 l 1
 1071.15039062 199.5 l 1
 -7.349609375 199.5 l 1
 -7.349609375 318.5 l 1
EndSplineSet
EndChar

StartChar: AE
Encoding: 198 198 138
Width: 1045
GlyphClass: 1
Flags: HW
LayerCount: 2
Fore
SplineSet
621.835050484 306.5 m 1
 621.835050484 306.5 621.835050484 147.176757812 621.835050484 140 c 1
 1013.10546875 140 l 1
 1013.10546875 147.5 1013.10546875 7.5 1013.10546875 0 c 1
 453.565806071 0 l 1
 453.565806071 7.1298828125 453.565806071 144.5 453.565806071 144.5 c 1
 227.772700642 144.5 l 1
 227.772700642 144.5 171.019675298 7.1298828125 171.019675298 0 c 1
 171.019675298 7.5 1.0498046875 7.5 1.0498046875 0 c 1
 1.0498046875 7.3486328125 278.125997266 721.651367188 278.125997266 729 c 1
 993.10546875 729 l 1
 993.10546875 721.5 993.10546875 581.5 993.10546875 589 c 1
 621.835050484 589 l 1
 621.835050484 581.875 621.835050484 446.5 621.835050484 446.5 c 1
 966.10546875 446.5 l 1
 966.10546875 306.5 l 1
 621.835050484 306.5 l 1
278.346093756 284.5 m 1
 453.565806071 284.5 l 1
 453.565806071 284.5 453.565806071 581.680664062 453.565806071 589 c 1
 394.81796955 589 l 1
 394.81796955 581.680664062 278.346093756 284.5 278.346093756 284.5 c 1
EndSplineSet
EndChar

StartChar: ordfeminine
Encoding: 170 170 139
Width: 387
GlyphClass: 1
Flags: HW
LayerCount: 2
Fore
SplineSet
38.5 347.5 m 1
 337.5 347.5 l 1
 337.5 254.5 l 1
 38.5 254.5 l 1
 38.5 347.5 l 1
41.294921875 602 m 1
 42.2236328125 636.380859375 44.7265625 729 185 729 c 0
 215.78515625 729 325.5 727.28125 325.5 621.5 c 2
 325.5 614 325.5 435 325.5 442.5 c 2
 325.5 425.408203125 330.193359375 420.043945312 345.5 405.756835938 c 1
 345.5 398.256835938 345.5 377.5 345.5 385 c 1
 242.396484375 385 l 1
 236.837890625 391.948242188 232.139648438 397.821289062 229.905273438 408.296875 c 1
 202.547851562 384.166992188 171.578125 371 138 371 c 0
 74.18359375 371 31.5 413.591796875 31.5 476.5 c 0
 31.5 539.181640625 66.1376953125 575.453125 133.651367188 586.87890625 c 0
 133.741210938 586.89453125 166.651367188 592.87890625 166.759765625 592.897460938 c 0
 209.54296875 600.036132812 207.043945312 599.435546875 217.534179688 605.153320312 c 0
 224.8359375 608.803710938 228.5 613.467773438 228.5 622.5 c 0
 228.5 636.259765625 218.017578125 646 187 646 c 0
 140.391601562 646 138.008789062 629.741210938 134.646484375 602 c 1
 41.294921875 602 l 1
141.09765625 510.515625 m 0
 133.668945312 504.897460938 130.5 497.884765625 130.5 485.5 c 0
 130.5 466.194335938 142.825195312 454 169 454 c 0
 206.534179688 454 228.5 477.48828125 228.5 522.5 c 2
 228.5 515 228.5 526.66015625 228.5 534.16015625 c 1
 222.337890625 532.092773438 215.041992188 530.611328125 201.436523438 528.13671875 c 0
 156.510742188 518.841796875 150.44921875 517.587890625 141.09765625 510.515625 c 0
EndSplineSet
EndChar

StartChar: Lslash
Encoding: 321 321 140
Width: 654
GlyphClass: 1
Flags: HW
LayerCount: 2
Fore
SplineSet
80 350.198242188 m 1
 80 350.486328125 80 721.651367188 80 729 c 1
 245 729 l 1
 245 721.686523438 245 436.666992188 245 436.72265625 c 1
 245 436.666992188 428.270258007 543.172851562 428.270258007 545.940429688 c 1
 428.270258007 543.172851562 428.270258007 442.524414062 428.270258007 442.728515625 c 1
 428.270258007 442.524414062 249.878371031 335.067382812 249.878371031 332.53515625 c 1
 249.878371031 335.067382812 249.878371031 147.313476562 249.878371031 140 c 1
 639.349609375 140 l 1
 639.349609375 147.5 639.349609375 7.5 639.349609375 0 c 1
 80 0 l 1
 80 7.3486328125 80 247.461914062 80 245.053710938 c 1
 80 247.461914062 0 193.697265625 0 190.182617188 c 1
 0 193.697265625 0 296.721679688 0 295.327148438 c 1
 0 296.721679688 80 350.486328125 80 350.198242188 c 1
EndSplineSet
EndChar

StartChar: Oslash
Encoding: 216 216 141
Width: 829
GlyphClass: 1
Flags: HW
LayerCount: 2
Fore
SplineSet
722.966796875 599.923828125 m 1
 767.079101562 538.434570312 793.850585938 447.380859375 793.850585938 357.142578125 c 0
 793.850585938 250.489257812 755.356445312 146.717773438 689.687334976 78.3662109375 c 0
 621.409626008 10.02734375 530.504931781 -23 417.658279327 -23 c 0
 321.00819709 -23 241.066948688 0.9189453125 178.635071575 49.20703125 c 1
 178.635071575 56.70703125 94.666015625 -34.5625 94.666015625 -42.0625 c 1
 94.666015625 -34.7041015625 32.5498046875 19.236328125 32.5498046875 12.91015625 c 1
 32.5498046875 19.236328125 119.48828125 111.696289062 119.48828125 107.141601562 c 1
 65.9560546875 179.905273438 39.650390625 263.40234375 39.650390625 358.821289062 c 0
 39.650390625 467.391601562 77.06640625 570.213867188 144.680664062 639.572265625 c 0
 211.739354442 707.984375 302.690252838 741 417.658279327 741 c 0
 518.879561008 741 595.335407944 716.696289062 665.886161155 659.905273438 c 1
 665.886161155 652.405273438 749.703125 744.4765625 749.703125 751.9765625 c 1
 749.703125 744.619140625 813.036132812 691.874023438 813.036132812 698.209960938 c 1
 813.036132812 691.874023438 722.966796875 595.453125 722.966796875 599.923828125 c 1
286.236546374 161.012695312 m 1
 318.065192393 135.548828125 365.336075344 120 416.578507979 120 c 0
 544.293863002 120 627.018410386 215.18359375 627.018410386 368.5 c 0
 627.018410386 411.017578125 620.06166959 454.465820312 607.886870979 490.447265625 c 1
 607.886870979 497.947265625 286.236546374 168.512695312 286.236546374 161.012695312 c 1
557.993399201 547.288085938 m 1
 520.444476134 581.37109375 473.694896745 598 417.658279327 598 c 0
 288.84708194 598 206.137601133 502.819335938 206.137601133 348.5 c 0
 206.137601133 298.78515625 215.109245486 254.26953125 232.132468559 214.807617188 c 1
 232.132468559 207.307617188 557.993399201 539.788085938 557.993399201 547.288085938 c 1
EndSplineSet
EndChar

StartChar: OE
Encoding: 338 338 142
Width: 1046
GlyphClass: 1
Flags: HW
LayerCount: 2
Fore
SplineSet
665.567780848 589 m 1
 665.567780848 581.875 665.567780848 446.5 665.567780848 446.5 c 1
 969.200195312 446.5 l 1
 969.200195312 306.5 l 1
 665.567780848 306.5 l 1
 665.567780848 306.5 665.567780848 147.176757812 665.567780848 140 c 1
 1016.20019531 140 l 1
 1016.20019531 147.5 1016.20019531 7.5 1016.20019531 0 c 1
 503.308692796 0 l 1
 503.308692796 7.5 503.308692796 53.8212890625 503.308692796 46.3212890625 c 1
 455.981132289 -4.9169921875 413.527842121 -23 345.182419935 -23 c 0
 155.640971461 -23 29.400390625 137.848632812 29.400390625 359 c 0
 29.400390625 583.138671875 154.755012284 741 349.46870837 741 c 0
 413.66935641 741 456.431586223 726.659179688 503.308692796 686.541992188 c 1
 503.308692796 679.041992188 503.308692796 721.5 503.308692796 729 c 1
 997.200195312 729 l 1
 997.200195312 721.5 997.200195312 581.5 997.200195312 589 c 1
 665.567780848 589 l 1
497.185708342 532.471679688 m 1
 467.436813654 578.974609375 433.1455096 598 378.399411287 598 c 0
 269.597844253 598 195.322774036 505.412109375 195.322774036 359 c 0
 195.322774036 212.587890625 269.597844253 120 378.399411287 120 c 0
 433.1455096 120 467.436813654 139.025390625 497.185708342 185.528320312 c 1
 497.185708342 190.805664062 497.185708342 527.194335938 497.185708342 532.471679688 c 1
EndSplineSet
EndChar

StartChar: ordmasculine
Encoding: 186 186 143
Width: 396
GlyphClass: 1
Flags: HW
LayerCount: 2
Fore
SplineSet
34.150390625 347.5 m 1
 365.150390625 347.5 l 1
 365.150390625 254.5 l 1
 34.150390625 254.5 l 1
 34.150390625 347.5 l 1
24.150390625 549.5 m 0
 24.150390625 659.807617188 87.4423828125 729 199.150390625 729 c 0
 311.865234375 729 374.150390625 660.713867188 374.150390625 547.5 c 0
 374.150390625 440.0546875 309.790039062 371 199.150390625 371 c 0
 88.470703125 371 24.150390625 440.118164062 24.150390625 549.5 c 0
275.150390625 548.5 m 0
 275.150390625 610.61328125 245.720600329 646 199.150390625 646 c 0
 152.513466283 646 123.150390625 610.514648438 123.150390625 550.5 c 0
 123.150390625 490.413085938 152.628803454 454 199.150390625 454 c 0
 244.590974507 454 275.150390625 490.592773438 275.150390625 548.5 c 0
EndSplineSet
EndChar

StartChar: ae
Encoding: 230 230 144
Width: 929
GlyphClass: 1
Flags: HW
LayerCount: 2
Fore
SplineSet
738.68835219 161.27734375 m 1
 893.182617188 161.27734375 l 1
 893.182617188 163.000976562 890.405273438 153.981445312 890.405273438 151.977539062 c 2
 858.397460938 44.826171875 757.561016579 -23 629.672079527 -23 c 0
 541.145127795 -23 468.948808105 11.181640625 423.894511077 76.0498046875 c 1
 360.411730048 6.171875 292.874302383 -24 206.639281428 -24 c 0
 97.1845703125 -24 28.349609375 41.345703125 28.349609375 142.875 c 0
 28.349609375 252.067382812 95.025390625 299.546875 195.662823772 315.451171875 c 0
 195.698838398 315.45703125 255.898286031 325.125 256.033340879 325.145507812 c 0
 330.879736793 335.876953125 328.56779789 335.383789062 348.378843365 344.760742188 c 0
 361.928345962 351.260742188 369.982616886 364.311523438 369.982616886 376.983398438 c 0
 369.982616886 405.561523438 347.040299768 421 286.236606745 421 c 0
 206.603266802 421 196.936340961 391.297851562 190.759832616 347 c 1
 44.2275390625 347 l 1
 45.2451171875 410.08203125 55.625 549 288.387480237 549 c 0
 369.942600635 549 431.045415135 533.216796875 472.068074872 501.135742188 c 1
 514.897468342 532.861328125 569.174510824 549 630.696495553 549 c 0
 748.27224431 549 838.151367188 490.333007812 876.256835938 390.638671875 c 0
 889.6796875 354.29296875 897.700195312 302.838867188 897.700195312 249.30078125 c 0
 897.700195312 239.900390625 897.63671875 236.5078125 896.1015625 218.5 c 1
 528.815120448 218.5 l 1
 529.359341462 179.15625 534.554451251 159.078125 548.032925002 139.510742188 c 0
 566.985621893 111.69921875 600.276141525 95.3251953125 637.867407737 95.3251953125 c 0
 684.366291426 95.3251953125 725.971187615 121.141601562 737.045685085 156.09375 c 2
 737.045685085 157.973632812 738.68835219 163.000976562 738.68835219 161.27734375 c 1
184.204170292 162.5 m 0
 184.204170292 126.436523438 210.391805368 104 258.270249311 104 c 0
 284.725993269 104 369.982616886 107.41796875 369.982616886 223.5 c 2
 369.982616886 231 369.982616886 256.704101562 369.982616886 249.204101562 c 1
 355.614781956 242.6953125 341.212933213 238.588867188 315.267396456 235.071289062 c 0
 263.636428573 228.071289062 263.636428573 228.071289062 263.636428573 228.071289062 c 2
 208.442013537 221.293945312 184.204170292 198.672851562 184.204170292 162.5 c 0
734.888809155 326.5 m 1
 726.24629934 399.762695312 691.421156481 434.5 631.72091158 434.5 c 0
 573.042081485 434.5 538.224941876 399.791015625 530.49880421 326.5 c 1
 734.888809155 326.5 l 1
EndSplineSet
EndChar

StartChar: dotlessi
Encoding: 305 305 145
Width: 296
GlyphClass: 1
Flags: HW
LayerCount: 2
Fore
SplineSet
70.349609375 540 m 1
 225.349609375 540 l 1
 225.349609375 532.703125 225.349609375 7.296875 225.349609375 0 c 1
 70.349609375 0 l 1
 70.349609375 7.296875 70.349609375 532.703125 70.349609375 540 c 1
EndSplineSet
EndChar

StartChar: lslash
Encoding: 322 322 146
Width: 294
GlyphClass: 1
Flags: HW
LayerCount: 2
Fore
SplineSet
56 376.609375 m 1
 56 376.365234375 56 721.651367188 56 729 c 1
 211 729 l 1
 211 721.651367188 211 452.897460938 211 454.716796875 c 1
 211 452.897460938 267 491.30078125 267 493.91015625 c 1
 267 491.30078125 267 397.758789062 267 398.443359375 c 1
 267 397.758789062 211 359.35546875 211 359.249023438 c 1
 211 359.35546875 211 7.3486328125 211 0 c 1
 56 0 l 1
 56 7.3486328125 56 282.823242188 56 281.142578125 c 1
 56 282.823242188 0 244.418945312 0 241.948242188 c 1
 0 244.418945312 0 337.961914062 0 337.416015625 c 1
 0 337.961914062 56 376.365234375 56 376.609375 c 1
EndSplineSet
EndChar

StartChar: oslash
Encoding: 248 248 147
Width: 654
GlyphClass: 1
Flags: HW
LayerCount: 2
Fore
SplineSet
574.625976562 437.603515625 m 1
 605.318359375 388.638671875 619.625976562 332.024414062 619.625976562 263.138671875 c 0
 619.625976562 87.2109375 513.659312807 -23 331.33797707 -23 c 0
 254.72911564 -23 182.295892885 -2.7138671875 137.943180481 32.25390625 c 1
 137.943180481 39.75390625 65.5 -33.4501953125 65.5 -40.9501953125 c 1
 65.5 -33.63671875 11.5498046875 14.091796875 11.5498046875 7.9912109375 c 1
 11.5498046875 14.091796875 87.642578125 88.38671875 87.642578125 84.17578125 c 1
 54.98046875 132.498046875 39.775390625 191.088867188 39.775390625 262.77734375 c 0
 39.775390625 439.740234375 144.766908924 549 330.246870708 549 c 0
 408.554813116 549 472.039948715 529.861328125 525.410782078 489.620117188 c 1
 525.410782078 482.120117188 593.923828125 552.553710938 593.923828125 560.053710938 c 1
 593.923828125 552.741210938 647.819335938 503.897460938 647.819335938 509.953125 c 1
 647.819335938 503.897460938 574.625976562 433.36328125 574.625976562 437.603515625 c 1
248.438253095 139.2578125 m 1
 272.211177026 116.1953125 299.876559468 105 331.33797707 105 c 0
 406.440604229 105 462.139807821 169.966796875 462.139807821 267.5 c 0
 462.139807821 289.477539062 459.170983532 309.986328125 453.234349937 329.71875 c 1
 453.234349937 337.21875 248.438253095 146.7578125 248.438253095 139.2578125 c 1
328.064657983 422 m 1
 251.895284045 422 197.262827232 357.112304688 197.262827232 258.5 c 0
 197.262827232 233.026367188 201.067997235 209.744140625 207.901875504 189.90234375 c 1
 207.901875504 182.40234375 414.416337994 375.385742188 414.416337994 382.885742188 c 1
 387.75680337 410.831054688 341.099065339 416.095703125 328.064657983 422 c 1
EndSplineSet
EndChar

StartChar: oe
Encoding: 339 339 148
Width: 998
GlyphClass: 1
Flags: HW
LayerCount: 2
Fore
SplineSet
817.024972988 161.27734375 m 1
 971.208984375 161.27734375 l 1
 971.208984375 163.000976562 968.400390625 153.96484375 968.400390625 151.959960938 c 2
 936.3671875 45.7265625 834.541232847 -23 702.486909959 -23 c 0
 625.460459127 -23 560.172037313 1.7109375 513.831463973 48.8359375 c 1
 460.926533082 0.8681640625 392.787903134 -23 308.46883016 -23 c 0
 128.599609375 -23 24.150390625 86.201171875 24.150390625 263 c 0
 24.150390625 439.798828125 128.599609375 549 308.46883016 549 c 0
 393.595977544 549 462.654415647 525.276367188 513.864385523 476.43359375 c 1
 559.236267194 524.365234375 623.646781007 549 703.559354392 549 c 0
 825.270324835 549 916.116210938 489.500976562 953.298828125 390.522460938 c 0
 966.633789062 352.40625 974.700195312 302.838867188 974.700195312 249.30078125 c 0
 974.700195312 238.209960938 974.563476562 235.659179688 973.1015625 218.5 c 1
 595.609591859 218.5 l 1
 597.181845278 179.249023438 603.476844692 158.157226562 616.727269766 138.474609375 c 0
 634.328327557 111.950195312 669.184268052 95.3251953125 709.99501861 95.3251953125 c 0
 760.051736612 95.3251953125 802.753979863 121.279296875 815.262173628 156.334960938 c 2
 815.262173628 158.208007812 817.024972988 163.000976562 817.024972988 161.27734375 c 1
437.032471123 261.090820312 m 0
 437.032471123 360.203125 385.438416497 421 308.46883016 421 c 0
 232.529788102 421 179.905189198 360.100585938 179.905189198 263 c 0
 179.905189198 165.899414062 232.529788102 105 308.46883016 105 c 0
 383.335427786 105 437.032471123 166.947265625 437.032471123 261.090820312 c 0
789.58037174 392.630859375 m 0
 770.771192825 418.471679688 737.611210968 434.5 704.631798824 434.5 c 0
 666.498667668 434.5 631.610803245 414.79296875 614.837772319 384.439453125 c 0
 606.545532203 368.978515625 601.605304454 352.983398438 598.393956893 326.5 c 1
 811.876242089 326.5 l 1
 807.668269422 359.497070312 801.571796931 376.291992188 789.58037174 392.630859375 c 0
EndSplineSet
EndChar

StartChar: germandbls
Encoding: 223 223 149
Width: 654
GlyphClass: 1
Flags: HW
LayerCount: 2
Fore
SplineSet
319.669953362 341.5 m 2
 297.441928775 341.5 l 1
 297.441928775 451.5 l 1
 315.192122017 451.5 l 2
 379.540292926 452.428710938 415.515865271 482.173828125 415.515865271 529.106445312 c 0
 415.515865271 573.802734375 380.007268233 601 315.255753817 601 c 0
 257.542737536 601 227.132895052 575.551757812 227.132895052 531.241210938 c 2
 227.132895052 525.622070312 227.132895052 7.3173828125 227.132895052 0 c 1
 70.349609375 0 l 1
 70.349609375 7.337890625 70.349609375 510.314453125 70.349609375 514.115234375 c 2
 70.349609375 591.47265625 88.8486328125 642.30078125 134.188476562 677.374023438 c 0
 175.208007812 709.979492188 247.774229917 729 325.187446213 729 c 0
 476.489498142 729 576.75 651.943359375 576.75 539.5 c 0
 576.75 479.709960938 551.889648438 434.439453125 504.694335938 409.165039062 c 1
 528.504882812 402.041015625 545.401367188 391.328125 566.322265625 372.5234375 c 0
 604.994140625 337.919921875 619.75 298.200195312 619.75 236.663085938 c 0
 619.75 85.708984375 529.944335938 -17 384.775547955 -17 c 0
 366.745169529 -17 359.489091691 -17 297.441928775 -10.1845703125 c 1
 297.441928775 -2.6845703125 297.441928775 122.404296875 297.441928775 114.904296875 c 1
 308.283966439 116.541992188 311.316740133 117 319.546795039 117 c 0
 319.588874133 117 319.629926907 117 319.669953362 117 c 2
 341.628055958 117 l 1
 413.778306603 118.87890625 462.966714323 164.969726562 462.966714323 228.766601562 c 0
 462.966714323 299.763671875 411.594299016 341.5 319.669953362 341.5 c 2
EndSplineSet
EndChar

StartChar: onesuperior
Encoding: 185 185 150
Width: 353
GlyphClass: 1
Flags: HW
LayerCount: 2
Fore
SplineSet
139.549804688 284 m 1
 139.549804688 291.305664062 139.549804688 565.5 139.549804688 565.5 c 1
 32.5498046875 565.5 l 1
 32.5498046875 641.5 l 1
 40.0498046875 641.5 l 2
 116.764648438 641.5 158.091796875 662.950195312 170.826171875 703.5234375 c 2
 170.826171875 696.0234375 172.359375 701.5 172.359375 709 c 1
 249.549804688 709 l 1
 249.549804688 701.755859375 249.549804688 291.244140625 249.549804688 284 c 1
 139.549804688 284 l 1
EndSplineSet
EndChar

StartChar: logicalnot
Encoding: 172 172 151
Width: 631
GlyphClass: 1
Flags: HW
LayerCount: 2
Fore
SplineSet
42 290.5 m 1
 42 382.5 l 1
 591.349609375 382.5 l 1
 591.349609375 78.5 l 1
 499.349609375 78.5 l 1
 499.349609375 290.5 l 1
 42 290.5 l 1
EndSplineSet
EndChar

StartChar: mu
Encoding: 181 181 152
Width: 652
GlyphClass: 1
Flags: HW
LayerCount: 2
Fore
SplineSet
565.150390625 540 m 1
 565.150390625 532.743164062 565.150390625 160.58203125 565.150390625 155.377929688 c 2
 565.150390625 95.751953125 572.717773438 92 587.650390625 92 c 0
 593.2109375 92 593.783203125 92.171875 615.150390625 98.58203125 c 1
 615.150390625 106.08203125 615.150390625 4.453125 615.150390625 -3.046875 c 1
 595.669921875 -13.2109375 575.524414062 -23 537.650390625 -23 c 0
 491.854492188 -23 464.934570312 -9.0732421875 441.201171875 26.732421875 c 1
 407.392504576 -4.5966796875 322.911872385 -24.3642578125 313.485743822 -24.3642578125 c 0
 312.92167887 -24.3642578125 312.626417854 -24.29296875 312.626417854 -24.150390625 c 0
 312.626417854 -23.93359375 313.29736941 -23.552734375 314.731343162 -23 c 1
 272.157667854 -23 238.974139481 -14.259765625 209.900390625 6.4033203125 c 1
 209.900390625 13.9033203125 209.900390625 -212.5 209.900390625 -220 c 1
 60.900390625 -220 l 1
 60.900390625 -212.645507812 60.900390625 532.645507812 60.900390625 540 c 1
 215.900390625 540 l 1
 215.900390625 532.752929688 215.900390625 213.9375 215.900390625 210.037109375 c 2
 215.900390625 172.743164062 220.095425275 157.768554688 234.916681649 139.787109375 c 0
 249.094501831 121.729492188 273.683712245 111 303.352682074 111 c 0
 366.195655727 111 410.150390625 150.104492188 410.150390625 206.171875 c 2
 410.150390625 210.204101562 410.150390625 532.752929688 410.150390625 540 c 1
 565.150390625 540 l 1
EndSplineSet
EndChar

StartChar: trademark
Encoding: 8482 8482 153
Width: 1055
GlyphClass: 1
Flags: HW
LayerCount: 2
Fore
SplineSet
211.938998711 273 m 1
 211.938998711 280.202148438 211.938998711 628.797851562 211.938998711 636 c 1
 74.5498046875 636 l 1
 74.5498046875 628.5 74.5498046875 721.5 74.5498046875 729 c 1
 467.304826978 729 l 1
 467.304826978 721.5 467.304826978 628.5 467.304826978 636 c 1
 324.457312978 636 l 1
 324.457312978 628.797851562 324.457312978 280.202148438 324.457312978 273 c 1
 211.938998711 273 l 1
803.589143931 273 m 1
 690.679253143 273 l 1
 690.679253143 280.5 613.016243738 577.395507812 613.016243738 569.895507812 c 1
 613.016243738 577.395507812 613.016243738 280.5 613.016243738 273 c 1
 504.589504535 273 l 1
 504.589504535 280.260742188 504.589504535 721.739257812 504.589504535 729 c 1
 504.589504535 721.5 660.695679625 721.5 660.695679625 729 c 1
 660.695679625 721.84375 747.029311969 424.014648438 747.029311969 416.858398438 c 1
 747.029311969 424.014648438 831.357113568 721.84375 831.357113568 729 c 1
 984.75 729 l 1
 984.75 721.739257812 984.75 280.260742188 984.75 273 c 1
 878.75 273 l 1
 878.75 280.5 878.75 576.002929688 878.75 568.502929688 c 1
 878.75 576.002929688 803.589143931 280.5 803.589143931 273 c 1
EndSplineSet
EndChar

StartChar: Eth
Encoding: 208 208 154
Width: 769
GlyphClass: 1
Flags: HW
LayerCount: 2
Fore
SplineSet
0 426.5 m 1
 77 426.5 l 1
 77 426.5 77 721.681640625 77 729 c 1
 384.402173913 729 l 2
 509.929725817 729 585.201719703 704.103515625 636.8671875 643.919921875 c 1
 693.19140625 574.684570312 726.5 472.266601562 726.5 364.990234375 c 0
 726.5 257.724609375 693.245117188 154.357421875 636.859375 86.0498046875 c 0
 586.25973145 24.8388671875 508.821332557 0 384.402173913 0 c 2
 77 0 l 1
 77 7.333984375 77 331.5 77 331.5 c 1
 0 331.5 l 1
 0 426.5 l 1
245.881230117 589 m 1
 245.881230117 581.831054688 245.881230117 426.5 245.881230117 426.5 c 1
 408.391834571 426.5 l 1
 408.391834571 331.5 l 1
 245.881230117 331.5 l 1
 245.881230117 331.5 245.881230117 147.217773438 245.881230117 140 c 1
 384.402173913 140 l 2
 453.689851828 140 491.554580834 154.869140625 517.871867337 189.224609375 c 0
 550.088828871 230.06640625 566.259278897 287.502929688 566.259278897 364.016601562 c 0
 566.259278897 441.510742188 550.149286685 498.85546875 517.936355672 539.693359375 c 0
 491.619069169 574.048828125 453.689851828 589 384.402173913 589 c 2
 245.881230117 589 l 1
EndSplineSet
EndChar

StartChar: onehalf
Encoding: 189 189 155
Width: 885
GlyphClass: 1
Flags: HW
LayerCount: 2
Fore
SplineSet
131.150390625 269 m 1
 131.150390625 261.5 131.150390625 550.5 131.150390625 558 c 1
 24.150390625 558 l 1
 24.150390625 550.5 24.150390625 626.5 24.150390625 634 c 1
 31.650390625 634 l 2
 108.365234375 634 149.830495396 658.043945312 162.882225124 703.5234375 c 2
 162.882225124 696.0234375 164.453637369 701.5 164.453637369 709 c 1
 243.567738052 709 l 1
 243.567738052 701.5 243.567738052 261.5 243.567738052 269 c 1
 131.150390625 269 l 1
142.452148438 -20 m 1
 142.452148438 -12.650390625 600.330364418 707.650390625 600.330364418 715 c 1
 600.330364418 707.5 709.675634174 707.5 709.675634174 715 c 1
 709.675634174 707.650390625 249.924450898 -12.650390625 249.924450898 -20 c 1
 249.924450898 -12.5 142.452148438 -12.5 142.452148438 -20 c 1
547.815168453 290.711914062 m 0
 547.815168453 290.811523438 547.815168453 290.908203125 547.815168453 291 c 0
 547.815168453 343.752929688 568.133428689 441.5 718.720763128 441.5 c 0
 765.14453125 441.5 802.05859375 431.834960938 829.283203125 412.55859375 c 0
 863.508789062 388.32421875 881.049804688 349.547851562 881.049804688 300 c 0
 881.049804688 237.03125 856.209960938 203.102539062 775.451171875 147.821289062 c 0
 715.352736246 107.140625 715.352736246 107.140625 712.801443372 105.17578125 c 0
 706.97820997 100.438476562 702.336038001 96.3427734375 694.925377962 88.5 c 1
 879.049804688 88.5 l 1
 879.049804688 -7.5 l 1
 542.129058285 -7.5 l 1
 545.390989818 74.328125 559.497667639 116.98828125 653.222899501 175.30859375 c 0
 760.497308153 242.770507812 771.049804688 254.913085938 771.049804688 296 c 0
 771.049804688 332.34375 751.448175601 352.5 713.339927313 352.5 c 0
 676.974245088 352.5 656.456805847 331.010742188 656.456805847 289 c 1
 656.474822039 288.702148438 l 2
 656.653983053 286.279296875 657.582817806 280.241210938 659.848854317 265.5 c 1
 549.740899127 265.5 l 1
 548.304608318 276.708007812 547.815168453 280.52734375 547.815168453 290.711914062 c 0
EndSplineSet
Ligature2: "'frac' Diagonal Fractions lookup 7 subtable" onesuperior fraction twosuperior
Ligature2: "'frac' Diagonal Fractions lookup 7 subtable" onesuperior slash twosuperior
Ligature2: "'frac' Diagonal Fractions lookup 7 subtable" one fraction two
Ligature2: "'frac' Diagonal Fractions lookup 7 subtable" one slash two
EndChar

StartChar: plusminus
Encoding: 177 177 156
Width: 622
GlyphClass: 1
Flags: HW
LayerCount: 2
Fore
SplineSet
58.7998046875 118 m 1
 565.400390625 118 l 1
 565.400390625 125.5 565.400390625 -8.5 565.400390625 -16 c 1
 58.7998046875 -16 l 1
 58.7998046875 -8.5 58.7998046875 125.5 58.7998046875 118 c 1
383.094006574 439.5 m 1
 565.400390625 439.5 l 1
 565.400390625 305.5 l 1
 383.094006574 305.5 l 1
 383.094006574 129.5 l 1
 241.105153955 129.5 l 1
 241.105153955 305.5 l 1
 58.7998046875 305.5 l 1
 58.7998046875 439.5 l 1
 241.105153955 439.5 l 1
 241.105153955 439.5 241.105153955 600.819335938 241.105153955 608 c 1
 383.094006574 608 l 1
 383.094006574 600.819335938 383.094006574 439.5 383.094006574 439.5 c 1
EndSplineSet
EndChar

StartChar: Thorn
Encoding: 222 222 157
Width: 711
GlyphClass: 1
Flags: HW
LayerCount: 2
Fore
SplineSet
244.799804688 729 m 1
 244.799804688 721.96875 244.799804688 616.5 244.799804688 616.5 c 1
 426.55973268 616.5 l 2
 517.932408563 616.5 573.606445312 599.103515625 615.387695312 558.366210938 c 0
 659.133789062 515.662109375 679.650390625 457.346679688 679.650390625 382 c 0
 679.650390625 229.711914062 591.440429688 132.5 443.097625087 132.5 c 2
 244.799804688 132.5 l 1
 244.799804688 132.5 244.799804688 7.0986328125 244.799804688 0 c 1
 79.7998046875 0 l 1
 79.7998046875 7.3486328125 79.7998046875 721.651367188 79.7998046875 729 c 1
 244.799804688 729 l 1
391.278280295 272.5 m 2
 482.430491963 272.5 512.399269461 310.734375 512.399269461 375 c 0
 512.399269461 437.639648438 483.157511166 476.5 391.278280295 476.5 c 2
 244.799804688 476.5 l 1
 244.799804688 272.5 l 1
 391.278280295 272.5 l 2
EndSplineSet
EndChar

StartChar: onequarter
Encoding: 188 188 158
Width: 887
GlyphClass: 1
Flags: HW
LayerCount: 2
Fore
SplineSet
131.150390625 269 m 1
 131.150390625 261.5 131.150390625 550.5 131.150390625 558 c 1
 24.150390625 558 l 1
 24.150390625 550.5 24.150390625 626.5 24.150390625 634 c 1
 31.650390625 634 l 2
 108.365234375 634 149.835710197 658.043945312 162.899422481 703.5234375 c 2
 162.899422481 696.0234375 164.472277411 701.5 164.472277411 709 c 1
 243.659011315 709 l 1
 243.659011315 701.5 243.659011315 261.5 243.659011315 269 c 1
 131.150390625 269 l 1
148.521324421 -20 m 1
 148.521324421 -12.650390625 609.687398976 707.650390625 609.687398976 715 c 1
 609.687398976 707.5 721.397166285 707.5 721.397166285 715 c 1
 721.397166285 707.650390625 256.462250808 -12.650390625 256.462250808 -20 c 1
 256.462250808 -12.5 148.521324421 -12.5 148.521324421 -20 c 1
813.150390625 175.5 m 1
 859.150390625 175.5 l 1
 859.150390625 85.5 l 1
 813.150390625 85.5 l 1
 813.150390625 -7.5 l 1
 702.219356142 -7.5 l 1
 702.219356142 85.5 l 1
 509.408379916 85.5 l 1
 509.408379916 169.283203125 l 1
 690.732506061 432.5 l 1
 813.150390625 432.5 l 1
 813.150390625 175.5 l 1
610.253426387 175.5 m 1
 702.219356142 175.5 l 1
 702.219356142 307.59375 l 1
 610.253426387 175.5 l 1
EndSplineSet
Ligature2: "'frac' Diagonal Fractions lookup 8 subtable" onesuperior fraction foursuperior
Ligature2: "'frac' Diagonal Fractions lookup 8 subtable" onesuperior slash foursuperior
Ligature2: "'frac' Diagonal Fractions lookup 8 subtable" one fraction four
Ligature2: "'frac' Diagonal Fractions lookup 8 subtable" one slash four
EndChar

StartChar: divide
Encoding: 247 247 159
Width: 628
GlyphClass: 1
Flags: HW
LayerCount: 2
Fore
SplineSet
52.5 298.5 m 1
 578.700195312 298.5 l 1
 578.700195312 164.5 l 1
 52.5 164.5 l 1
 52.5 298.5 l 1
238.984510765 343.5 m 1
 238.984510765 481.5 l 1
 392.215684548 481.5 l 1
 392.215684548 343.5 l 1
 238.984510765 343.5 l 1
238.984510765 -18.5 m 1
 238.984510765 119.5 l 1
 385.672558325 119.5 l 1
 385.672558325 -18.5 l 1
 238.984510765 -18.5 l 1
EndSplineSet
EndChar

StartChar: brokenbar
Encoding: 166 166 160
Width: 300
GlyphClass: 1
Flags: HW
LayerCount: 2
Fore
SplineSet
105 729 m 1
 200 729 l 1
 200 721.5 200 317.5 200 325 c 1
 105 325 l 1
 105 317.5 105 721.5 105 729 c 1
105 204 m 1
 200 204 l 1
 200 211.5 200 -192.5 200 -200 c 1
 105 -200 l 1
 105 -192.5 105 211.5 105 204 c 1
EndSplineSet
EndChar

StartChar: degree
Encoding: 176 176 161
Width: 417
GlyphClass: 1
Flags: HW
LayerCount: 2
Fore
SplineSet
50.400390625 542.5 m 0
 50.400390625 625.548828125 121.787109375 693.5 209.900390625 693.5 c 0
 297.051757812 693.5 368.400390625 625.52734375 368.400390625 542.5 c 0
 368.400390625 453.333007812 296.954101562 383 207.900390625 383 c 0
 121.643554688 383 50.400390625 455.418945312 50.400390625 542.5 c 0
290.400390625 542.5 m 0
 290.400390625 583.13671875 253.802734375 615.5 209.900390625 615.5 c 0
 165.046875 615.5 128.400390625 582.225585938 128.400390625 541.5 c 0
 128.400390625 497.634765625 165.140625 461 207.900390625 461 c 0
 253.893554688 461 290.400390625 496.700195312 290.400390625 542.5 c 0
EndSplineSet
EndChar

StartChar: thorn
Encoding: 254 254 162
Width: 654
GlyphClass: 1
Flags: HW
LayerCount: 2
Fore
SplineSet
217.634209445 47.123046875 m 1
 217.634209445 54.623046875 217.634209445 -210.5 217.634209445 -218 c 1
 60.900390625 -218 l 1
 60.900390625 -210.6171875 60.900390625 721.6171875 60.900390625 729 c 1
 217.634209445 729 l 1
 217.634209445 721.5 217.634209445 469.734375 217.634209445 477.234375 c 1
 255.418590884 525.254882812 306.928957302 549 375.06486153 549 c 0
 520.596679688 549 618.700195312 425.321289062 618.700195312 262.025390625 c 0
 618.700195312 99.66015625 520.549804688 -23 375.06486153 -23 c 0
 306.992503529 -23 255.458563511 -0.0791015625 217.634209445 47.123046875 c 1
461.966376493 260.139648438 m 0
 461.966376493 357.529296875 411.910398716 417 339.799780499 417 c 0
 267.652264473 417 217.634209445 357.471679688 217.634209445 262.046875 c 0
 217.634209445 168.5859375 267.615366664 109 339.799780499 109 c 0
 410.925432201 109 461.966376493 168.693359375 461.966376493 260.139648438 c 0
EndSplineSet
EndChar

StartChar: threequarters
Encoding: 190 190 163
Width: 891
GlyphClass: 1
Flags: HW
LayerCount: 2
Fore
SplineSet
145.648861001 463.5 m 2
 137.983398438 463.5 l 1
 137.983398438 540.5 l 1
 156.360718741 540.5 l 2
 208.407332951 540.5 230.478765437 557.041015625 230.478765437 587.095703125 c 0
 230.478765437 613.797851562 211.842135185 630 181.118124527 630 c 0
 135.883789062 630 129.797851562 608.229492188 128.848632812 556 c 1
 24.51953125 556 l 1
 27.28125 602.034179688 30.6201171875 635.865234375 55.6337890625 666.192382812 c 0
 82.5263671875 700.552734375 128.047851562 718 184.347699581 718 c 0
 281.359088594 718 348.11298337 670.7265625 348.11298337 595.521484375 c 0
 348.11298337 560.37890625 331.017058638 530.20703125 299.680369762 508.666015625 c 1
 341.385536266 485.860351562 363.181663996 451.633789062 363.181663996 406.637695312 c 0
 363.181663996 319.030273438 290.373066826 263.5 183.270507157 263.5 c 0
 80.2509765625 263.5 20.0283203125 318.836914062 18.9833984375 413.916015625 c 2
 18.900390625 421.5 l 1
 125.657226562 421.5 l 1
 127.010742188 391.0546875 130.188476562 355.5 186.500082211 355.5 c 0
 221.70605428 355.5 245.547446063 377.500976562 245.547446063 408 c 0
 245.547446063 433.416015625 228.997125301 453.380859375 202.031274825 459.681640625 c 0
 193.205504934 461.490234375 174.157419213 463.5 145.648861001 463.5 c 2
648.241217298 715 m 1
 758.459960938 715 l 1
 758.459960938 707.650390625 295.252468193 -12.650390625 295.252468193 -20 c 1
 295.252468193 -12.5 183.634910542 -12.5 183.634910542 -20 c 1
 183.634910542 -12.650390625 648.241217298 707.650390625 648.241217298 715 c 1
824.682617188 175.5 m 1
 870.682617188 175.5 l 1
 870.682617188 85.5 l 1
 824.682617188 85.5 l 1
 824.682617188 -7.5 l 1
 713.777764503 -7.5 l 1
 713.777764503 85.5 l 1
 521.10448033 85.5 l 1
 521.10448033 169.283203125 l 1
 702.30005899 432.5 l 1
 824.682617188 432.5 l 1
 824.682617188 175.5 l 1
621.878033959 175.5 m 1
 713.777764503 175.5 l 1
 713.777764503 307.59375 l 1
 621.878033959 175.5 l 1
EndSplineSet
Ligature2: "'frac' Diagonal Fractions lookup 10 subtable" threesuperior fraction foursuperior
Ligature2: "'frac' Diagonal Fractions lookup 10 subtable" threesuperior slash foursuperior
Ligature2: "'frac' Diagonal Fractions lookup 10 subtable" three fraction four
Ligature2: "'frac' Diagonal Fractions lookup 10 subtable" three slash four
EndChar

StartChar: twosuperior
Encoding: 178 178 164
Width: 363
GlyphClass: 1
Flags: HW
LayerCount: 2
Fore
SplineSet
158.916436502 380 m 1
 347.6328125 380 l 1
 347.6328125 387.5 347.6328125 291.5 347.6328125 284 c 1
 7.349609375 284 l 1
 10.376953125 365.731445312 24.0078125 408.415039062 115.021484375 466.772460938 c 0
 228.390006009 527.528320312 239.6328125 539.552734375 239.6328125 577.282226562 c 0
 239.6328125 610.716796875 218.4555648 629 178.657147348 629 c 0
 139.644925162 629 118.6328125 607.802734375 118.6328125 565.5 c 1
 118.6328125 558 118.650390625 557.676757812 118.650390625 565.176757812 c 2
 118.818359375 562.741210938 119.6640625 556.8203125 121.78125 542 c 1
 14.5107421875 542 l 1
 13.1103515625 553.208007812 12.6328125 557.02734375 12.6328125 567.211914062 c 0
 12.6328125 567.311523438 12.6328125 567.408203125 12.6328125 567.5 c 0
 12.6328125 663.686523438 73.001953125 718 184.516419204 718 c 0
 291.083007812 718 349.6328125 669.479492188 349.6328125 583.728515625 c 0
 349.6328125 524.005859375 324.802734375 491.80078125 244.46875 439.380859375 c 0
 243.885742188 438.953125 181.939255098 399.224609375 178.495788494 396.791015625 c 0
 172.129552295 392.034179688 167.061053261 387.92578125 158.916436502 380 c 1
EndSplineSet
EndChar

StartChar: registered
Encoding: 174 174 165
Width: 787
GlyphClass: 1
Flags: HW
LayerCount: 2
Fore
SplineSet
591.619165237 462 m 0
 591.619165237 413.21875 571.398054796 378.96875 529.148998933 354.368164062 c 1
 574.13939044 331.576171875 574.865333018 308.916992188 577.603660613 195 c 0
 577.603660613 176.209960938 582.647156697 173.403320312 597.111863358 165.352539062 c 1
 597.111863358 132.5 l 1
 480.189987645 132.5 l 1
 465.176813319 158.369140625 461.579186291 168.603515625 461.530054818 221 c 0
 461.530054818 221.255859375 461.530054818 221.521484375 461.530054818 221.794921875 c 0
 461.530054818 227.890625 461.55311653 238.297851562 462.60793917 247.43359375 c 1
 462.60793917 264 l 2
 462.60793917 286.385742188 454.50425421 305.5 404.545567854 305.5 c 2
 314.430425302 305.5 l 1
 321.001007775 132.5 l 1
 206.852553567 132.5 l 1
 200.059375442 590.5 l 1
 458.44981228 590.5 l 2
 540.817222378 590.5 591.619165237 541.805664062 591.619165237 462 c 0
416.404301091 401.5 m 2
 468.639078125 401.5 478.009151864 414.537109375 478.009151864 448 c 0
 478.009151864 481.461914062 468.640080809 494.5 416.404301091 494.5 c 2
 314.140649881 494.5 l 1
 314.140649881 401.5 l 1
 416.404301091 401.5 l 2
-14.7001953125 360.990234375 m 2
 -14.7001953125 571.201171875 167.148307458 743 393.764718968 743 c 0
 620.331999006 743 801.099609375 572.158203125 801.099609375 360.990234375 c 2
 801.099609375 360.98046875 801.099609375 360.748046875 801.099609375 360.752929688 c 1
 794.173828125 146.984375 618.224359092 -22 391.660087103 -22 c 0
 175.107606049 -22 -1.6611328125 151.950195312 -14.685546875 360.53515625 c 2
 -14.685546875 360.534179688 -14.7001953125 360.756835938 -14.7001953125 360.76171875 c 1
 -14.7001953125 360.756835938 -14.7001953125 360.98046875 -14.7001953125 360.990234375 c 2
708.099609375 360.987304688 m 0
 708.099609375 523.559570312 564.74926304 656 392.686834616 656 c 0
 220.238373193 656 78.2998046875 523.598632812 78.2998046875 360.987304688 c 0
 78.2998046875 199.4765625 227.85876489 65 392.694856081 65 c 0
 565.80408568 65 708.099609375 195.458984375 708.099609375 360.987304688 c 0
EndSplineSet
EndChar

StartChar: minus
Encoding: 8722 8722 166
Width: 629
GlyphClass: 1
Flags: HW
LayerCount: 2
Fore
SplineSet
42 298.5 m 1
 589.200195312 298.5 l 1
 589.200195312 164.5 l 1
 42 164.5 l 1
 42 298.5 l 1
EndSplineSet
EndChar

StartChar: eth
Encoding: 240 240 167
Width: 655
GlyphClass: 1
Flags: HW
LayerCount: 2
Fore
SplineSet
390.567131287 651.998046875 m 1
 545.662109375 552.3984375 613.349609375 431.189453125 613.349609375 269.989257812 c 0
 613.349609375 182.802734375 593.016601562 116.349609375 550.596679688 64.7333984375 c 1
 501.86328125 7.9306640625 421.321434563 -23 325.049804688 -23 c 0
 140.169921875 -23 36.75 86.1875 36.75 264.750976562 c 0
 36.75 373.5234375 74.6572265625 451.533203125 153.3671875 496.915039062 c 0
 195.837575722 520.982421875 245.508090596 534 294.279147632 534 c 0
 318.063674776 534 337.924317103 531.169921875 367.351920069 522.154296875 c 1
 342.815119097 553.49609375 315.837516628 577.076171875 283.312916788 594.883789062 c 1
 283.312916788 587.383789062 197.71621607 540.853515625 197.71621607 548.353515625 c 1
 197.71621607 540.853515625 141.60546875 588.05859375 141.60546875 595.55859375 c 1
 141.60546875 588.05859375 213.929965709 630.729492188 213.929965709 638.229492188 c 1
 192.431901273 649.719726562 181.762082671 655.422851562 119.4765625 685.383789062 c 1
 119.4765625 677.883789062 202.955557976 734.325195312 202.955557976 741.825195312 c 1
 245.635854493 727.844726562 255.048476344 723.084960938 304.420534754 697.626953125 c 0
 305.778920511 696.390625 315.448092268 692.793945312 315.56256872 692.751953125 c 2
 315.56256872 685.251953125 412.096881169 737.75390625 412.096881169 745.25390625 c 1
 412.096881169 737.75390625 482.917942678 694.630859375 482.917942678 702.130859375 c 1
 482.917942678 694.630859375 390.567131287 644.498046875 390.567131287 651.998046875 c 1
455.670502858 257.116210938 m 0
 455.670502858 356.078125 404.045711409 414 325.049804688 414 c 0
 246.042654743 414 194.429106517 355.049804688 194.429106517 259.9765625 c 0
 194.429106517 162.979492188 246.017101963 105 325.049804688 105 c 0
 403.003158006 105 455.670502858 164.056640625 455.670502858 257.116210938 c 0
EndSplineSet
EndChar

StartChar: multiply
Encoding: 215 215 168
Width: 627
GlyphClass: 1
Flags: HW
LayerCount: 2
Fore
SplineSet
459.946289062 449.115234375 m 1
 459.946289062 444.02734375 554.466796875 359.991210938 554.466796875 359.991210938 c 1
 424.349373212 230.979492188 l 1
 424.349373212 230.979492188 553.446289062 112.376953125 553.446289062 107.291992188 c 1
 553.446289062 112.590820312 458.926757812 18.21875 458.926757812 12.845703125 c 1
 458.926757812 17.998046875 318.680824329 136.560546875 318.680824329 136.560546875 c 1
 318.680824329 136.560546875 178.458984375 19.0556640625 178.458984375 13.88671875 c 1
 178.458984375 19.2783203125 83.939453125 113.629882812 83.939453125 108.322265625 c 1
 83.939453125 113.4140625 213.011231229 230.979492188 213.011231229 230.979492188 c 1
 82.9501953125 358.938476562 l 1
 82.9501953125 358.938476562 177.428710938 444.053710938 177.428710938 449.145507812 c 1
 177.428710938 443.974609375 318.70170868 325.421875 318.70170868 325.421875 c 1
 318.70170868 325.421875 459.946289062 443.944335938 459.946289062 449.115234375 c 1
EndSplineSet
EndChar

StartChar: threesuperior
Encoding: 179 179 169
Width: 363
GlyphClass: 1
Flags: HW
LayerCount: 2
Fore
SplineSet
125.3828125 548 m 1
 145.675097171 548 l 2
 222.614895933 548 225.709283378 578.2265625 225.709283378 590.690429688 c 0
 225.709283378 615.409179688 205.345886349 630 172.54788962 630 c 0
 123.321289062 630 117.193359375 608.038085938 116.248046875 556 c 1
 11.9189453125 556 l 1
 14.6806640625 602.034179688 18.01953125 635.865234375 43.033203125 666.192382812 c 0
 69.912109375 700.534179688 115.391601562 718 176.053036462 718 c 0
 274.413085938 718 336.3828125 673.0625 336.3828125 602.276367188 c 0
 336.3828125 569.151367188 320.515625 540.612304688 291.228515625 520.201171875 c 1
 330.168945312 496.950195312 350.3828125 462.119140625 350.3828125 416.5 c 0
 350.3828125 327.7421875 282.807617188 271 174.884654181 271 c 0
 67.591796875 271 7.427734375 326.374023438 6.3828125 421.416015625 c 2
 6.3828125 428.916015625 6.2998046875 436.5 6.2998046875 429 c 1
 113.056640625 429 l 1
 114.359375 399.685546875 117.318359375 363 178.389801022 363 c 0
 216.055296587 363 240.3828125 384.696289062 240.3828125 415.5 c 0
 240.3828125 441.149414062 223.95556896 460.977539062 195.065491479 467.19921875 c 0
 185.57352645 468.990234375 164.93857182 471 133.991274367 471 c 2
 125.3828125 471 l 1
 125.3828125 478.5 125.3828125 555.5 125.3828125 548 c 1
EndSplineSet
EndChar

StartChar: copyright
Encoding: 169 169 170
Width: 787
GlyphClass: 1
Flags: HW
LayerCount: 2
Fore
SplineSet
594.913777579 423.5 m 1
 487.994897515 423.5 l 1
 480.050805175 459.671875 466.871813666 501.5 393.964236933 501.5 c 0
 322.648887719 501.5 278.765372703 450.594726562 278.765372703 359 c 0
 278.765372703 267.295898438 320.51522263 218.5 390.729648785 218.5 c 0
 449.062528275 218.5 481.532739856 245.512695312 486.557079969 297.708007812 c 2
 487.210815702 304.5 l 1
 596.758675964 304.5 l 1
 596.373653692 296.637695312 l 2
 591.034477659 187.440429688 511.791078699 120.5 388.573925129 120.5 c 0
 251.024718559 120.5 168.905684507 213.985351562 168.905684507 360 c 0
 168.905684507 506.083007812 252.115614995 599.5 390.729648785 599.5 c 0
 464.756196496 599.5 525.382164358 573.68359375 562.048517104 526.418945312 c 0
 589.09532903 490.370117188 592.242685569 459.056640625 594.913777579 423.5 c 1
-14.7001953125 360.990234375 m 0
 -14.7001953125 571.203125 167.150023055 743 393.964236933 743 c 0
 620.780456135 743 801.549804688 572.16015625 801.549804688 360.990234375 c 0
 801.549804688 146.841796875 620.675176608 -22 388.573925129 -22 c 0
 167.025692946 -22 -14.7001953125 151.825195312 -14.7001953125 360.990234375 c 0
708.549804688 360.987304688 m 0
 708.549804688 523.57421875 566.075208362 656 392.886375104 656 c 0
 218.7500261 656 78.2998046875 523.626953125 78.2998046875 360.987304688 c 0
 78.2998046875 199.284179688 219.888047658 65 389.651786957 65 c 0
 567.188163367 65 708.549804688 195.477539062 708.549804688 360.987304688 c 0
EndSplineSet
EndChar

StartChar: Aacute
Encoding: 193 193 171
Width: 771
GlyphClass: 1
Flags: HW
LayerCount: 2
Fore
SplineSet
196.3203125 -0 m 1
 27.2998046875 -0 l 1
 27.2998046875 7.3486328125 301.036734122 721.651367188 301.036734122 729 c 1
 493.247490357 729 l 1
 493.247490357 721.651367188 759.094726562 7.3486328125 759.094726562 0 c 1
 759.094726562 7.5 589.139648438 7.5 589.139648438 0 c 1
 589.139648438 7.1171875 536.739301286 139.5 536.739301286 139.5 c 1
 249.813158509 139.5 l 1
 249.813158509 139.5 196.3203125 7.1171875 196.3203125 -0 c 1
393.840247663 534.29296875 m 1
 301.122022136 279.5 l 1
 486.558473189 279.5 l 1
 393.840247663 534.29296875 l 1
569.407656991 936 m 1
 569.407656991 928.5 418.100626566 763.5 418.100626566 771 c 1
 418.100626566 763.5 325.659587089 763.5 325.659587089 771 c 1
 325.659587089 763.5 409.719048436 928.5 409.719048436 936 c 1
 409.719048436 928.5 569.407656991 928.5 569.407656991 936 c 1
EndSplineSet
EndChar

StartChar: Acircumflex
Encoding: 194 194 172
Width: 771
GlyphClass: 1
Flags: HW
LayerCount: 2
Fore
SplineSet
196.3203125 -0 m 1
 27.2998046875 -0 l 1
 27.2998046875 7.3486328125 301.036734122 721.651367188 301.036734122 729 c 1
 493.247490357 729 l 1
 493.247490357 721.651367188 759.094726562 7.3486328125 759.094726562 0 c 1
 759.094726562 7.5 589.139648438 7.5 589.139648438 0 c 1
 589.139648438 7.1171875 536.739301286 139.5 536.739301286 139.5 c 1
 249.813158509 139.5 l 1
 249.813158509 139.5 196.3203125 7.1171875 196.3203125 -0 c 1
393.840247663 534.29296875 m 1
 301.122022136 279.5 l 1
 486.558473189 279.5 l 1
 393.840247663 534.29296875 l 1
203.500751087 771 m 1
 203.500751087 763.5 333.194377071 928.5 333.194377071 936 c 1
 333.194377071 928.5 457.873270846 928.5 457.873270846 936 c 1
 457.873270846 928.5 581.561199114 763.5 581.561199114 771 c 1
 581.561199114 763.5 478.693699815 763.5 478.693699815 771 c 1
 478.693699815 763.5 392.748764139 859.506835938 392.748764139 867.006835938 c 1
 392.748764139 859.506835938 306.804843796 763.5 306.804843796 771 c 1
 306.804843796 763.5 203.500751087 763.5 203.500751087 771 c 1
EndSplineSet
EndChar

StartChar: Adieresis
Encoding: 196 196 173
Width: 771
GlyphClass: 1
Flags: HW
LayerCount: 2
Fore
SplineSet
196.3203125 -0 m 1
 27.2998046875 -0 l 1
 27.2998046875 7.3486328125 301.036734122 721.651367188 301.036734122 729 c 1
 493.247490357 729 l 1
 493.247490357 721.651367188 759.094726562 7.3486328125 759.094726562 0 c 1
 759.094726562 7.5 589.139648438 7.5 589.139648438 0 c 1
 589.139648438 7.1171875 536.739301286 139.5 536.739301286 139.5 c 1
 249.813158509 139.5 l 1
 249.813158509 139.5 196.3203125 7.1171875 196.3203125 -0 c 1
393.840247663 534.29296875 m 1
 301.122022136 279.5 l 1
 486.558473189 279.5 l 1
 393.840247663 534.29296875 l 1
223.38199656 922 m 1
 359.063044256 922 l 1
 359.063044256 914.5 359.063044256 777.5 359.063044256 785 c 1
 223.38199656 785 l 1
 223.38199656 777.5 223.38199656 914.5 223.38199656 922 c 1
426.435499355 922 m 1
 562.116547051 922 l 1
 562.116547051 914.5 562.116547051 777.5 562.116547051 785 c 1
 426.435499355 785 l 1
 426.435499355 777.5 426.435499355 914.5 426.435499355 922 c 1
EndSplineSet
EndChar

StartChar: Agrave
Encoding: 192 192 174
Width: 771
GlyphClass: 1
Flags: HW
LayerCount: 2
Fore
SplineSet
196.3203125 -0 m 1
 27.2998046875 -0 l 1
 27.2998046875 7.3486328125 301.036734122 721.651367188 301.036734122 729 c 1
 493.247490357 729 l 1
 493.247490357 721.651367188 759.094726562 7.3486328125 759.094726562 0 c 1
 759.094726562 7.5 589.139648438 7.5 589.139648438 0 c 1
 589.139648438 7.1171875 536.739301286 139.5 536.739301286 139.5 c 1
 249.813158509 139.5 l 1
 249.813158509 139.5 196.3203125 7.1171875 196.3203125 -0 c 1
393.840247663 534.29296875 m 1
 301.122022136 279.5 l 1
 486.558473189 279.5 l 1
 393.840247663 534.29296875 l 1
219.365337191 936 m 1
 379.053945747 936 l 1
 379.053945747 928.5 463.114422428 763.5 463.114422428 771 c 1
 370.672367616 771 l 1
 370.672367616 763.5 219.365337191 928.5 219.365337191 936 c 1
EndSplineSet
EndChar

StartChar: Aring
Encoding: 197 197 175
Width: 771
GlyphClass: 1
Flags: HW
LayerCount: 2
Fore
SplineSet
196.3203125 -0 m 1
 27.2998046875 -0 l 1
 27.2998046875 7.3486328125 301.036734122 721.651367188 301.036734122 729 c 1
 493.247490357 729 l 1
 493.247490357 721.651367188 759.094726562 7.3486328125 759.094726562 0 c 1
 759.094726562 7.5 589.139648438 7.5 589.139648438 0 c 1
 589.139648438 7.1171875 536.739301286 139.5 536.739301286 139.5 c 1
 249.813158509 139.5 l 1
 249.813158509 139.5 196.3203125 7.1171875 196.3203125 -0 c 1
393.840247663 534.29296875 m 1
 301.122022136 279.5 l 1
 486.558473189 279.5 l 1
 393.840247663 534.29296875 l 1
287.790693142 851.5 m 0
 287.790693142 906.982421875 335.439279463 949 394.93274652 949 c 0
 453.523582086 949 499.889802184 906.768554688 499.889802184 850.5 c 0
 499.889802184 796.927734375 451.23400502 754 393.840247663 754 c 0
 335.297132772 754 287.790693142 797.068359375 287.790693142 851.5 c 0
431.893932309 851.5 m 0
 431.893932309 871.237304688 416.023254203 886 394.93274652 886 c 0
 372.429909923 886 355.78757835 870.916992188 355.78757835 851.5 c 0
 355.78757835 833.0546875 372.591347952 817 394.93274652 817 c 0
 414.803838657 817 431.893932309 832.89453125 431.893932309 851.5 c 0
EndSplineSet
EndChar

StartChar: Atilde
Encoding: 195 195 176
Width: 771
GlyphClass: 1
Flags: HW
LayerCount: 2
Fore
SplineSet
196.3203125 -0 m 1
 27.2998046875 -0 l 1
 27.2998046875 7.3486328125 301.036734122 721.651367188 301.036734122 729 c 1
 493.247490357 729 l 1
 493.247490357 721.651367188 759.094726562 7.3486328125 759.094726562 0 c 1
 759.094726562 7.5 589.139648438 7.5 589.139648438 0 c 1
 589.139648438 7.1171875 536.739301286 139.5 536.739301286 139.5 c 1
 249.813158509 139.5 l 1
 249.813158509 139.5 196.3203125 7.1171875 196.3203125 -0 c 1
393.840247663 534.29296875 m 1
 301.122022136 279.5 l 1
 486.558473189 279.5 l 1
 393.840247663 534.29296875 l 1
516.908822489 928 m 1
 600.375976562 928 l 1
 597.98046875 889.208984375 591.60546875 786 488.81759025 786 c 0
 470.086717645 786 449.676483414 790.2265625 426.209079982 798.416015625 c 0
 426.119730633 798.446289062 351.957740348 823.323242188 348.80309913 824.381835938 c 0
 336.074878241 828.262695312 319.190897292 829.68359375 317.422186317 830 c 0
 289.753332818 830 284.914253306 811.590820312 280.378758514 785 c 1
 197.950938118 785 l 1
 197.950938118 777.5 198.278890842 785.307617188 198.278890842 792.807617188 c 2
 201.640660096 872.842773438 242.099669828 924 308.689302791 924 c 0
 328.87311765 924 336.657679676 922.481445312 371.26633772 910.594726562 c 0
 397.597996986 902.208007812 423.967223591 893.857421875 450.274514852 885.447265625 c 0
 455.768484478 883.291015625 478.340363754 880 484.450640821 880 c 0
 510.358906012 880 514.166406677 907.901367188 516.908822489 928 c 1
EndSplineSet
EndChar

StartChar: Ccedilla
Encoding: 199 199 177
Width: 771
GlyphClass: 1
Flags: HW
LayerCount: 2
Fore
SplineSet
159.510742188 56.5576171875 m 0
 84.689453125 126.919921875 46.2001953125 230.107421875 46.2001953125 358.037109375 c 0
 46.2001953125 592.479492188 177.602937711 741 404.880831136 741 c 0
 525.115808661 741 623.232421875 699.268554688 680.936523438 623.017578125 c 0
 721.338867188 569.581054688 727.838867188 520.306640625 732.069335938 467 c 1
 573.635558633 467 l 1
 558.253071214 530.01171875 529.042005449 598 410.312440486 598 c 0
 287.597068439 598 212.75684689 510.049804688 212.75684689 356.060546875 c 0
 212.75684689 203.9140625 284.395288299 118 404.880831136 118 c 0
 502.532599545 118 561.62559949 167.9453125 572.068515087 257.349609375 c 2
 572.068515087 264.849609375 572.845469624 271.5 572.845469624 264 c 1
 734.823242188 264 l 1
 734.823242188 271.5 734.44140625 263.631835938 734.44140625 256.131835938 c 2
 726.299804688 88.220703125 607.699306635 -17.267578125 410.828726271 -22.8837890625 c 1
 410.828726271 -15.3837890625 400.029159242 -36.3125 400.029159242 -43.8125 c 1
 409.744627158 -41.8623046875 419.591439794 -41 430.951747744 -41 c 0
 485.181962011 -41 521.27246008 -71.00390625 521.27246008 -119.5 c 0
 521.27246008 -185.272460938 466.161225844 -220 374.463414634 -220 c 0
 317.912440196 -220 283.648644082 -211.1328125 213.283236115 -189.208984375 c 1
 213.283236115 -181.708984375 239.735052411 -115.06640625 239.735052411 -122.56640625 c 1
 297.953094451 -146.385742188 322.80957757 -155 357.082466781 -155 c 0
 390.092425989 -155 411.242967312 -138.064453125 411.242967312 -121.5 c 0
 411.242967312 -106.828125 395.827138541 -94 364.686315734 -94 c 0
 340.648211256 -94 337.852589405 -95.21875 293.612656622 -114.509765625 c 1
 293.612656622 -107.009765625 346.154586063 -13.6513671875 346.154586063 -21.1513671875 c 1
 252.174407755 -5.7333984375 208.677077813 13.068359375 159.510742188 56.5576171875 c 0
EndSplineSet
EndChar

StartChar: Eacute
Encoding: 201 201 178
Width: 712
GlyphClass: 1
Flags: HW
LayerCount: 2
Fore
SplineSet
249.972667223 589 m 1
 249.972667223 581.875 249.972667223 446.5 249.972667223 446.5 c 1
 625.700195312 446.5 l 1
 625.700195312 306.5 l 1
 249.972667223 306.5 l 1
 249.972667223 306.5 249.972667223 147.176757812 249.972667223 140 c 1
 671.700195312 140 l 1
 671.700195312 147.5 671.700195312 7.5 671.700195312 0 c 1
 82.9501953125 0 l 1
 82.9501953125 7.3486328125 82.9501953125 721.651367188 82.9501953125 729 c 1
 653.700195312 729 l 1
 653.700195312 721.5 653.700195312 581.5 653.700195312 589 c 1
 249.972667223 589 l 1
534.890273876 936 m 1
 534.890273876 928.5 382.820334445 763.5 382.820334445 771 c 1
 382.820334445 763.5 289.913195664 763.5 289.913195664 771 c 1
 289.913195664 763.5 374.396495348 928.5 374.396495348 936 c 1
 374.396495348 928.5 534.890273876 928.5 534.890273876 936 c 1
EndSplineSet
EndChar

StartChar: Ecircumflex
Encoding: 202 202 179
Width: 712
GlyphClass: 1
Flags: HW
LayerCount: 2
Fore
SplineSet
249.972667223 589 m 1
 249.972667223 581.875 249.972667223 446.5 249.972667223 446.5 c 1
 625.700195312 446.5 l 1
 625.700195312 306.5 l 1
 249.972667223 306.5 l 1
 249.972667223 306.5 249.972667223 147.176757812 249.972667223 140 c 1
 671.700195312 140 l 1
 671.700195312 147.5 671.700195312 7.5 671.700195312 0 c 1
 82.9501953125 0 l 1
 82.9501953125 7.3486328125 82.9501953125 721.651367188 82.9501953125 729 c 1
 653.700195312 729 l 1
 653.700195312 721.5 653.700195312 581.5 653.700195312 589 c 1
 249.972667223 589 l 1
182.634765625 771 m 1
 182.634765625 763.5 308.390537219 928.5 308.390537219 936 c 1
 434.862414414 936 l 1
 434.862414414 928.5 558.852539062 763.5 558.852539062 771 c 1
 454.689815221 771 l 1
 454.689815221 763.5 368.312554863 859.506835938 368.312554863 867.006835938 c 1
 368.312554863 859.506835938 281.934274052 763.5 281.934274052 771 c 1
 281.934274052 763.5 182.634765625 763.5 182.634765625 771 c 1
EndSplineSet
EndChar

StartChar: Edieresis
Encoding: 203 203 180
Width: 712
GlyphClass: 1
Flags: HW
LayerCount: 2
Fore
SplineSet
249.972667223 589 m 1
 249.972667223 581.875 249.972667223 446.5 249.972667223 446.5 c 1
 625.700195312 446.5 l 1
 625.700195312 306.5 l 1
 249.972667223 306.5 l 1
 249.972667223 306.5 249.972667223 147.176757812 249.972667223 140 c 1
 671.700195312 140 l 1
 671.700195312 147.5 671.700195312 7.5 671.700195312 0 c 1
 82.9501953125 0 l 1
 82.9501953125 7.3486328125 82.9501953125 721.651367188 82.9501953125 729 c 1
 653.700195312 729 l 1
 653.700195312 721.5 653.700195312 581.5 653.700195312 589 c 1
 249.972667223 589 l 1
200.950195312 922 m 1
 335.552953827 922 l 1
 335.552953827 914.5 335.552953827 777.5 335.552953827 785 c 1
 200.950195312 785 l 1
 200.950195312 777.5 200.950195312 914.5 200.950195312 922 c 1
403.26612974 922 m 1
 539.631298279 922 l 1
 539.631298279 914.5 539.631298279 777.5 539.631298279 785 c 1
 403.26612974 785 l 1
 403.26612974 777.5 403.26612974 914.5 403.26612974 922 c 1
EndSplineSet
EndChar

StartChar: Egrave
Encoding: 200 200 181
Width: 712
GlyphClass: 1
Flags: HW
LayerCount: 2
Fore
SplineSet
249.972667223 589 m 1
 249.972667223 581.875 249.972667223 446.5 249.972667223 446.5 c 1
 625.700195312 446.5 l 1
 625.700195312 306.5 l 1
 249.972667223 306.5 l 1
 249.972667223 306.5 249.972667223 147.176757812 249.972667223 140 c 1
 671.700195312 140 l 1
 671.700195312 147.5 671.700195312 7.5 671.700195312 0 c 1
 82.9501953125 0 l 1
 82.9501953125 7.3486328125 82.9501953125 721.651367188 82.9501953125 729 c 1
 653.700195312 729 l 1
 653.700195312 721.5 653.700195312 581.5 653.700195312 589 c 1
 249.972667223 589 l 1
353.786407128 771 m 1
 353.786407128 763.5 202.923828125 928.5 202.923828125 936 c 1
 202.923828125 928.5 362.228614379 928.5 362.228614379 936 c 1
 362.228614379 928.5 446.711914062 763.5 446.711914062 771 c 1
 446.711914062 763.5 353.786407128 763.5 353.786407128 771 c 1
EndSplineSet
EndChar

StartChar: Iacute
Encoding: 205 205 182
Width: 292
GlyphClass: 1
Flags: HW
LayerCount: 2
Fore
SplineSet
66.150390625 729 m 1
 231.150390625 729 l 1
 231.150390625 721.651367188 231.150390625 7.3486328125 231.150390625 0 c 1
 66.150390625 0 l 1
 66.150390625 7.3486328125 66.150390625 721.651367188 66.150390625 729 c 1
316.743164062 936 m 1
 316.743164062 928.5 178.143554688 763.5 178.143554688 771 c 1
 92.873046875 771 l 1
 92.873046875 763.5 169.873046875 928.5 169.873046875 936 c 1
 169.873046875 928.5 316.743164062 928.5 316.743164062 936 c 1
EndSplineSet
EndChar

StartChar: Icircumflex
Encoding: 206 206 183
Width: 291
GlyphClass: 1
Flags: HW
LayerCount: 2
Fore
SplineSet
69.1904296875 729 m 1
 234.190429688 729 l 1
 234.190429688 721.651367188 234.190429688 7.3486328125 234.190429688 0 c 1
 69.1904296875 0 l 1
 69.1904296875 7.3486328125 69.1904296875 721.651367188 69.1904296875 729 c 1
-19.9501953125 771 m 1
 -19.9501953125 763.5 98.849609375 928.5 98.849609375 936 c 1
 98.849609375 928.5 213.637695312 928.5 213.637695312 936 c 1
 213.637695312 928.5 326.9375 763.5 326.9375 771 c 1
 326.9375 763.5 231.142578125 763.5 231.142578125 771 c 1
 231.142578125 763.5 152.690429688 859.173828125 152.690429688 866.673828125 c 1
 152.690429688 859.173828125 74.23828125 763.5 74.23828125 771 c 1
 74.23828125 763.5 -19.9501953125 763.5 -19.9501953125 771 c 1
EndSplineSet
EndChar

StartChar: Idieresis
Encoding: 207 207 184
Width: 292
GlyphClass: 1
Flags: HW
LayerCount: 2
Fore
SplineSet
62.5498046875 729 m 1
 227.549804688 729 l 1
 227.549804688 721.651367188 227.549804688 7.3486328125 227.549804688 0 c 1
 62.5498046875 0 l 1
 62.5498046875 7.3486328125 62.5498046875 721.651367188 62.5498046875 729 c 1
-9.4501953125 922 m 1
 115.549804688 922 l 1
 115.549804688 914.5 115.549804688 777.5 115.549804688 785 c 1
 -9.4501953125 785 l 1
 -9.4501953125 777.5 -9.4501953125 914.5 -9.4501953125 922 c 1
176.549804688 922 m 1
 301.549804688 922 l 1
 301.549804688 914.5 301.549804688 777.5 301.549804688 785 c 1
 176.549804688 785 l 1
 176.549804688 777.5 176.549804688 914.5 176.549804688 922 c 1
EndSplineSet
EndChar

StartChar: Igrave
Encoding: 204 204 185
Width: 296
GlyphClass: 1
Flags: HW
LayerCount: 2
Fore
SplineSet
71.0927734375 729 m 1
 236.092773438 729 l 1
 236.092773438 721.651367188 236.092773438 7.3486328125 236.092773438 0 c 1
 71.0927734375 0 l 1
 71.0927734375 7.3486328125 71.0927734375 721.651367188 71.0927734375 729 c 1
128.099609375 771 m 1
 128.099609375 763.5 -10.5 928.5 -10.5 936 c 1
 -10.5 928.5 136.37109375 928.5 136.37109375 936 c 1
 136.37109375 928.5 213.37109375 763.5 213.37109375 771 c 1
 213.37109375 763.5 128.099609375 763.5 128.099609375 771 c 1
EndSplineSet
EndChar

StartChar: Ntilde
Encoding: 209 209 186
Width: 769
GlyphClass: 1
Flags: HW
LayerCount: 2
Fore
SplineSet
544.049804688 252.129882812 m 1
 544.049804688 244.629882812 544.049804688 721.5 544.049804688 729 c 1
 709.049804688 729 l 1
 709.049804688 721.651367188 709.049804688 7.3486328125 709.049804688 0 c 1
 709.049804688 7.5 547.340820312 7.5 547.340820312 0 c 1
 547.340820312 7.5 236.400390625 492.318359375 236.400390625 484.818359375 c 1
 236.400390625 492.318359375 236.400390625 7.5 236.400390625 0 c 1
 71.400390625 0 l 1
 71.400390625 7.3486328125 71.400390625 721.651367188 71.400390625 729 c 1
 237.303710938 729 l 1
 237.303710938 721.5 544.049804688 244.629882812 544.049804688 252.129882812 c 1
517.416364712 928 m 1
 596.411132812 928 l 1
 594.5390625 888.212890625 589.728515625 786 487.904882705 786 c 0
 470.061638174 786 448.370052033 790.209960938 425.60651588 798.4453125 c 2
 425.60651588 790.9453125 346.223689063 816.911132812 346.223689063 824.411132812 c 2
 334.544157095 828.2578125 325.662578939 830 315.682354699 830 c 0
 288.042678123 830 283.206581809 813.899414062 278.221603549 785 c 1
 197.005859375 785 l 1
 197.005859375 777.5 197.41015625 785.389648438 197.41015625 792.889648438 c 2
 201.506835938 872.768554688 239.451718048 924 306.851088373 924 c 0
 327.314655153 924 333.975325384 922.502929688 370.044800418 910.623046875 c 0
 370.148504394 910.588867188 449.531331211 885.623046875 449.531331211 885.623046875 c 2
 449.860925037 885.525390625 470.350161118 880 483.488736156 880 c 0
 510.792658275 880 514.509573064 906.934570312 517.416364712 928 c 1
EndSplineSet
EndChar

StartChar: Oacute
Encoding: 211 211 187
Width: 829
GlyphClass: 1
Flags: HW
LayerCount: 2
Fore
SplineSet
146.0234375 639.61328125 m 0
 211.822645138 707.041015625 304.99010624 741 416.968322103 741 c 0
 533.155768788 741 622.150216159 708.958984375 690.05859375 639.630859375 c 0
 756.65234375 570.299804688 794.099609375 467.45703125 794.099609375 354.096679688 c 0
 794.099609375 251.311523438 754.658203125 145.747070312 690.071289062 78.3818359375 c 0
 623.217614319 10.00390625 532.133641992 -23 418.049804688 -23 c 0
 303.965967383 -23 212.89406742 9.9912109375 146.041015625 78.369140625 c 0
 79.4609375 147.685546875 42 250.478515625 42 359 c 0
 42 467.536132812 79.5107421875 569.36328125 146.0234375 639.61328125 c 0
627.741732629 355.122070312 m 0
 627.741732629 505.799804688 545.908209015 598 418.049804688 598 c 0
 291.217551278 598 208.357876746 505.689453125 208.357876746 359 c 0
 208.357876746 212.310546875 291.217551278 120 418.049804688 120 c 0
 542.782472837 120 627.741732629 212.455078125 627.741732629 355.122070312 c 0
585.518640463 936 m 1
 585.518640463 928.5 435.597991408 763.5 435.597991408 771 c 1
 435.597991408 763.5 344.003961713 763.5 344.003961713 771 c 1
 344.003961713 763.5 427.293211188 928.5 427.293211188 936 c 1
 427.293211188 928.5 585.518640463 928.5 585.518640463 936 c 1
EndSplineSet
EndChar

StartChar: Ocircumflex
Encoding: 212 212 188
Width: 829
GlyphClass: 1
Flags: HW
LayerCount: 2
Fore
SplineSet
146.0234375 639.61328125 m 0
 211.822645138 707.041015625 304.99010624 741 416.968322103 741 c 0
 533.155768788 741 622.150216159 708.958984375 690.05859375 639.630859375 c 0
 756.65234375 570.299804688 794.099609375 467.45703125 794.099609375 354.096679688 c 0
 794.099609375 251.311523438 754.658203125 145.747070312 690.071289062 78.3818359375 c 0
 623.217614319 10.00390625 532.133641992 -23 418.049804688 -23 c 0
 303.965967383 -23 212.89406742 9.9912109375 146.041015625 78.369140625 c 0
 79.4609375 147.685546875 42 250.478515625 42 359 c 0
 42 467.536132812 79.5107421875 569.36328125 146.0234375 639.61328125 c 0
627.741732629 355.122070312 m 0
 627.741732629 505.799804688 545.908209015 598 418.049804688 598 c 0
 291.217551278 598 208.357876746 505.689453125 208.357876746 359 c 0
 208.357876746 212.310546875 291.217551278 120 418.049804688 120 c 0
 542.782472837 120 627.741732629 212.455078125 627.741732629 355.122070312 c 0
230.535814959 771 m 1
 230.535814959 763.5 359.041096777 928.5 359.041096777 936 c 1
 482.577594886 936 l 1
 482.577594886 928.5 605.132207412 763.5 605.132207412 771 c 1
 502.124763835 771 l 1
 502.124763835 763.5 416.968322103 859.506835938 416.968322103 867.006835938 c 1
 416.968322103 859.506835938 331.81188037 763.5 331.81188037 771 c 1
 331.81188037 763.5 230.535814959 763.5 230.535814959 771 c 1
EndSplineSet
EndChar

StartChar: Odieresis
Encoding: 214 214 189
Width: 829
GlyphClass: 1
Flags: HW
LayerCount: 2
Fore
SplineSet
146.0234375 639.61328125 m 0
 211.822645138 707.041015625 304.99010624 741 416.968322103 741 c 0
 533.155768788 741 622.150216159 708.958984375 690.05859375 639.630859375 c 0
 756.65234375 570.299804688 794.099609375 467.45703125 794.099609375 354.096679688 c 0
 794.099609375 251.311523438 754.658203125 145.747070312 690.071289062 78.3818359375 c 0
 623.217614319 10.00390625 532.133641992 -23 418.049804688 -23 c 0
 303.965967383 -23 212.89406742 9.9912109375 146.041015625 78.369140625 c 0
 79.4609375 147.685546875 42 250.478515625 42 359 c 0
 42 467.536132812 79.5107421875 569.36328125 146.0234375 639.61328125 c 0
627.741732629 355.122070312 m 0
 627.741732629 505.799804688 545.908209015 598 418.049804688 598 c 0
 291.217551278 598 208.357876746 505.689453125 208.357876746 359 c 0
 208.357876746 212.310546875 291.217551278 120 418.049804688 120 c 0
 542.782472837 120 627.741732629 212.455078125 627.741732629 355.122070312 c 0
250.234894485 922 m 1
 384.672737049 922 l 1
 384.672737049 914.5 384.672737049 777.5 384.672737049 785 c 1
 250.234894485 785 l 1
 250.234894485 777.5 250.234894485 914.5 250.234894485 922 c 1
451.427878357 922 m 1
 585.86572092 922 l 1
 585.86572092 914.5 585.86572092 777.5 585.86572092 785 c 1
 451.427878357 785 l 1
 451.427878357 777.5 451.427878357 914.5 451.427878357 922 c 1
EndSplineSet
EndChar

StartChar: Ograve
Encoding: 210 210 190
Width: 829
GlyphClass: 1
Flags: HW
LayerCount: 2
Fore
SplineSet
146.0234375 639.61328125 m 0
 211.822645138 707.041015625 304.99010624 741 416.968322103 741 c 0
 533.155768788 741 622.150216159 708.958984375 690.05859375 639.630859375 c 0
 756.65234375 570.299804688 794.099609375 467.45703125 794.099609375 354.096679688 c 0
 794.099609375 251.311523438 754.658203125 145.747070312 690.071289062 78.3818359375 c 0
 623.217614319 10.00390625 532.133641992 -23 418.049804688 -23 c 0
 303.965967383 -23 212.89406742 9.9912109375 146.041015625 78.369140625 c 0
 79.4609375 147.685546875 42 250.478515625 42 359 c 0
 42 467.536132812 79.5107421875 569.36328125 146.0234375 639.61328125 c 0
627.741732629 355.122070312 m 0
 627.741732629 505.799804688 545.908209015 598 418.049804688 598 c 0
 291.217551278 598 208.357876746 505.689453125 208.357876746 359 c 0
 208.357876746 212.310546875 291.217551278 120 418.049804688 120 c 0
 542.782472837 120 627.741732629 212.455078125 627.741732629 355.122070312 c 0
402.665589167 771 m 1
 402.665589167 763.5 252.744940112 928.5 252.744940112 936 c 1
 252.744940112 928.5 410.970369387 928.5 410.970369387 936 c 1
 410.970369387 928.5 494.259618861 763.5 494.259618861 771 c 1
 402.665589167 771 l 1
EndSplineSet
EndChar

StartChar: Otilde
Encoding: 213 213 191
Width: 829
GlyphClass: 1
Flags: HW
LayerCount: 2
Fore
SplineSet
146.0234375 639.61328125 m 0
 211.822645138 707.041015625 304.99010624 741 416.968322103 741 c 0
 533.155768788 741 622.150216159 708.958984375 690.05859375 639.630859375 c 0
 756.65234375 570.299804688 794.099609375 467.45703125 794.099609375 354.096679688 c 0
 794.099609375 251.311523438 754.658203125 145.747070312 690.071289062 78.3818359375 c 0
 623.217614319 10.00390625 532.133641992 -23 418.049804688 -23 c 0
 303.965967383 -23 212.89406742 9.9912109375 146.041015625 78.369140625 c 0
 79.4609375 147.685546875 42 250.478515625 42 359 c 0
 42 467.536132812 79.5107421875 569.36328125 146.0234375 639.61328125 c 0
627.741732629 355.122070312 m 0
 627.741732629 505.799804688 545.908209015 598 418.049804688 598 c 0
 291.217551278 598 208.357876746 505.689453125 208.357876746 359 c 0
 208.357876746 212.310546875 291.217551278 120 418.049804688 120 c 0
 542.782472837 120 627.741732629 212.455078125 627.741732629 355.122070312 c 0
542.153703893 928 m 1
 625.298085003 928 l 1
 622.830292649 889.208984375 616.262926777 786 514.319863269 786 c 0
 496.800851428 786 475.620895284 790.197265625 452.285016182 798.416015625 c 0
 452.196485515 798.446289062 378.717037606 823.322265625 375.588283337 824.380859375 c 0
 362.978699415 828.26171875 354.135692979 830 345.57739312 830 c 0
 317.145970492 830 312.370344604 812.088867188 307.791900657 785 c 1
 226.118335862 785 l 1
 226.118335862 777.5 226.443283653 785.307617188 226.443283653 792.807617188 c 2
 229.774250014 872.842773438 269.862545859 924 335.842037797 924 c 0
 355.868077175 924 363.441473358 922.5234375 398.870842832 910.61328125 c 0
 398.942270984 910.588867188 475.670190769 885.61328125 475.670190769 885.61328125 c 2
 476.002180772 885.510742188 496.801857458 880 509.9929269 880 c 0
 535.474668656 880 539.038028019 904.948242188 542.153703893 928 c 1
EndSplineSet
EndChar

